<svg xmlns="http://www.w3.org/2000/svg" viewBox="0 0 1040 640" role="img" aria-labelledby="chart-title chart-desc">
<title id="chart-title">WR250R reference (Web Cam 81-651)</title>
<desc id="chart-desc">Valve-lift overlay rendered from a source-blind cam-analyzer visualization projection.</desc>
<rect x="0" y="0" width="1040" height="640" fill="#ffffff"/>
<text x="78" y="42" font-family="Arial, sans-serif" font-size="24" font-weight="700" fill="#111827">WR250R reference (Web Cam 81-651)</text>
<text x="78" y="66" font-family="Arial, sans-serif" font-size="13" fill="#4b5563">Valve lift overlay, sampled over 720 crank degrees</text>
<rect x="78" y="82" width="888" height="372" fill="#f9fafb" stroke="#d1d5db"/>
<line x1="78.00" y1="82" x2="78.00" y2="454" stroke="#e5e7eb"/>
<text x="78.00" y="478" text-anchor="middle" font-family="Arial, sans-serif" font-size="11" fill="#374151">0</text>
<line x1="189.00" y1="82" x2="189.00" y2="454" stroke="#e5e7eb"/>
<text x="189.00" y="478" text-anchor="middle" font-family="Arial, sans-serif" font-size="11" fill="#374151">90</text>
<line x1="300.00" y1="82" x2="300.00" y2="454" stroke="#e5e7eb"/>
<text x="300.00" y="478" text-anchor="middle" font-family="Arial, sans-serif" font-size="11" fill="#374151">180</text>
<line x1="411.00" y1="82" x2="411.00" y2="454" stroke="#e5e7eb"/>
<text x="411.00" y="478" text-anchor="middle" font-family="Arial, sans-serif" font-size="11" fill="#374151">270</text>
<line x1="522.00" y1="82" x2="522.00" y2="454" stroke="#e5e7eb"/>
<text x="522.00" y="478" text-anchor="middle" font-family="Arial, sans-serif" font-size="11" fill="#374151">360</text>
<line x1="633.00" y1="82" x2="633.00" y2="454" stroke="#e5e7eb"/>
<text x="633.00" y="478" text-anchor="middle" font-family="Arial, sans-serif" font-size="11" fill="#374151">450</text>
<line x1="744.00" y1="82" x2="744.00" y2="454" stroke="#e5e7eb"/>
<text x="744.00" y="478" text-anchor="middle" font-family="Arial, sans-serif" font-size="11" fill="#374151">540</text>
<line x1="855.00" y1="82" x2="855.00" y2="454" stroke="#e5e7eb"/>
<text x="855.00" y="478" text-anchor="middle" font-family="Arial, sans-serif" font-size="11" fill="#374151">630</text>
<line x1="966.00" y1="82" x2="966.00" y2="454" stroke="#e5e7eb"/>
<text x="966.00" y="478" text-anchor="middle" font-family="Arial, sans-serif" font-size="11" fill="#374151">720</text>
<line x1="78" y1="454.00" x2="966" y2="454.00" stroke="#e5e7eb"/>
<text x="66" y="458.00" text-anchor="end" font-family="Arial, sans-serif" font-size="11" fill="#374151">0.000</text>
<line x1="78" y1="361.00" x2="966" y2="361.00" stroke="#e5e7eb"/>
<text x="66" y="365.00" text-anchor="end" font-family="Arial, sans-serif" font-size="11" fill="#374151">0.100</text>
<line x1="78" y1="268.00" x2="966" y2="268.00" stroke="#e5e7eb"/>
<text x="66" y="272.00" text-anchor="end" font-family="Arial, sans-serif" font-size="11" fill="#374151">0.200</text>
<line x1="78" y1="175.00" x2="966" y2="175.00" stroke="#e5e7eb"/>
<text x="66" y="179.00" text-anchor="end" font-family="Arial, sans-serif" font-size="11" fill="#374151">0.300</text>
<line x1="78" y1="82.00" x2="966" y2="82.00" stroke="#e5e7eb"/>
<text x="66" y="86.00" text-anchor="end" font-family="Arial, sans-serif" font-size="11" fill="#374151">0.400</text>
<text x="522" y="506" text-anchor="middle" font-family="Arial, sans-serif" font-size="13" fill="#111827">Crank angle (deg)</text><text x="22" y="268" transform="rotate(-90 22 268)" text-anchor="middle" font-family="Arial, sans-serif" font-size="13" fill="#111827">Valve lift (in)</text>
<path d="M 78.00 370.54 L 80.47 362.84 L 82.93 355.19 L 85.40 347.58 L 87.87 340.03 L 90.33 332.54 L 92.80 325.11 L 95.27 317.74 L 97.73 310.46 L 100.20 303.25 L 102.67 296.12 L 105.13 289.08 L 107.60 282.13 L 110.07 275.28 L 112.53 268.52 L 115.00 261.88 L 117.47 255.34 L 119.93 248.91 L 122.40 242.60 L 124.87 236.41 L 127.33 230.35 L 129.80 224.41 L 132.27 218.61 L 134.73 212.94 L 137.20 207.40 L 139.67 202.02 L 142.13 196.77 L 144.60 191.68 L 147.07 186.74 L 149.53 181.95 L 152.00 177.32 L 154.47 172.85 L 156.93 168.54 L 159.40 164.40 L 161.87 160.43 L 164.33 156.63 L 166.80 153.00 L 169.27 149.55 L 171.73 146.27 L 174.20 143.17 L 176.67 140.26 L 179.13 137.53 L 181.60 134.98 L 184.07 132.62 L 186.53 130.44 L 189.00 128.46 L 191.47 126.66 L 193.93 125.06 L 196.40 123.65 L 198.87 122.43 L 201.33 121.41 L 203.80 120.58" fill="none" stroke="#2563eb" stroke-width="2.5" stroke-opacity="0.70" stroke-dasharray="6 4" stroke-linecap="round" stroke-linejoin="round"/>
<path d="M 206.27 119.94 L 208.73 119.50 L 211.20 119.26 L 213.67 119.21 L 216.13 119.35 L 218.60 119.70" fill="none" stroke="#2563eb" stroke-width="2.5" stroke-opacity="0.45" stroke-dasharray="12 7" stroke-linecap="round" stroke-linejoin="round"/>
<path d="M 221.07 120.23 L 223.53 120.97 L 226.00 121.89 L 228.47 123.02 L 230.93 124.33 L 233.40 125.84 L 235.87 127.54 L 238.33 129.43 L 240.80 131.51 L 243.27 133.77 L 245.73 136.23 L 248.20 138.87 L 250.67 141.69 L 253.13 144.70 L 255.60 147.89 L 258.07 151.25 L 260.53 154.79 L 263.00 158.51 L 265.47 162.39 L 267.93 166.45 L 270.40 170.67 L 272.87 175.06 L 275.33 179.61 L 277.80 184.32 L 280.27 189.19 L 282.73 194.21 L 285.20 199.38 L 287.67 204.69 L 290.13 210.15 L 292.60 215.75 L 295.07 221.49 L 297.53 227.36 L 300.00 233.36 L 302.47 239.49 L 304.93 245.74 L 307.40 252.11 L 309.87 258.59 L 312.33 265.19 L 314.80 271.89 L 317.27 278.69 L 319.73 285.59 L 322.20 292.59 L 324.67 299.67 L 327.13 306.84 L 329.60 314.09 L 332.07 321.42 L 334.53 328.81 L 337.00 336.27 L 339.47 343.80 L 341.93 351.38 L 344.40 359.01 L 346.87 366.68 L 349.33 374.40 L 351.80 382.15 L 354.27 389.93 L 356.73 397.73 L 359.20 405.54" fill="none" stroke="#2563eb" stroke-width="2.5" stroke-opacity="0.70" stroke-dasharray="6 4" stroke-linecap="round" stroke-linejoin="round"/>
<path d="M 361.67 413.37 L 364.13 421.19 L 366.60 429.00 L 369.07 436.79 L 371.53 444.53 L 374.00 452.15 L 376.47 454.00 L 378.93 454.00 L 381.40 454.00 L 383.87 454.00 L 386.33 454.00 L 388.80 454.00 L 391.27 454.00 L 393.73 454.00 L 396.20 454.00 L 398.67 454.00 L 401.13 454.00 L 403.60 454.00 L 406.07 454.00 L 408.53 454.00 L 411.00 454.00 L 413.47 454.00 L 415.93 454.00 L 418.40 454.00 L 420.87 454.00 L 423.33 454.00 L 425.80 454.00 L 428.27 454.00 L 430.73 454.00 L 433.20 454.00 L 435.67 454.00 L 438.13 454.00 L 440.60 454.00 L 443.07 454.00 L 445.53 454.00 L 448.00 454.00 L 450.47 454.00 L 452.93 454.00 L 455.40 454.00 L 457.87 454.00 L 460.33 454.00 L 462.80 454.00 L 465.27 454.00 L 467.73 454.00 L 470.20 454.00 L 472.67 454.00 L 475.13 454.00 L 477.60 454.00 L 480.07 454.00 L 482.53 454.00 L 485.00 454.00 L 487.47 454.00 L 489.93 454.00 L 492.40 454.00 L 494.87 454.00 L 497.33 454.00 L 499.80 454.00 L 502.27 454.00 L 504.73 454.00 L 507.20 454.00 L 509.67 454.00 L 512.13 454.00 L 514.60 454.00 L 517.07 454.00 L 519.53 454.00 L 522.00 454.00 L 524.47 454.00 L 526.93 454.00 L 529.40 454.00 L 531.87 454.00 L 534.33 454.00 L 536.80 454.00 L 539.27 454.00 L 541.73 454.00 L 544.20 454.00 L 546.67 454.00 L 549.13 454.00 L 551.60 454.00 L 554.07 454.00 L 556.53 454.00 L 559.00 454.00 L 561.47 454.00 L 563.93 454.00 L 566.40 454.00 L 568.87 454.00 L 571.33 454.00 L 573.80 454.00 L 576.27 454.00 L 578.73 454.00 L 581.20 454.00 L 583.67 454.00 L 586.13 454.00 L 588.60 454.00 L 591.07 454.00 L 593.53 454.00 L 596.00 454.00 L 598.47 454.00 L 600.93 454.00 L 603.40 454.00 L 605.87 454.00 L 608.33 454.00 L 610.80 454.00 L 613.27 454.00 L 615.73 454.00 L 618.20 454.00 L 620.67 454.00 L 623.13 454.00 L 625.60 454.00 L 628.07 454.00 L 630.53 454.00 L 633.00 454.00 L 635.47 454.00 L 637.93 454.00 L 640.40 454.00 L 642.87 454.00 L 645.33 454.00 L 647.80 454.00 L 650.27 454.00 L 652.73 454.00 L 655.20 454.00 L 657.67 454.00 L 660.13 454.00 L 662.60 454.00 L 665.07 454.00 L 667.53 454.00 L 670.00 454.00 L 672.47 454.00 L 674.93 454.00 L 677.40 454.00 L 679.87 454.00 L 682.33 454.00 L 684.80 454.00 L 687.27 454.00 L 689.73 454.00 L 692.20 454.00 L 694.67 454.00 L 697.13 454.00 L 699.60 454.00 L 702.07 454.00 L 704.53 454.00 L 707.00 454.00 L 709.47 454.00 L 711.93 454.00 L 714.40 454.00 L 716.87 454.00 L 719.33 454.00 L 721.80 454.00 L 724.27 454.00 L 726.73 454.00 L 729.20 454.00 L 731.67 454.00 L 734.13 454.00 L 736.60 454.00 L 739.07 454.00 L 741.53 454.00 L 744.00 454.00 L 746.47 454.00 L 748.93 454.00 L 751.40 454.00 L 753.87 454.00 L 756.33 454.00 L 758.80 454.00 L 761.27 454.00 L 763.73 454.00 L 766.20 454.00 L 768.67 454.00 L 771.13 454.00 L 773.60 454.00 L 776.07 454.00 L 778.53 454.00 L 781.00 454.00 L 783.47 454.00 L 785.93 454.00 L 788.40 454.00 L 790.87 454.00 L 793.33 454.00 L 795.80 454.00 L 798.27 454.00 L 800.73 454.00 L 803.20 454.00 L 805.67 454.00 L 808.13 454.00 L 810.60 454.00 L 813.07 454.00 L 815.53 454.00 L 818.00 454.00 L 820.47 454.00 L 822.93 454.00 L 825.40 454.00 L 827.87 454.00 L 830.33 454.00 L 832.80 454.00 L 835.27 454.00 L 837.73 454.00 L 840.20 454.00 L 842.67 454.00 L 845.13 454.00 L 847.60 454.00 L 850.07 454.00 L 852.53 454.00 L 855.00 454.00 L 857.47 454.00 L 859.93 454.00 L 862.40 454.00 L 864.87 454.00 L 867.33 454.00 L 869.80 454.00 L 872.27 454.00 L 874.73 454.00 L 877.20 454.00 L 879.67 454.00 L 882.13 454.00 L 884.60 454.00 L 887.07 454.00 L 889.53 454.00 L 892.00 454.00 L 894.47 454.00 L 896.93 454.00 L 899.40 454.00 L 901.87 454.00 L 904.33 454.00 L 906.80 454.00 L 909.27 454.00 L 911.73 454.00 L 914.20 454.00 L 916.67 454.00 L 919.13 454.00 L 921.60 454.00 L 924.07 454.00 L 926.53 454.00 L 929.00 454.00 L 931.47 454.00 L 933.93 454.00 L 936.40 454.00 L 938.87 454.00 L 941.33 448.36 L 943.80 440.67 L 946.27 432.90 L 948.73 425.10 L 951.20 417.28 L 953.67 409.46" fill="none" stroke="#2563eb" stroke-width="2.5" stroke-opacity="0.45" stroke-dasharray="12 7" stroke-linecap="round" stroke-linejoin="round"/>
<path d="M 956.13 401.64 L 958.60 393.83 L 961.07 386.04 L 963.53 378.27 L 966.00 370.54" fill="none" stroke="#2563eb" stroke-width="2.5" stroke-opacity="0.70" stroke-dasharray="6 4" stroke-linecap="round" stroke-linejoin="round"/>
<path d="M 78.00 337.79 L 80.47 345.13 L 82.93 352.52 L 85.40 359.97 L 87.87 367.47 L 90.33 375.01 L 92.80 382.60 L 95.27 390.23 L 97.73 397.89 L 100.20 405.57" fill="none" stroke="#dc2626" stroke-width="2.5" stroke-opacity="0.70" stroke-dasharray="6 4" stroke-linecap="round" stroke-linejoin="round"/>
<path d="M 102.67 413.29 L 105.13 421.02 L 107.60 428.77 L 110.07 436.53 L 112.53 444.30 L 115.00 452.06 L 117.47 454.00 L 119.93 454.00 L 122.40 454.00 L 124.87 454.00 L 127.33 454.00 L 129.80 454.00 L 132.27 454.00 L 134.73 454.00 L 137.20 454.00 L 139.67 454.00 L 142.13 454.00 L 144.60 454.00 L 147.07 454.00 L 149.53 454.00 L 152.00 454.00 L 154.47 454.00 L 156.93 454.00 L 159.40 454.00 L 161.87 454.00 L 164.33 454.00 L 166.80 454.00 L 169.27 454.00 L 171.73 454.00 L 174.20 454.00 L 176.67 454.00 L 179.13 454.00 L 181.60 454.00 L 184.07 454.00 L 186.53 454.00 L 189.00 454.00 L 191.47 454.00 L 193.93 454.00 L 196.40 454.00 L 198.87 454.00 L 201.33 454.00 L 203.80 454.00 L 206.27 454.00 L 208.73 454.00 L 211.20 454.00 L 213.67 454.00 L 216.13 454.00 L 218.60 454.00 L 221.07 454.00 L 223.53 454.00 L 226.00 454.00 L 228.47 454.00 L 230.93 454.00 L 233.40 454.00 L 235.87 454.00 L 238.33 454.00 L 240.80 454.00 L 243.27 454.00 L 245.73 454.00 L 248.20 454.00 L 250.67 454.00 L 253.13 454.00 L 255.60 454.00 L 258.07 454.00 L 260.53 454.00 L 263.00 454.00 L 265.47 454.00 L 267.93 454.00 L 270.40 454.00 L 272.87 454.00 L 275.33 454.00 L 277.80 454.00 L 280.27 454.00 L 282.73 454.00 L 285.20 454.00 L 287.67 454.00 L 290.13 454.00 L 292.60 454.00 L 295.07 454.00 L 297.53 454.00 L 300.00 454.00 L 302.47 454.00 L 304.93 454.00 L 307.40 454.00 L 309.87 454.00 L 312.33 454.00 L 314.80 454.00 L 317.27 454.00 L 319.73 454.00 L 322.20 454.00 L 324.67 454.00 L 327.13 454.00 L 329.60 454.00 L 332.07 454.00 L 334.53 454.00 L 337.00 454.00 L 339.47 454.00 L 341.93 454.00 L 344.40 454.00 L 346.87 454.00 L 349.33 454.00 L 351.80 454.00 L 354.27 454.00 L 356.73 454.00 L 359.20 454.00 L 361.67 454.00 L 364.13 454.00 L 366.60 454.00 L 369.07 454.00 L 371.53 454.00 L 374.00 454.00 L 376.47 454.00 L 378.93 454.00 L 381.40 454.00 L 383.87 454.00 L 386.33 454.00 L 388.80 454.00 L 391.27 454.00 L 393.73 454.00 L 396.20 454.00 L 398.67 454.00 L 401.13 454.00 L 403.60 454.00 L 406.07 454.00 L 408.53 454.00 L 411.00 454.00 L 413.47 454.00 L 415.93 454.00 L 418.40 454.00 L 420.87 454.00 L 423.33 454.00 L 425.80 454.00 L 428.27 454.00 L 430.73 454.00 L 433.20 454.00 L 435.67 454.00 L 438.13 454.00 L 440.60 454.00 L 443.07 454.00 L 445.53 454.00 L 448.00 454.00 L 450.47 454.00 L 452.93 454.00 L 455.40 454.00 L 457.87 454.00 L 460.33 454.00 L 462.80 454.00 L 465.27 454.00 L 467.73 454.00 L 470.20 454.00 L 472.67 454.00 L 475.13 454.00 L 477.60 454.00 L 480.07 454.00 L 482.53 454.00 L 485.00 454.00 L 487.47 454.00 L 489.93 454.00 L 492.40 454.00 L 494.87 454.00 L 497.33 454.00 L 499.80 454.00 L 502.27 454.00 L 504.73 454.00 L 507.20 454.00 L 509.67 454.00 L 512.13 454.00 L 514.60 454.00 L 517.07 454.00 L 519.53 454.00 L 522.00 454.00 L 524.47 454.00 L 526.93 454.00 L 529.40 454.00 L 531.87 454.00 L 534.33 454.00 L 536.80 454.00 L 539.27 454.00 L 541.73 454.00 L 544.20 454.00 L 546.67 454.00 L 549.13 454.00 L 551.60 454.00 L 554.07 454.00 L 556.53 454.00 L 559.00 454.00 L 561.47 454.00 L 563.93 454.00 L 566.40 454.00 L 568.87 454.00 L 571.33 454.00 L 573.80 454.00 L 576.27 454.00 L 578.73 454.00 L 581.20 454.00 L 583.67 454.00 L 586.13 454.00 L 588.60 454.00 L 591.07 454.00 L 593.53 454.00 L 596.00 454.00 L 598.47 454.00 L 600.93 454.00 L 603.40 454.00 L 605.87 454.00 L 608.33 454.00 L 610.80 454.00 L 613.27 454.00 L 615.73 454.00 L 618.20 454.00 L 620.67 454.00 L 623.13 454.00 L 625.60 454.00 L 628.07 454.00 L 630.53 454.00 L 633.00 454.00 L 635.47 454.00 L 637.93 454.00 L 640.40 454.00 L 642.87 454.00 L 645.33 454.00 L 647.80 454.00 L 650.27 454.00 L 652.73 454.00 L 655.20 454.00 L 657.67 454.00 L 660.13 454.00 L 662.60 454.00 L 665.07 454.00 L 667.53 454.00 L 670.00 454.00 L 672.47 448.18 L 674.93 440.41 L 677.40 432.65 L 679.87 424.89 L 682.33 417.15 L 684.80 409.43" fill="none" stroke="#dc2626" stroke-width="2.5" stroke-opacity="0.45" stroke-dasharray="12 7" stroke-linecap="round" stroke-linejoin="round"/>
<path d="M 687.27 401.73 L 689.73 394.05 L 692.20 386.41 L 694.67 378.80 L 697.13 371.24 L 699.60 363.71 L 702.07 356.24 L 704.53 348.82 L 707.00 341.45 L 709.47 334.15 L 711.93 326.91 L 714.40 319.73 L 716.87 312.63 L 719.33 305.61 L 721.80 298.67 L 724.27 291.81 L 726.73 285.04 L 729.20 278.36 L 731.67 271.77 L 734.13 265.28 L 736.60 258.90 L 739.07 252.62 L 741.53 246.45 L 744.00 240.39 L 746.47 234.45 L 748.93 228.62 L 751.40 222.92 L 753.87 217.35 L 756.33 211.90 L 758.80 206.58 L 761.27 201.40 L 763.73 196.35 L 766.20 191.44 L 768.67 186.68 L 771.13 182.06 L 773.60 177.59 L 776.07 173.26 L 778.53 169.09 L 781.00 165.08 L 783.47 161.22 L 785.93 157.52 L 788.40 153.98 L 790.87 150.60 L 793.33 147.39 L 795.80 144.34 L 798.27 141.46 L 800.73 138.75 L 803.20 136.21 L 805.67 133.84 L 808.13 131.65 L 810.60 129.63 L 813.07 127.79 L 815.53 126.12 L 818.00 124.64 L 820.47 123.33 L 822.93 122.20 L 825.40 121.25 L 827.87 120.48" fill="none" stroke="#dc2626" stroke-width="2.5" stroke-opacity="0.70" stroke-dasharray="6 4" stroke-linecap="round" stroke-linejoin="round"/>
<path d="M 830.33 119.89 L 832.80 119.48 L 835.27 119.25 L 837.73 119.21 L 840.20 119.34 L 842.67 119.66" fill="none" stroke="#dc2626" stroke-width="2.5" stroke-opacity="0.45" stroke-dasharray="12 7" stroke-linecap="round" stroke-linejoin="round"/>
<path d="M 845.13 120.16 L 847.60 120.84 L 850.07 121.70 L 852.53 122.74 L 855.00 123.96 L 857.47 125.36 L 859.93 126.93 L 862.40 128.69 L 864.87 130.62 L 867.33 132.73 L 869.80 135.01 L 872.27 137.46 L 874.73 140.08 L 877.20 142.88 L 879.67 145.84 L 882.13 148.97 L 884.60 152.27 L 887.07 155.73 L 889.53 159.35 L 892.00 163.13 L 894.47 167.07 L 896.93 171.16 L 899.40 175.41 L 901.87 179.80 L 904.33 184.35 L 906.80 189.04 L 909.27 193.88 L 911.73 198.86 L 914.20 203.97 L 916.67 209.22 L 919.13 214.61 L 921.60 220.12 L 924.07 225.76 L 926.53 231.52 L 929.00 237.40 L 931.47 243.40 L 933.93 249.52 L 936.40 255.74 L 938.87 262.08 L 941.33 268.51 L 943.80 275.05 L 946.27 281.68 L 948.73 288.41 L 951.20 295.23 L 953.67 302.13 L 956.13 309.11 L 958.60 316.17 L 961.07 323.31 L 963.53 330.52 L 966.00 337.79" fill="none" stroke="#dc2626" stroke-width="2.5" stroke-opacity="0.70" stroke-dasharray="6 4" stroke-linecap="round" stroke-linejoin="round"/>
<text x="78" y="540" font-family="Arial, sans-serif" font-size="13" font-weight="700" fill="#111827">Profiles</text>
<line x1="78" y1="562" x2="106" y2="562" stroke="#2563eb" stroke-width="3"/>
<text x="116" y="566" font-family="Arial, sans-serif" font-size="12" fill="#111827">Intake</text>
<line x1="78" y1="582" x2="106" y2="582" stroke="#dc2626" stroke-width="3"/>
<text x="116" y="586" font-family="Arial, sans-serif" font-size="12" fill="#111827">Exhaust</text>
<text x="398" y="540" font-family="Arial, sans-serif" font-size="13" font-weight="700" fill="#111827">Provenance</text>
<line x1="398" y1="562" x2="434" y2="562" stroke="#111827" stroke-width="2.5" stroke-opacity="1.00" stroke-dasharray=""/>
<text x="446" y="566" font-family="Arial, sans-serif" font-size="12" fill="#111827">MEASURED</text>
<line x1="398" y1="580" x2="434" y2="580" stroke="#111827" stroke-width="2.5" stroke-opacity="0.70" stroke-dasharray="6 4"/>
<text x="446" y="584" font-family="Arial, sans-serif" font-size="12" fill="#111827">INFERRED</text>
<line x1="398" y1="598" x2="434" y2="598" stroke="#111827" stroke-width="2.5" stroke-opacity="0.45" stroke-dasharray="12 7"/>
<text x="446" y="602" font-family="Arial, sans-serif" font-size="12" fill="#111827">EXTRAPOLATED</text>
<rect x="398" y="609" width="36" height="10" fill="none" stroke="#111827"/>
<text x="446" y="620" font-family="Arial, sans-serif" font-size="12" fill="#111827">UNDECIDABLE</text>
<text x="78" y="620" font-family="Arial, sans-serif" font-size="11" fill="#4b5563">Projection: cam_analyzer.visualization_projection.v1. Renderer draws only sampled boundary answers and does not recompute source facts.</text>
</svg>
