<svg xmlns="http://www.w3.org/2000/svg" viewBox="0 0 1536 1024" role="img" aria-labelledby="chart-title chart-desc">
<title id="chart-title">WR250R reference (Web Cam 81-651)</title>
<desc id="chart-desc">Overlap-centered SVAJ stack with hard cam-card events, lift thresholds, confidence bands, and source-blind profile quality.</desc>
<rect x="0" y="0" width="1536" height="1024" fill="#ffffff"/>
<text x="24" y="38" font-family="Arial, sans-serif" font-size="28" font-weight="700" fill="#0f172a">WR250R reference (Web Cam 81-651)</text>
<text x="24" y="64" font-family="Arial, sans-serif" font-size="14" fill="#475569">Primary engineering view: -360 to +360 crank degrees; 0 = TDC overlap</text>
<rect x="96" y="92" width="1024" height="300" fill="#ffffff" stroke="#cbd5e1"/>
<line x1="608.00" y1="92" x2="608.00" y2="392" stroke="#64748b" stroke-width="1.2"/>
<text x="32" y="112" font-family="Arial, sans-serif" font-size="13" font-weight="700" fill="#0f172a">Lift (in)</text>
<text x="608.00" y="110" text-anchor="middle" font-family="Arial, sans-serif" font-size="11" font-weight="700" fill="#334155">0 TDC</text>
<rect x="594.49" y="92" width="39.82" height="300" fill="#e2e8f0" fill-opacity="0.55" stroke="none" data-overlap-threshold="0.050" data-overlap-start-deg="-9.5" data-overlap-end-deg="18.5"/>
<text x="608.00" y="124" text-anchor="middle" font-family="Arial, sans-serif" font-size="12" font-weight="700" fill="#0f172a">OVERLAP @ 0.050 in</text>
<text x="608.00" y="144" text-anchor="middle" font-family="Arial, sans-serif" font-size="20" font-weight="700" fill="#0f172a">28.0 deg</text>
<line x1="96" y1="391.25" x2="1120" y2="391.25" stroke="#9ca3af" stroke-dasharray="5 4" stroke-opacity="0.62"/>
<line x1="1054.00" y1="391.25" x2="1072.00" y2="380.00" stroke="#9ca3af" stroke-opacity="0.45"/>
<text x="1110" y="384.00" text-anchor="end" font-family="Arial, sans-serif" font-size="11" fill="#9ca3af">0.001</text>
<line x1="96" y1="387.50" x2="1120" y2="387.50" stroke="#64748b" stroke-dasharray="5 4" stroke-opacity="0.62"/>
<line x1="1054.00" y1="387.50" x2="1072.00" y2="366.00" stroke="#64748b" stroke-opacity="0.45"/>
<text x="1110" y="370.00" text-anchor="end" font-family="Arial, sans-serif" font-size="11" fill="#64748b">0.006</text>
<line x1="96" y1="377.00" x2="1120" y2="377.00" stroke="#60a5fa" stroke-dasharray="5 4" stroke-opacity="0.62"/>
<line x1="1054.00" y1="377.00" x2="1072.00" y2="352.00" stroke="#60a5fa" stroke-opacity="0.45"/>
<text x="1110" y="356.00" text-anchor="end" font-family="Arial, sans-serif" font-size="11" fill="#60a5fa">0.020</text>
<line x1="96" y1="354.50" x2="1120" y2="354.50" stroke="#16a34a" stroke-dasharray="5 4" stroke-opacity="0.62"/>
<line x1="1054.00" y1="354.50" x2="1072.00" y2="338.00" stroke="#16a34a" stroke-opacity="0.45"/>
<text x="1110" y="342.00" text-anchor="end" font-family="Arial, sans-serif" font-size="11" fill="#16a34a">0.050</text>
<line x1="96" y1="317.00" x2="1120" y2="317.00" stroke="#f97316" stroke-dasharray="5 4" stroke-opacity="0.62"/>
<text x="1110" y="321.00" text-anchor="end" font-family="Arial, sans-serif" font-size="11" fill="#f97316">0.100</text>
<line x1="96" y1="242.00" x2="1120" y2="242.00" stroke="#7c3aed" stroke-dasharray="5 4" stroke-opacity="0.62"/>
<text x="1110" y="246.00" text-anchor="end" font-family="Arial, sans-serif" font-size="11" fill="#7c3aed">0.200</text>
<line x1="96.00" y1="92" x2="96.00" y2="392" stroke="#cbd5e1"/>
<text x="96.00" y="412" text-anchor="middle" font-family="Arial, sans-serif" font-size="11" fill="#334155">-360</text>
<line x1="160.00" y1="92" x2="160.00" y2="392" stroke="#e2e8f0"/>
<text x="160.00" y="412" text-anchor="middle" font-family="Arial, sans-serif" font-size="11" fill="#334155">-315</text>
<line x1="224.00" y1="92" x2="224.00" y2="392" stroke="#cbd5e1"/>
<text x="224.00" y="412" text-anchor="middle" font-family="Arial, sans-serif" font-size="11" fill="#334155">-270</text>
<line x1="288.00" y1="92" x2="288.00" y2="392" stroke="#e2e8f0"/>
<text x="288.00" y="412" text-anchor="middle" font-family="Arial, sans-serif" font-size="11" fill="#334155">-225</text>
<line x1="352.00" y1="92" x2="352.00" y2="392" stroke="#cbd5e1"/>
<text x="352.00" y="412" text-anchor="middle" font-family="Arial, sans-serif" font-size="11" fill="#334155">-180</text>
<line x1="416.00" y1="92" x2="416.00" y2="392" stroke="#e2e8f0"/>
<text x="416.00" y="412" text-anchor="middle" font-family="Arial, sans-serif" font-size="11" fill="#334155">-135</text>
<line x1="480.00" y1="92" x2="480.00" y2="392" stroke="#cbd5e1"/>
<text x="480.00" y="412" text-anchor="middle" font-family="Arial, sans-serif" font-size="11" fill="#334155">-90</text>
<line x1="544.00" y1="92" x2="544.00" y2="392" stroke="#e2e8f0"/>
<text x="544.00" y="412" text-anchor="middle" font-family="Arial, sans-serif" font-size="11" fill="#334155">-45</text>
<line x1="608.00" y1="92" x2="608.00" y2="392" stroke="#cbd5e1"/>
<text x="608.00" y="412" text-anchor="middle" font-family="Arial, sans-serif" font-size="11" fill="#334155">0 TDC</text>
<line x1="672.00" y1="92" x2="672.00" y2="392" stroke="#e2e8f0"/>
<text x="672.00" y="412" text-anchor="middle" font-family="Arial, sans-serif" font-size="11" fill="#334155">+45</text>
<line x1="736.00" y1="92" x2="736.00" y2="392" stroke="#cbd5e1"/>
<text x="736.00" y="412" text-anchor="middle" font-family="Arial, sans-serif" font-size="11" fill="#334155">+90</text>
<line x1="800.00" y1="92" x2="800.00" y2="392" stroke="#e2e8f0"/>
<text x="800.00" y="412" text-anchor="middle" font-family="Arial, sans-serif" font-size="11" fill="#334155">+135</text>
<line x1="864.00" y1="92" x2="864.00" y2="392" stroke="#cbd5e1"/>
<text x="864.00" y="412" text-anchor="middle" font-family="Arial, sans-serif" font-size="11" fill="#334155">+180</text>
<line x1="928.00" y1="92" x2="928.00" y2="392" stroke="#e2e8f0"/>
<text x="928.00" y="412" text-anchor="middle" font-family="Arial, sans-serif" font-size="11" fill="#334155">+225</text>
<line x1="992.00" y1="92" x2="992.00" y2="392" stroke="#cbd5e1"/>
<text x="992.00" y="412" text-anchor="middle" font-family="Arial, sans-serif" font-size="11" fill="#334155">+270</text>
<line x1="1056.00" y1="92" x2="1056.00" y2="392" stroke="#e2e8f0"/>
<text x="1056.00" y="412" text-anchor="middle" font-family="Arial, sans-serif" font-size="11" fill="#334155">+315</text>
<line x1="1120.00" y1="92" x2="1120.00" y2="392" stroke="#cbd5e1"/>
<text x="1120.00" y="412" text-anchor="middle" font-family="Arial, sans-serif" font-size="11" fill="#334155">+360</text>
<line x1="96" y1="392.00" x2="1120" y2="392.00" stroke="#e2e8f0"/>
<text x="82" y="396.00" text-anchor="end" font-family="Arial, sans-serif" font-size="10" fill="#334155">0.000</text>
<line x1="96" y1="242.00" x2="1120" y2="242.00" stroke="#e2e8f0"/>
<text x="82" y="246.00" text-anchor="end" font-family="Arial, sans-serif" font-size="10" fill="#334155">0.200</text>
<line x1="96" y1="92.00" x2="1120" y2="92.00" stroke="#e2e8f0"/>
<text x="82" y="96.00" text-anchor="end" font-family="Arial, sans-serif" font-size="10" fill="#334155">0.400</text>
<path d="M 608.00 310.62 L 615.11 294.47 L 622.22 278.21 L 629.33 261.90 L 634.31 250.52 L 636.44 245.66 L 643.56 229.62 L 650.67 213.94 L 657.78 198.80 L 664.89 184.39 L 672.00 170.88 L 679.11 158.46 L 686.22 147.27 L 693.33 137.45 L 700.44 129.09 L 707.56 122.25 L 714.67 116.93 L 721.78 113.06 L 728.89 110.53 L 736.00 109.13 L 743.11 108.58 L 743.11 135.58 L 736.00 136.13 L 728.89 137.53 L 721.78 140.06 L 714.67 143.93 L 707.56 149.25 L 700.44 156.09 L 693.33 164.45 L 686.22 174.27 L 679.11 185.46 L 672.00 197.88 L 664.89 211.39 L 657.78 225.80 L 650.67 240.94 L 643.56 256.62 L 636.44 272.66 L 634.31 277.52 L 629.33 288.90 L 622.22 305.21 L 615.11 321.47 L 608.00 337.62 Z" fill="#2563eb" fill-opacity="0.10" stroke="none" data-confidence="p95"/>
<path d="M 750.22 92.00 L 757.33 92.00 L 764.44 92.00 L 771.56 92.00 L 771.56 170.60 L 764.44 170.60 L 757.33 170.60 L 750.22 170.60 Z" fill="#2563eb" fill-opacity="0.10" stroke="none" data-confidence="p95"/>
<path d="M 778.67 108.50 L 785.78 108.64 L 792.89 109.34 L 800.00 110.94 L 807.11 113.72 L 814.22 117.87 L 821.33 123.50 L 828.44 130.64 L 835.56 139.30 L 842.67 149.40 L 849.78 160.85 L 856.89 173.50 L 864.00 187.20 L 871.11 201.78 L 878.22 217.04 L 885.33 232.80 L 892.44 248.90 L 899.56 265.16 L 906.67 281.47 L 913.78 297.71 L 920.89 313.84 L 928.00 329.84 L 932.98 341.00 L 932.98 368.00 L 928.00 356.84 L 920.89 340.84 L 913.78 324.71 L 906.67 308.47 L 899.56 292.16 L 892.44 275.90 L 885.33 259.80 L 878.22 244.04 L 871.11 228.78 L 864.00 214.20 L 856.89 200.50 L 849.78 187.85 L 842.67 176.40 L 835.56 166.30 L 828.44 157.64 L 821.33 150.50 L 814.22 144.87 L 807.11 140.72 L 800.00 137.94 L 792.89 136.34 L 785.78 135.64 L 778.67 135.50 Z" fill="#2563eb" fill-opacity="0.10" stroke="none" data-confidence="p95"/>
<path d="M 103.11 343.40 L 110.22 343.40 L 117.33 343.40 L 124.44 343.40 L 131.56 343.40 L 138.67 343.40 L 145.78 343.40 L 152.89 343.40 L 160.00 343.40 L 167.11 343.40 L 174.22 343.40 L 181.33 343.40 L 188.44 343.40 L 195.56 343.40 L 202.67 343.40 L 209.78 343.40 L 216.89 343.40 L 224.00 343.40 L 231.11 343.40 L 238.22 343.40 L 245.33 343.40 L 252.44 343.40 L 259.56 343.40 L 266.67 343.40 L 273.78 343.40 L 280.89 343.40 L 284.44 343.40 L 288.00 343.40 L 295.11 343.40 L 302.22 343.40 L 309.33 343.40 L 316.44 343.40 L 323.56 343.40 L 330.67 343.40 L 337.78 343.40 L 344.89 343.40 L 352.00 343.40 L 359.11 343.40 L 366.22 343.40 L 373.33 343.40 L 380.44 343.40 L 387.56 343.40 L 394.67 343.40 L 401.78 343.40 L 408.89 343.40 L 416.00 343.40 L 423.11 343.40 L 430.22 343.40 L 437.33 343.40 L 444.44 343.40 L 451.56 343.40 L 458.67 343.40 L 465.78 343.40 L 472.89 343.40 L 480.00 343.40 L 487.11 343.40 L 494.22 343.40 L 501.33 343.40 L 508.44 343.40 L 515.56 343.40 L 522.67 343.40 L 529.78 343.40 L 536.89 343.40 L 544.00 343.40 L 551.11 343.40 L 558.22 343.40 L 565.33 343.40 L 572.44 343.40 L 579.56 343.03 L 586.67 328.35 L 593.78 307.50 L 935.11 310.90 L 942.22 332.80 L 949.33 343.38 L 956.44 343.40 L 963.56 343.40 L 970.67 343.40 L 977.78 343.40 L 984.89 343.40 L 992.00 343.40 L 999.11 343.40 L 1006.22 343.40 L 1013.33 343.40 L 1020.44 343.40 L 1027.56 343.40 L 1034.67 343.40 L 1041.78 343.40 L 1048.89 343.40 L 1056.00 343.40 L 1063.11 343.40 L 1070.22 343.40 L 1077.33 343.40 L 1084.44 343.40 L 1091.56 343.40 L 1098.67 343.40 L 1105.78 343.40 L 1112.89 343.40 L 1120.00 343.40 L 1120.00 392.00 L 1112.89 392.00 L 1105.78 392.00 L 1098.67 392.00 L 1091.56 392.00 L 1084.44 392.00 L 1077.33 392.00 L 1070.22 392.00 L 1063.11 392.00 L 1056.00 392.00 L 1048.89 392.00 L 1041.78 392.00 L 1034.67 392.00 L 1027.56 392.00 L 1020.44 392.00 L 1013.33 392.00 L 1006.22 392.00 L 999.11 392.00 L 992.00 392.00 L 984.89 392.00 L 977.78 392.00 L 970.67 392.00 L 963.56 392.00 L 956.44 392.00 L 949.33 392.00 L 942.22 392.00 L 935.11 392.00 L 593.78 392.00 L 586.67 392.00 L 579.56 392.00 L 572.44 392.00 L 565.33 392.00 L 558.22 392.00 L 551.11 392.00 L 544.00 392.00 L 536.89 392.00 L 529.78 392.00 L 522.67 392.00 L 515.56 392.00 L 508.44 392.00 L 501.33 392.00 L 494.22 392.00 L 487.11 392.00 L 480.00 392.00 L 472.89 392.00 L 465.78 392.00 L 458.67 392.00 L 451.56 392.00 L 444.44 392.00 L 437.33 392.00 L 430.22 392.00 L 423.11 392.00 L 416.00 392.00 L 408.89 392.00 L 401.78 392.00 L 394.67 392.00 L 387.56 392.00 L 380.44 392.00 L 373.33 392.00 L 366.22 392.00 L 359.11 392.00 L 352.00 392.00 L 344.89 392.00 L 337.78 392.00 L 330.67 392.00 L 323.56 392.00 L 316.44 392.00 L 309.33 392.00 L 302.22 392.00 L 295.11 392.00 L 288.00 392.00 L 284.44 392.00 L 280.89 392.00 L 273.78 392.00 L 266.67 392.00 L 259.56 392.00 L 252.44 392.00 L 245.33 392.00 L 238.22 392.00 L 231.11 392.00 L 224.00 392.00 L 216.89 392.00 L 209.78 392.00 L 202.67 392.00 L 195.56 392.00 L 188.44 392.00 L 181.33 392.00 L 174.22 392.00 L 167.11 392.00 L 160.00 392.00 L 152.89 392.00 L 145.78 392.00 L 138.67 392.00 L 131.56 392.00 L 124.44 392.00 L 117.33 392.00 L 110.22 392.00 L 103.11 392.00 Z" fill="#2563eb" fill-opacity="0.10" stroke="none" data-confidence="p95"/>
<path d="M 594.49 341.00 L 600.89 326.65 L 608.00 310.62 L 608.00 337.62 L 600.89 353.65 L 594.49 368.00 Z" fill="#2563eb" fill-opacity="0.10" stroke="none" data-confidence="p95"/>
<path d="M 608.00 320.07 L 615.11 303.92 L 622.22 287.66 L 629.33 271.35 L 634.31 259.97 L 636.44 255.11 L 643.56 239.07 L 650.67 223.39 L 657.78 208.25 L 664.89 193.84 L 672.00 180.33 L 679.11 167.91 L 686.22 156.72 L 693.33 146.90 L 700.44 138.54 L 707.56 131.70 L 714.67 126.38 L 721.78 122.51 L 728.89 119.98 L 736.00 118.58 L 743.11 118.03 L 743.11 126.13 L 736.00 126.68 L 728.89 128.08 L 721.78 130.61 L 714.67 134.48 L 707.56 139.80 L 700.44 146.64 L 693.33 155.00 L 686.22 164.82 L 679.11 176.01 L 672.00 188.43 L 664.89 201.94 L 657.78 216.35 L 650.67 231.49 L 643.56 247.17 L 636.44 263.21 L 634.31 268.07 L 629.33 279.45 L 622.22 295.76 L 615.11 312.02 L 608.00 328.17 Z" fill="#2563eb" fill-opacity="0.05" stroke="none" data-confidence="p50"/>
<path d="M 750.22 108.50 L 757.33 108.50 L 764.44 108.50 L 771.56 108.50 L 771.56 135.50 L 764.44 135.50 L 757.33 135.50 L 750.22 135.50 Z" fill="#2563eb" fill-opacity="0.05" stroke="none" data-confidence="p50"/>
<path d="M 778.67 117.95 L 785.78 118.09 L 792.89 118.79 L 800.00 120.39 L 807.11 123.17 L 814.22 127.32 L 821.33 132.95 L 828.44 140.09 L 835.56 148.75 L 842.67 158.85 L 849.78 170.30 L 856.89 182.95 L 864.00 196.65 L 871.11 211.23 L 878.22 226.49 L 885.33 242.25 L 892.44 258.35 L 899.56 274.61 L 906.67 290.92 L 913.78 307.16 L 920.89 323.29 L 928.00 339.29 L 932.98 350.45 L 932.98 358.55 L 928.00 347.39 L 920.89 331.39 L 913.78 315.26 L 906.67 299.02 L 899.56 282.71 L 892.44 266.45 L 885.33 250.35 L 878.22 234.59 L 871.11 219.33 L 864.00 204.75 L 856.89 191.05 L 849.78 178.40 L 842.67 166.95 L 835.56 156.85 L 828.44 148.19 L 821.33 141.05 L 814.22 135.42 L 807.11 131.27 L 800.00 128.49 L 792.89 126.89 L 785.78 126.19 L 778.67 126.05 Z" fill="#2563eb" fill-opacity="0.05" stroke="none" data-confidence="p50"/>
<path d="M 103.11 378.50 L 110.22 378.50 L 117.33 378.50 L 124.44 378.50 L 131.56 378.50 L 138.67 378.50 L 145.78 378.50 L 152.89 378.50 L 160.00 378.50 L 167.11 378.50 L 174.22 378.50 L 181.33 378.50 L 188.44 378.50 L 195.56 378.50 L 202.67 378.50 L 209.78 378.50 L 216.89 378.50 L 224.00 378.50 L 231.11 378.50 L 238.22 378.50 L 245.33 378.50 L 252.44 378.50 L 259.56 378.50 L 266.67 378.50 L 273.78 378.50 L 280.89 378.50 L 284.44 378.50 L 288.00 378.50 L 295.11 378.50 L 302.22 378.50 L 309.33 378.50 L 316.44 378.50 L 323.56 378.50 L 330.67 378.50 L 337.78 378.50 L 344.89 378.50 L 352.00 378.50 L 359.11 378.50 L 366.22 378.50 L 373.33 378.50 L 380.44 378.50 L 387.56 378.50 L 394.67 378.50 L 401.78 378.50 L 408.89 378.50 L 416.00 378.50 L 423.11 378.50 L 430.22 378.50 L 437.33 378.50 L 444.44 378.50 L 451.56 378.50 L 458.67 378.50 L 465.78 378.50 L 472.89 378.50 L 480.00 378.50 L 487.11 378.50 L 494.22 378.50 L 501.33 378.50 L 508.44 378.50 L 515.56 378.50 L 522.67 378.50 L 529.78 378.50 L 536.89 378.50 L 544.00 378.50 L 551.11 378.50 L 558.22 378.50 L 565.33 378.50 L 572.44 378.50 L 579.56 378.13 L 586.67 363.45 L 593.78 342.60 L 935.11 346.00 L 942.22 367.90 L 949.33 378.48 L 956.44 378.50 L 963.56 378.50 L 970.67 378.50 L 977.78 378.50 L 984.89 378.50 L 992.00 378.50 L 999.11 378.50 L 1006.22 378.50 L 1013.33 378.50 L 1020.44 378.50 L 1027.56 378.50 L 1034.67 378.50 L 1041.78 378.50 L 1048.89 378.50 L 1056.00 378.50 L 1063.11 378.50 L 1070.22 378.50 L 1077.33 378.50 L 1084.44 378.50 L 1091.56 378.50 L 1098.67 378.50 L 1105.78 378.50 L 1112.89 378.50 L 1120.00 378.50 L 1120.00 392.00 L 1112.89 392.00 L 1105.78 392.00 L 1098.67 392.00 L 1091.56 392.00 L 1084.44 392.00 L 1077.33 392.00 L 1070.22 392.00 L 1063.11 392.00 L 1056.00 392.00 L 1048.89 392.00 L 1041.78 392.00 L 1034.67 392.00 L 1027.56 392.00 L 1020.44 392.00 L 1013.33 392.00 L 1006.22 392.00 L 999.11 392.00 L 992.00 392.00 L 984.89 392.00 L 977.78 392.00 L 970.67 392.00 L 963.56 392.00 L 956.44 392.00 L 949.33 392.00 L 942.22 392.00 L 935.11 373.00 L 593.78 369.60 L 586.67 390.45 L 579.56 392.00 L 572.44 392.00 L 565.33 392.00 L 558.22 392.00 L 551.11 392.00 L 544.00 392.00 L 536.89 392.00 L 529.78 392.00 L 522.67 392.00 L 515.56 392.00 L 508.44 392.00 L 501.33 392.00 L 494.22 392.00 L 487.11 392.00 L 480.00 392.00 L 472.89 392.00 L 465.78 392.00 L 458.67 392.00 L 451.56 392.00 L 444.44 392.00 L 437.33 392.00 L 430.22 392.00 L 423.11 392.00 L 416.00 392.00 L 408.89 392.00 L 401.78 392.00 L 394.67 392.00 L 387.56 392.00 L 380.44 392.00 L 373.33 392.00 L 366.22 392.00 L 359.11 392.00 L 352.00 392.00 L 344.89 392.00 L 337.78 392.00 L 330.67 392.00 L 323.56 392.00 L 316.44 392.00 L 309.33 392.00 L 302.22 392.00 L 295.11 392.00 L 288.00 392.00 L 284.44 392.00 L 280.89 392.00 L 273.78 392.00 L 266.67 392.00 L 259.56 392.00 L 252.44 392.00 L 245.33 392.00 L 238.22 392.00 L 231.11 392.00 L 224.00 392.00 L 216.89 392.00 L 209.78 392.00 L 202.67 392.00 L 195.56 392.00 L 188.44 392.00 L 181.33 392.00 L 174.22 392.00 L 167.11 392.00 L 160.00 392.00 L 152.89 392.00 L 145.78 392.00 L 138.67 392.00 L 131.56 392.00 L 124.44 392.00 L 117.33 392.00 L 110.22 392.00 L 103.11 392.00 Z" fill="#2563eb" fill-opacity="0.05" stroke="none" data-confidence="p50"/>
<path d="M 594.49 350.45 L 600.89 336.10 L 608.00 320.07 L 608.00 328.17 L 600.89 344.20 L 594.49 358.55 Z" fill="#2563eb" fill-opacity="0.05" stroke="none" data-confidence="p50"/>
<path d="M 608.00 283.43 L 615.11 299.13 L 622.22 314.73 L 629.33 330.21 L 634.31 341.00 L 634.31 368.00 L 629.33 357.21 L 622.22 341.73 L 615.11 326.13 L 608.00 310.43 Z" fill="#dc2626" fill-opacity="0.10" stroke="none" data-confidence="p95"/>
<path d="M 103.11 343.40 L 110.22 343.40 L 117.33 343.40 L 124.44 343.40 L 131.56 343.40 L 138.67 343.40 L 145.78 343.40 L 152.89 343.40 L 160.00 343.40 L 167.11 343.40 L 174.22 343.40 L 181.33 343.40 L 188.44 343.40 L 195.56 343.40 L 202.67 343.40 L 209.78 343.40 L 216.89 343.40 L 224.00 343.40 L 231.11 343.40 L 238.22 343.40 L 245.33 343.40 L 252.44 343.40 L 259.56 343.40 L 266.67 343.40 L 273.78 336.58 L 280.89 314.53 L 636.44 310.76 L 643.56 332.63 L 650.67 343.38 L 657.78 343.40 L 664.89 343.40 L 672.00 343.40 L 679.11 343.40 L 686.22 343.40 L 693.33 343.40 L 700.44 343.40 L 707.56 343.40 L 714.67 343.40 L 721.78 343.40 L 728.89 343.40 L 736.00 343.40 L 743.11 343.40 L 750.22 343.40 L 757.33 343.40 L 764.44 343.40 L 771.56 343.40 L 778.67 343.40 L 785.78 343.40 L 792.89 343.40 L 800.00 343.40 L 807.11 343.40 L 814.22 343.40 L 821.33 343.40 L 828.44 343.40 L 835.56 343.40 L 842.67 343.40 L 849.78 343.40 L 856.89 343.40 L 864.00 343.40 L 871.11 343.40 L 878.22 343.40 L 885.33 343.40 L 892.44 343.40 L 899.56 343.40 L 906.67 343.40 L 913.78 343.40 L 920.89 343.40 L 928.00 343.40 L 932.98 343.40 L 935.11 343.40 L 942.22 343.40 L 949.33 343.40 L 956.44 343.40 L 963.56 343.40 L 970.67 343.40 L 977.78 343.40 L 984.89 343.40 L 992.00 343.40 L 999.11 343.40 L 1006.22 343.40 L 1013.33 343.40 L 1020.44 343.40 L 1027.56 343.40 L 1034.67 343.40 L 1041.78 343.40 L 1048.89 343.40 L 1056.00 343.40 L 1063.11 343.40 L 1070.22 343.40 L 1077.33 343.40 L 1084.44 343.40 L 1091.56 343.40 L 1098.67 343.40 L 1105.78 343.40 L 1112.89 343.40 L 1120.00 343.40 L 1120.00 392.00 L 1112.89 392.00 L 1105.78 392.00 L 1098.67 392.00 L 1091.56 392.00 L 1084.44 392.00 L 1077.33 392.00 L 1070.22 392.00 L 1063.11 392.00 L 1056.00 392.00 L 1048.89 392.00 L 1041.78 392.00 L 1034.67 392.00 L 1027.56 392.00 L 1020.44 392.00 L 1013.33 392.00 L 1006.22 392.00 L 999.11 392.00 L 992.00 392.00 L 984.89 392.00 L 977.78 392.00 L 970.67 392.00 L 963.56 392.00 L 956.44 392.00 L 949.33 392.00 L 942.22 392.00 L 935.11 392.00 L 932.98 392.00 L 928.00 392.00 L 920.89 392.00 L 913.78 392.00 L 906.67 392.00 L 899.56 392.00 L 892.44 392.00 L 885.33 392.00 L 878.22 392.00 L 871.11 392.00 L 864.00 392.00 L 856.89 392.00 L 849.78 392.00 L 842.67 392.00 L 835.56 392.00 L 828.44 392.00 L 821.33 392.00 L 814.22 392.00 L 807.11 392.00 L 800.00 392.00 L 792.89 392.00 L 785.78 392.00 L 778.67 392.00 L 771.56 392.00 L 764.44 392.00 L 757.33 392.00 L 750.22 392.00 L 743.11 392.00 L 736.00 392.00 L 728.89 392.00 L 721.78 392.00 L 714.67 392.00 L 707.56 392.00 L 700.44 392.00 L 693.33 392.00 L 686.22 392.00 L 679.11 392.00 L 672.00 392.00 L 664.89 392.00 L 657.78 392.00 L 650.67 392.00 L 643.56 392.00 L 636.44 392.00 L 280.89 392.00 L 273.78 392.00 L 266.67 392.00 L 259.56 392.00 L 252.44 392.00 L 245.33 392.00 L 238.22 392.00 L 231.11 392.00 L 224.00 392.00 L 216.89 392.00 L 209.78 392.00 L 202.67 392.00 L 195.56 392.00 L 188.44 392.00 L 181.33 392.00 L 174.22 392.00 L 167.11 392.00 L 160.00 392.00 L 152.89 392.00 L 145.78 392.00 L 138.67 392.00 L 131.56 392.00 L 124.44 392.00 L 117.33 392.00 L 110.22 392.00 L 103.11 392.00 Z" fill="#dc2626" fill-opacity="0.10" stroke="none" data-confidence="p95"/>
<path d="M 284.44 341.00 L 288.00 333.29 L 295.11 317.83 L 302.22 302.26 L 309.33 286.57 L 316.44 270.81 L 323.56 255.05 L 330.67 239.39 L 337.78 223.98 L 344.89 208.97 L 352.00 194.52 L 359.11 180.80 L 366.22 167.97 L 373.33 156.19 L 380.44 145.59 L 387.56 136.29 L 394.67 128.37 L 401.78 121.87 L 408.89 116.79 L 416.00 113.07 L 423.11 110.60 L 430.22 109.20 L 437.33 108.61 L 444.44 108.50 L 444.44 135.50 L 437.33 135.61 L 430.22 136.20 L 423.11 137.60 L 416.00 140.07 L 408.89 143.79 L 401.78 148.87 L 394.67 155.37 L 387.56 163.29 L 380.44 172.59 L 373.33 183.19 L 366.22 194.97 L 359.11 207.80 L 352.00 221.52 L 344.89 235.97 L 337.78 250.98 L 330.67 266.39 L 323.56 282.05 L 316.44 297.81 L 309.33 313.57 L 302.22 329.26 L 295.11 344.83 L 288.00 360.29 L 284.44 368.00 Z" fill="#dc2626" fill-opacity="0.10" stroke="none" data-confidence="p95"/>
<path d="M 451.56 92.00 L 458.67 92.00 L 465.78 92.00 L 472.89 92.00 L 472.89 170.60 L 465.78 170.60 L 458.67 170.60 L 451.56 170.60 Z" fill="#dc2626" fill-opacity="0.10" stroke="none" data-confidence="p95"/>
<path d="M 480.00 108.56 L 487.11 109.02 L 494.22 110.24 L 501.33 112.48 L 508.44 115.94 L 515.56 120.74 L 522.67 126.96 L 529.78 134.60 L 536.89 143.63 L 544.00 153.97 L 551.11 165.53 L 558.22 178.16 L 565.33 191.71 L 572.44 206.03 L 579.56 220.95 L 586.67 236.29 L 593.78 251.90 L 594.49 253.48 L 600.89 267.66 L 608.00 283.43 L 608.00 310.43 L 600.89 294.66 L 594.49 280.48 L 593.78 278.90 L 586.67 263.29 L 579.56 247.95 L 572.44 233.03 L 565.33 218.71 L 558.22 205.16 L 551.11 192.53 L 544.00 180.97 L 536.89 170.63 L 529.78 161.60 L 522.67 153.96 L 515.56 147.74 L 508.44 142.94 L 501.33 139.48 L 494.22 137.24 L 487.11 136.02 L 480.00 135.56 Z" fill="#dc2626" fill-opacity="0.10" stroke="none" data-confidence="p95"/>
<path d="M 608.00 292.88 L 615.11 308.58 L 622.22 324.18 L 629.33 339.66 L 634.31 350.45 L 634.31 358.55 L 629.33 347.76 L 622.22 332.28 L 615.11 316.68 L 608.00 300.98 Z" fill="#dc2626" fill-opacity="0.05" stroke="none" data-confidence="p50"/>
<path d="M 103.11 378.50 L 110.22 378.50 L 117.33 378.50 L 124.44 378.50 L 131.56 378.50 L 138.67 378.50 L 145.78 378.50 L 152.89 378.50 L 160.00 378.50 L 167.11 378.50 L 174.22 378.50 L 181.33 378.50 L 188.44 378.50 L 195.56 378.50 L 202.67 378.50 L 209.78 378.50 L 216.89 378.50 L 224.00 378.50 L 231.11 378.50 L 238.22 378.50 L 245.33 378.50 L 252.44 378.50 L 259.56 378.50 L 266.67 378.50 L 273.78 371.68 L 280.89 349.63 L 636.44 345.86 L 643.56 367.73 L 650.67 378.48 L 657.78 378.50 L 664.89 378.50 L 672.00 378.50 L 679.11 378.50 L 686.22 378.50 L 693.33 378.50 L 700.44 378.50 L 707.56 378.50 L 714.67 378.50 L 721.78 378.50 L 728.89 378.50 L 736.00 378.50 L 743.11 378.50 L 750.22 378.50 L 757.33 378.50 L 764.44 378.50 L 771.56 378.50 L 778.67 378.50 L 785.78 378.50 L 792.89 378.50 L 800.00 378.50 L 807.11 378.50 L 814.22 378.50 L 821.33 378.50 L 828.44 378.50 L 835.56 378.50 L 842.67 378.50 L 849.78 378.50 L 856.89 378.50 L 864.00 378.50 L 871.11 378.50 L 878.22 378.50 L 885.33 378.50 L 892.44 378.50 L 899.56 378.50 L 906.67 378.50 L 913.78 378.50 L 920.89 378.50 L 928.00 378.50 L 932.98 378.50 L 935.11 378.50 L 942.22 378.50 L 949.33 378.50 L 956.44 378.50 L 963.56 378.50 L 970.67 378.50 L 977.78 378.50 L 984.89 378.50 L 992.00 378.50 L 999.11 378.50 L 1006.22 378.50 L 1013.33 378.50 L 1020.44 378.50 L 1027.56 378.50 L 1034.67 378.50 L 1041.78 378.50 L 1048.89 378.50 L 1056.00 378.50 L 1063.11 378.50 L 1070.22 378.50 L 1077.33 378.50 L 1084.44 378.50 L 1091.56 378.50 L 1098.67 378.50 L 1105.78 378.50 L 1112.89 378.50 L 1120.00 378.50 L 1120.00 392.00 L 1112.89 392.00 L 1105.78 392.00 L 1098.67 392.00 L 1091.56 392.00 L 1084.44 392.00 L 1077.33 392.00 L 1070.22 392.00 L 1063.11 392.00 L 1056.00 392.00 L 1048.89 392.00 L 1041.78 392.00 L 1034.67 392.00 L 1027.56 392.00 L 1020.44 392.00 L 1013.33 392.00 L 1006.22 392.00 L 999.11 392.00 L 992.00 392.00 L 984.89 392.00 L 977.78 392.00 L 970.67 392.00 L 963.56 392.00 L 956.44 392.00 L 949.33 392.00 L 942.22 392.00 L 935.11 392.00 L 932.98 392.00 L 928.00 392.00 L 920.89 392.00 L 913.78 392.00 L 906.67 392.00 L 899.56 392.00 L 892.44 392.00 L 885.33 392.00 L 878.22 392.00 L 871.11 392.00 L 864.00 392.00 L 856.89 392.00 L 849.78 392.00 L 842.67 392.00 L 835.56 392.00 L 828.44 392.00 L 821.33 392.00 L 814.22 392.00 L 807.11 392.00 L 800.00 392.00 L 792.89 392.00 L 785.78 392.00 L 778.67 392.00 L 771.56 392.00 L 764.44 392.00 L 757.33 392.00 L 750.22 392.00 L 743.11 392.00 L 736.00 392.00 L 728.89 392.00 L 721.78 392.00 L 714.67 392.00 L 707.56 392.00 L 700.44 392.00 L 693.33 392.00 L 686.22 392.00 L 679.11 392.00 L 672.00 392.00 L 664.89 392.00 L 657.78 392.00 L 650.67 392.00 L 643.56 392.00 L 636.44 372.86 L 280.89 376.63 L 273.78 392.00 L 266.67 392.00 L 259.56 392.00 L 252.44 392.00 L 245.33 392.00 L 238.22 392.00 L 231.11 392.00 L 224.00 392.00 L 216.89 392.00 L 209.78 392.00 L 202.67 392.00 L 195.56 392.00 L 188.44 392.00 L 181.33 392.00 L 174.22 392.00 L 167.11 392.00 L 160.00 392.00 L 152.89 392.00 L 145.78 392.00 L 138.67 392.00 L 131.56 392.00 L 124.44 392.00 L 117.33 392.00 L 110.22 392.00 L 103.11 392.00 Z" fill="#dc2626" fill-opacity="0.05" stroke="none" data-confidence="p50"/>
<path d="M 284.44 350.45 L 288.00 342.74 L 295.11 327.28 L 302.22 311.71 L 309.33 296.02 L 316.44 280.26 L 323.56 264.50 L 330.67 248.84 L 337.78 233.43 L 344.89 218.42 L 352.00 203.97 L 359.11 190.25 L 366.22 177.42 L 373.33 165.64 L 380.44 155.04 L 387.56 145.74 L 394.67 137.82 L 401.78 131.32 L 408.89 126.24 L 416.00 122.52 L 423.11 120.05 L 430.22 118.65 L 437.33 118.06 L 444.44 117.95 L 444.44 126.05 L 437.33 126.16 L 430.22 126.75 L 423.11 128.15 L 416.00 130.62 L 408.89 134.34 L 401.78 139.42 L 394.67 145.92 L 387.56 153.84 L 380.44 163.14 L 373.33 173.74 L 366.22 185.52 L 359.11 198.35 L 352.00 212.07 L 344.89 226.52 L 337.78 241.53 L 330.67 256.94 L 323.56 272.60 L 316.44 288.36 L 309.33 304.12 L 302.22 319.81 L 295.11 335.38 L 288.00 350.84 L 284.44 358.55 Z" fill="#dc2626" fill-opacity="0.05" stroke="none" data-confidence="p50"/>
<path d="M 451.56 108.50 L 458.67 108.50 L 465.78 108.50 L 472.89 108.50 L 472.89 135.50 L 465.78 135.50 L 458.67 135.50 L 451.56 135.50 Z" fill="#dc2626" fill-opacity="0.05" stroke="none" data-confidence="p50"/>
<path d="M 480.00 118.01 L 487.11 118.47 L 494.22 119.69 L 501.33 121.93 L 508.44 125.39 L 515.56 130.19 L 522.67 136.41 L 529.78 144.05 L 536.89 153.08 L 544.00 163.42 L 551.11 174.98 L 558.22 187.61 L 565.33 201.16 L 572.44 215.48 L 579.56 230.40 L 586.67 245.74 L 593.78 261.35 L 594.49 262.93 L 600.89 277.11 L 608.00 292.88 L 608.00 300.98 L 600.89 285.21 L 594.49 271.03 L 593.78 269.45 L 586.67 253.84 L 579.56 238.50 L 572.44 223.58 L 565.33 209.26 L 558.22 195.71 L 551.11 183.08 L 544.00 171.52 L 536.89 161.18 L 529.78 152.15 L 522.67 144.51 L 515.56 138.29 L 508.44 133.49 L 501.33 130.03 L 494.22 127.79 L 487.11 126.57 L 480.00 126.11 Z" fill="#dc2626" fill-opacity="0.05" stroke="none" data-confidence="p50"/>
<path d="M 608.00 324.12 L 615.11 307.97 L 622.22 291.71 L 629.33 275.40 L 634.31 264.02 L 636.44 259.16 L 643.56 243.12 L 650.67 227.44 L 657.78 212.30 L 664.89 197.89 L 672.00 184.38 L 679.11 171.96 L 686.22 160.77 L 693.33 150.95 L 700.44 142.59 L 707.56 135.75 L 714.67 130.43 L 721.78 126.56 L 728.89 124.03 L 736.00 122.63 L 743.11 122.08" fill="none" stroke="#2563eb" stroke-width="2.8" stroke-opacity="0.70" stroke-dasharray="7 5" stroke-linecap="round" stroke-linejoin="round"/>
<path d="M 750.22 122.00 L 757.33 122.00 L 764.44 122.00 L 771.56 122.00" fill="none" stroke="#2563eb" stroke-width="2.8" stroke-opacity="0.45" stroke-dasharray="1 6" stroke-linecap="round" stroke-linejoin="round"/>
<path d="M 778.67 122.00 L 785.78 122.14 L 792.89 122.84 L 800.00 124.44 L 807.11 127.22 L 814.22 131.37 L 821.33 137.00 L 828.44 144.14 L 835.56 152.80 L 842.67 162.90 L 849.78 174.35 L 856.89 187.00 L 864.00 200.70 L 871.11 215.28 L 878.22 230.54 L 885.33 246.30 L 892.44 262.40 L 899.56 278.66 L 906.67 294.97 L 913.78 311.21 L 920.89 327.34 L 928.00 343.34 L 932.98 354.50" fill="none" stroke="#2563eb" stroke-width="2.8" stroke-opacity="0.70" stroke-dasharray="7 5" stroke-linecap="round" stroke-linejoin="round"/>
<path d="M 103.11 392.00 L 110.22 392.00 L 117.33 392.00 L 124.44 392.00 L 131.56 392.00 L 138.67 392.00 L 145.78 392.00 L 152.89 392.00 L 160.00 392.00 L 167.11 392.00 L 174.22 392.00 L 181.33 392.00 L 188.44 392.00 L 195.56 392.00 L 202.67 392.00 L 209.78 392.00 L 216.89 392.00 L 224.00 392.00 L 231.11 392.00 L 238.22 392.00 L 245.33 392.00 L 252.44 392.00 L 259.56 392.00 L 266.67 392.00 L 273.78 392.00 L 280.89 392.00 L 284.44 392.00 L 288.00 392.00 L 295.11 392.00 L 302.22 392.00 L 309.33 392.00 L 316.44 392.00 L 323.56 392.00 L 330.67 392.00 L 337.78 392.00 L 344.89 392.00 L 352.00 392.00 L 359.11 392.00 L 366.22 392.00 L 373.33 392.00 L 380.44 392.00 L 387.56 392.00 L 394.67 392.00 L 401.78 392.00 L 408.89 392.00 L 416.00 392.00 L 423.11 392.00 L 430.22 392.00 L 437.33 392.00 L 444.44 392.00 L 451.56 392.00 L 458.67 392.00 L 465.78 392.00 L 472.89 392.00 L 480.00 392.00 L 487.11 392.00 L 494.22 392.00 L 501.33 392.00 L 508.44 392.00 L 515.56 392.00 L 522.67 392.00 L 529.78 392.00 L 536.89 392.00 L 544.00 392.00 L 551.11 392.00 L 558.22 392.00 L 565.33 392.00 L 572.44 392.00 L 579.56 391.63 L 586.67 376.95 L 593.78 356.10 L 935.11 359.50 L 942.22 381.40 L 949.33 391.98 L 956.44 392.00 L 963.56 392.00 L 970.67 392.00 L 977.78 392.00 L 984.89 392.00 L 992.00 392.00 L 999.11 392.00 L 1006.22 392.00 L 1013.33 392.00 L 1020.44 392.00 L 1027.56 392.00 L 1034.67 392.00 L 1041.78 392.00 L 1048.89 392.00 L 1056.00 392.00 L 1063.11 392.00 L 1070.22 392.00 L 1077.33 392.00 L 1084.44 392.00 L 1091.56 392.00 L 1098.67 392.00 L 1105.78 392.00 L 1112.89 392.00 L 1120.00 392.00" fill="none" stroke="#2563eb" stroke-width="2.8" stroke-opacity="0.45" stroke-dasharray="1 6" stroke-linecap="round" stroke-linejoin="round"/>
<path d="M 594.49 354.50 L 600.89 340.15 L 608.00 324.12" fill="none" stroke="#2563eb" stroke-width="2.8" stroke-opacity="0.70" stroke-dasharray="7 5" stroke-linecap="round" stroke-linejoin="round"/>
<path d="M 608.00 296.93 L 615.11 312.63 L 622.22 328.23 L 629.33 343.71 L 634.31 354.50" fill="none" stroke="#dc2626" stroke-width="2.8" stroke-opacity="0.70" stroke-dasharray="7 5" stroke-linecap="round" stroke-linejoin="round"/>
<path d="M 103.11 392.00 L 110.22 392.00 L 117.33 392.00 L 124.44 392.00 L 131.56 392.00 L 138.67 392.00 L 145.78 392.00 L 152.89 392.00 L 160.00 392.00 L 167.11 392.00 L 174.22 392.00 L 181.33 392.00 L 188.44 392.00 L 195.56 392.00 L 202.67 392.00 L 209.78 392.00 L 216.89 392.00 L 224.00 392.00 L 231.11 392.00 L 238.22 392.00 L 245.33 392.00 L 252.44 392.00 L 259.56 392.00 L 266.67 392.00 L 273.78 385.18 L 280.89 363.13 L 636.44 359.36 L 643.56 381.23 L 650.67 391.98 L 657.78 392.00 L 664.89 392.00 L 672.00 392.00 L 679.11 392.00 L 686.22 392.00 L 693.33 392.00 L 700.44 392.00 L 707.56 392.00 L 714.67 392.00 L 721.78 392.00 L 728.89 392.00 L 736.00 392.00 L 743.11 392.00 L 750.22 392.00 L 757.33 392.00 L 764.44 392.00 L 771.56 392.00 L 778.67 392.00 L 785.78 392.00 L 792.89 392.00 L 800.00 392.00 L 807.11 392.00 L 814.22 392.00 L 821.33 392.00 L 828.44 392.00 L 835.56 392.00 L 842.67 392.00 L 849.78 392.00 L 856.89 392.00 L 864.00 392.00 L 871.11 392.00 L 878.22 392.00 L 885.33 392.00 L 892.44 392.00 L 899.56 392.00 L 906.67 392.00 L 913.78 392.00 L 920.89 392.00 L 928.00 392.00 L 932.98 392.00 L 935.11 392.00 L 942.22 392.00 L 949.33 392.00 L 956.44 392.00 L 963.56 392.00 L 970.67 392.00 L 977.78 392.00 L 984.89 392.00 L 992.00 392.00 L 999.11 392.00 L 1006.22 392.00 L 1013.33 392.00 L 1020.44 392.00 L 1027.56 392.00 L 1034.67 392.00 L 1041.78 392.00 L 1048.89 392.00 L 1056.00 392.00 L 1063.11 392.00 L 1070.22 392.00 L 1077.33 392.00 L 1084.44 392.00 L 1091.56 392.00 L 1098.67 392.00 L 1105.78 392.00 L 1112.89 392.00 L 1120.00 392.00" fill="none" stroke="#dc2626" stroke-width="2.8" stroke-opacity="0.45" stroke-dasharray="1 6" stroke-linecap="round" stroke-linejoin="round"/>
<path d="M 284.44 354.50 L 288.00 346.79 L 295.11 331.33 L 302.22 315.76 L 309.33 300.07 L 316.44 284.31 L 323.56 268.55 L 330.67 252.89 L 337.78 237.48 L 344.89 222.47 L 352.00 208.02 L 359.11 194.30 L 366.22 181.47 L 373.33 169.69 L 380.44 159.09 L 387.56 149.79 L 394.67 141.87 L 401.78 135.37 L 408.89 130.29 L 416.00 126.57 L 423.11 124.10 L 430.22 122.70 L 437.33 122.11 L 444.44 122.00" fill="none" stroke="#dc2626" stroke-width="2.8" stroke-opacity="0.70" stroke-dasharray="7 5" stroke-linecap="round" stroke-linejoin="round"/>
<path d="M 451.56 122.00 L 458.67 122.00 L 465.78 122.00 L 472.89 122.00" fill="none" stroke="#dc2626" stroke-width="2.8" stroke-opacity="0.45" stroke-dasharray="1 6" stroke-linecap="round" stroke-linejoin="round"/>
<path d="M 480.00 122.06 L 487.11 122.52 L 494.22 123.74 L 501.33 125.98 L 508.44 129.44 L 515.56 134.24 L 522.67 140.46 L 529.78 148.10 L 536.89 157.13 L 544.00 167.47 L 551.11 179.03 L 558.22 191.66 L 565.33 205.21 L 572.44 219.53 L 579.56 234.45 L 586.67 249.79 L 593.78 265.40 L 594.49 266.98 L 600.89 281.16 L 608.00 296.93" fill="none" stroke="#dc2626" stroke-width="2.8" stroke-opacity="0.70" stroke-dasharray="7 5" stroke-linecap="round" stroke-linejoin="round"/>
<line x1="284.44" y1="92" x2="284.44" y2="392" stroke="#dc2626" stroke-width="1.3" stroke-dasharray="5 5" data-primary-event="EO" data-canonical-angle-deg="492.5" data-overlap-relative-angle-deg="-227.5"/>
<text x="288.44" y="180" font-family="Arial, sans-serif" font-size="11" font-weight="700" fill="#dc2626">EO @ 0.050 in -227.5 deg</text>
<line x1="594.49" y1="92" x2="594.49" y2="392" stroke="#2563eb" stroke-width="1.3" stroke-dasharray="5 5" data-primary-event="IO" data-canonical-angle-deg="710.5" data-overlap-relative-angle-deg="-9.5"/>
<text x="598.49" y="180" font-family="Arial, sans-serif" font-size="11" font-weight="700" fill="#2563eb">IO @ 0.050 in -9.5 deg</text>
<line x1="634.31" y1="92" x2="634.31" y2="392" stroke="#dc2626" stroke-width="1.3" stroke-dasharray="5 5" data-primary-event="EC" data-canonical-angle-deg="18.5" data-overlap-relative-angle-deg="18.5"/>
<text x="638.31" y="374" font-family="Arial, sans-serif" font-size="11" font-weight="700" fill="#dc2626">EC @ 0.050 in +18.5 deg</text>
<line x1="932.98" y1="92" x2="932.98" y2="392" stroke="#2563eb" stroke-width="1.3" stroke-dasharray="5 5" data-primary-event="IC" data-canonical-angle-deg="228.5" data-overlap-relative-angle-deg="228.5"/>
<text x="936.98" y="374" font-family="Arial, sans-serif" font-size="11" font-weight="700" fill="#2563eb">IC @ 0.050 in +228.5 deg</text>
<text x="608" y="434" text-anchor="middle" font-family="Arial, sans-serif" font-size="13" fill="#0f172a">Crank angle relative to TDC overlap (deg)</text>
<rect x="96" y="444" width="1024" height="86" fill="#ffffff" stroke="#cbd5e1"/>
<line x1="608.00" y1="444" x2="608.00" y2="530" stroke="#64748b" stroke-width="1.2"/>
<text x="32" y="464" font-family="Arial, sans-serif" font-size="13" font-weight="700" fill="#0f172a">Velocity (in/deg)</text>
<line x1="96.00" y1="444" x2="96.00" y2="530" stroke="#cbd5e1"/>
<line x1="160.00" y1="444" x2="160.00" y2="530" stroke="#e2e8f0"/>
<line x1="224.00" y1="444" x2="224.00" y2="530" stroke="#cbd5e1"/>
<line x1="288.00" y1="444" x2="288.00" y2="530" stroke="#e2e8f0"/>
<line x1="352.00" y1="444" x2="352.00" y2="530" stroke="#cbd5e1"/>
<line x1="416.00" y1="444" x2="416.00" y2="530" stroke="#e2e8f0"/>
<line x1="480.00" y1="444" x2="480.00" y2="530" stroke="#cbd5e1"/>
<line x1="544.00" y1="444" x2="544.00" y2="530" stroke="#e2e8f0"/>
<line x1="608.00" y1="444" x2="608.00" y2="530" stroke="#cbd5e1"/>
<line x1="672.00" y1="444" x2="672.00" y2="530" stroke="#e2e8f0"/>
<line x1="736.00" y1="444" x2="736.00" y2="530" stroke="#cbd5e1"/>
<line x1="800.00" y1="444" x2="800.00" y2="530" stroke="#e2e8f0"/>
<line x1="864.00" y1="444" x2="864.00" y2="530" stroke="#cbd5e1"/>
<line x1="928.00" y1="444" x2="928.00" y2="530" stroke="#e2e8f0"/>
<line x1="992.00" y1="444" x2="992.00" y2="530" stroke="#cbd5e1"/>
<line x1="1056.00" y1="444" x2="1056.00" y2="530" stroke="#e2e8f0"/>
<line x1="1120.00" y1="444" x2="1120.00" y2="530" stroke="#cbd5e1"/>
<line x1="96" y1="487.00" x2="1120" y2="487.00" stroke="#94a3b8"/>
<line x1="96" y1="530.00" x2="1120" y2="530.00" stroke="#e2e8f0"/>
<text x="82" y="534.00" text-anchor="end" font-family="Arial, sans-serif" font-size="10" fill="#334155">-0.0062</text>
<line x1="96" y1="487.00" x2="1120" y2="487.00" stroke="#e2e8f0"/>
<text x="82" y="491.00" text-anchor="end" font-family="Arial, sans-serif" font-size="10" fill="#334155">0.0000</text>
<line x1="96" y1="444.00" x2="1120" y2="444.00" stroke="#e2e8f0"/>
<text x="82" y="448.00" text-anchor="end" font-family="Arial, sans-serif" font-size="10" fill="#334155">0.0062</text>
<path d="M 608.00 457.08 L 615.11 456.85 L 622.22 456.69 L 629.33 456.70 L 634.31 456.84 L 636.44 456.93 L 643.56 457.45 L 650.67 458.29 L 657.78 459.46 L 664.89 460.98 L 672.00 462.84 L 679.11 465.00 L 686.22 467.43 L 693.33 470.08 L 700.44 472.86 L 707.56 475.70 L 714.67 478.48 L 721.78 481.10 L 728.89 483.42 L 736.00 485.29 L 743.11 486.54" fill="none" stroke="#2563eb" stroke-width="1.7" stroke-opacity="0.70" stroke-dasharray="7 5" stroke-linecap="round" stroke-linejoin="round"/>
<path d="M 750.22 487.00 L 757.33 487.00 L 764.44 487.00 L 771.56 487.00" fill="none" stroke="#2563eb" stroke-width="1.7" stroke-opacity="0.45" stroke-dasharray="1 6" stroke-linecap="round" stroke-linejoin="round"/>
<path d="M 778.67 487.02 L 785.78 487.65 L 792.89 489.04 L 800.00 491.01 L 807.11 493.40 L 814.22 496.06 L 821.33 498.87 L 828.44 501.70 L 835.56 504.47 L 842.67 507.07 L 849.78 509.46 L 856.89 511.56 L 864.00 513.35 L 871.11 514.80 L 878.22 515.91 L 885.33 516.68 L 892.44 517.13 L 899.56 517.32 L 906.67 517.29 L 913.78 517.11 L 920.89 516.87 L 928.00 516.67 L 932.98 516.62" fill="none" stroke="#2563eb" stroke-width="1.7" stroke-opacity="0.70" stroke-dasharray="7 5" stroke-linecap="round" stroke-linejoin="round"/>
<path d="M 103.11 487.00 L 110.22 487.00 L 117.33 487.00 L 124.44 487.00 L 131.56 487.00 L 138.67 487.00 L 145.78 487.00 L 152.89 487.00 L 160.00 487.00 L 167.11 487.00 L 174.22 487.00 L 181.33 487.00 L 188.44 487.00 L 195.56 487.00 L 202.67 487.00 L 209.78 487.00 L 216.89 487.00 L 224.00 487.00 L 231.11 487.00 L 238.22 487.00 L 245.33 487.00 L 252.44 487.00 L 259.56 487.00 L 266.67 487.00 L 273.78 487.00 L 280.89 487.00 L 284.44 487.00 L 288.00 487.00 L 295.11 487.00 L 302.22 487.00 L 309.33 487.00 L 316.44 487.00 L 323.56 487.00 L 330.67 487.00 L 337.78 487.00 L 344.89 487.00 L 352.00 487.00 L 359.11 487.00 L 366.22 487.00 L 373.33 487.00 L 380.44 487.00 L 387.56 487.00 L 394.67 487.00 L 401.78 487.00 L 408.89 487.00 L 416.00 487.00 L 423.11 487.00 L 430.22 487.00 L 437.33 487.00 L 444.44 487.00 L 451.56 487.00 L 458.67 487.00 L 465.78 487.00 L 472.89 487.00 L 480.00 487.00 L 487.11 487.00 L 494.22 487.00 L 501.33 487.00 L 508.44 487.00 L 515.56 487.00 L 522.67 487.00 L 529.78 487.00 L 536.89 487.00 L 544.00 487.00 L 551.11 487.00 L 558.22 487.00 L 565.33 487.00 L 572.44 487.00 L 579.56 480.61 L 586.67 444.00 L 593.78 456.85 L 935.11 520.46 L 942.22 526.31 L 949.33 487.83 L 956.44 487.00 L 963.56 487.00 L 970.67 487.00 L 977.78 487.00 L 984.89 487.00 L 992.00 487.00 L 999.11 487.00 L 1006.22 487.00 L 1013.33 487.00 L 1020.44 487.00 L 1027.56 487.00 L 1034.67 487.00 L 1041.78 487.00 L 1048.89 487.00 L 1056.00 487.00 L 1063.11 487.00 L 1070.22 487.00 L 1077.33 487.00 L 1084.44 487.00 L 1091.56 487.00 L 1098.67 487.00 L 1105.78 487.00 L 1112.89 487.00 L 1120.00 487.00" fill="none" stroke="#2563eb" stroke-width="1.7" stroke-opacity="0.45" stroke-dasharray="1 6" stroke-linecap="round" stroke-linejoin="round"/>
<path d="M 594.49 457.38 L 600.89 457.30 L 608.00 457.08" fill="none" stroke="#2563eb" stroke-width="1.7" stroke-opacity="0.70" stroke-dasharray="7 5" stroke-linecap="round" stroke-linejoin="round"/>
<path d="M 608.00 516.29 L 615.11 516.11 L 622.22 515.89 L 629.33 515.70 L 634.31 515.66" fill="none" stroke="#dc2626" stroke-width="1.7" stroke-opacity="0.70" stroke-dasharray="7 5" stroke-linecap="round" stroke-linejoin="round"/>
<path d="M 103.11 487.00 L 110.22 487.00 L 117.33 487.00 L 124.44 487.00 L 131.56 487.00 L 138.67 487.00 L 145.78 487.00 L 152.89 487.00 L 160.00 487.00 L 167.11 487.00 L 174.22 487.00 L 181.33 487.00 L 188.44 487.00 L 195.56 487.00 L 202.67 487.00 L 209.78 487.00 L 216.89 487.00 L 224.00 487.00 L 231.11 487.00 L 238.22 487.00 L 245.33 487.00 L 252.44 487.00 L 259.56 487.00 L 266.67 487.00 L 273.78 453.66 L 280.89 449.54 L 636.44 519.71 L 643.56 526.78 L 650.67 487.85 L 657.78 487.00 L 664.89 487.00 L 672.00 487.00 L 679.11 487.00 L 686.22 487.00 L 693.33 487.00 L 700.44 487.00 L 707.56 487.00 L 714.67 487.00 L 721.78 487.00 L 728.89 487.00 L 736.00 487.00 L 743.11 487.00 L 750.22 487.00 L 757.33 487.00 L 764.44 487.00 L 771.56 487.00 L 778.67 487.00 L 785.78 487.00 L 792.89 487.00 L 800.00 487.00 L 807.11 487.00 L 814.22 487.00 L 821.33 487.00 L 828.44 487.00 L 835.56 487.00 L 842.67 487.00 L 849.78 487.00 L 856.89 487.00 L 864.00 487.00 L 871.11 487.00 L 878.22 487.00 L 885.33 487.00 L 892.44 487.00 L 899.56 487.00 L 906.67 487.00 L 913.78 487.00 L 920.89 487.00 L 928.00 487.00 L 932.98 487.00 L 935.11 487.00 L 942.22 487.00 L 949.33 487.00 L 956.44 487.00 L 963.56 487.00 L 970.67 487.00 L 977.78 487.00 L 984.89 487.00 L 992.00 487.00 L 999.11 487.00 L 1006.22 487.00 L 1013.33 487.00 L 1020.44 487.00 L 1027.56 487.00 L 1034.67 487.00 L 1041.78 487.00 L 1048.89 487.00 L 1056.00 487.00 L 1063.11 487.00 L 1070.22 487.00 L 1077.33 487.00 L 1084.44 487.00 L 1091.56 487.00 L 1098.67 487.00 L 1105.78 487.00 L 1112.89 487.00 L 1120.00 487.00" fill="none" stroke="#dc2626" stroke-width="1.7" stroke-opacity="0.45" stroke-dasharray="1 6" stroke-linecap="round" stroke-linejoin="round"/>
<path d="M 284.44 458.34 L 288.00 458.32 L 295.11 458.16 L 302.22 457.93 L 309.33 457.74 L 316.44 457.66 L 323.56 457.75 L 330.67 458.07 L 337.78 458.66 L 344.89 459.55 L 352.00 460.75 L 359.11 462.26 L 366.22 464.07 L 373.33 466.15 L 380.44 468.47 L 387.56 470.97 L 394.67 473.58 L 401.78 476.24 L 408.89 478.84 L 416.00 481.29 L 423.11 483.47 L 430.22 485.24 L 437.33 486.47 L 444.44 486.99" fill="none" stroke="#dc2626" stroke-width="1.7" stroke-opacity="0.70" stroke-dasharray="7 5" stroke-linecap="round" stroke-linejoin="round"/>
<path d="M 451.56 487.00 L 458.67 487.00 L 465.78 487.00 L 472.89 487.00" fill="none" stroke="#dc2626" stroke-width="1.7" stroke-opacity="0.45" stroke-dasharray="1 6" stroke-linecap="round" stroke-linejoin="round"/>
<path d="M 480.00 487.37 L 487.11 488.46 L 494.22 490.14 L 501.33 492.25 L 508.44 494.65 L 515.56 497.23 L 522.67 499.89 L 529.78 502.52 L 536.89 505.04 L 544.00 507.40 L 551.11 509.53 L 558.22 511.40 L 565.33 512.97 L 572.44 514.23 L 579.56 515.18 L 586.67 515.83 L 593.78 516.21 L 594.49 516.23 L 600.89 516.34 L 608.00 516.29" fill="none" stroke="#dc2626" stroke-width="1.7" stroke-opacity="0.70" stroke-dasharray="7 5" stroke-linecap="round" stroke-linejoin="round"/>
<rect x="96" y="552" width="1024" height="86" fill="#ffffff" stroke="#cbd5e1"/>
<line x1="608.00" y1="552" x2="608.00" y2="638" stroke="#64748b" stroke-width="1.2"/>
<text x="32" y="572" font-family="Arial, sans-serif" font-size="13" font-weight="700" fill="#0f172a">Acceleration (in/deg^2)</text>
<line x1="96.00" y1="552" x2="96.00" y2="638" stroke="#cbd5e1"/>
<line x1="160.00" y1="552" x2="160.00" y2="638" stroke="#e2e8f0"/>
<line x1="224.00" y1="552" x2="224.00" y2="638" stroke="#cbd5e1"/>
<line x1="288.00" y1="552" x2="288.00" y2="638" stroke="#e2e8f0"/>
<line x1="352.00" y1="552" x2="352.00" y2="638" stroke="#cbd5e1"/>
<line x1="416.00" y1="552" x2="416.00" y2="638" stroke="#e2e8f0"/>
<line x1="480.00" y1="552" x2="480.00" y2="638" stroke="#cbd5e1"/>
<line x1="544.00" y1="552" x2="544.00" y2="638" stroke="#e2e8f0"/>
<line x1="608.00" y1="552" x2="608.00" y2="638" stroke="#cbd5e1"/>
<line x1="672.00" y1="552" x2="672.00" y2="638" stroke="#e2e8f0"/>
<line x1="736.00" y1="552" x2="736.00" y2="638" stroke="#cbd5e1"/>
<line x1="800.00" y1="552" x2="800.00" y2="638" stroke="#e2e8f0"/>
<line x1="864.00" y1="552" x2="864.00" y2="638" stroke="#cbd5e1"/>
<line x1="928.00" y1="552" x2="928.00" y2="638" stroke="#e2e8f0"/>
<line x1="992.00" y1="552" x2="992.00" y2="638" stroke="#cbd5e1"/>
<line x1="1056.00" y1="552" x2="1056.00" y2="638" stroke="#e2e8f0"/>
<line x1="1120.00" y1="552" x2="1120.00" y2="638" stroke="#cbd5e1"/>
<line x1="96" y1="595.00" x2="1120" y2="595.00" stroke="#94a3b8"/>
<line x1="96" y1="638.00" x2="1120" y2="638.00" stroke="#e2e8f0"/>
<text x="82" y="642.00" text-anchor="end" font-family="Arial, sans-serif" font-size="10" fill="#334155">-0.0011</text>
<line x1="96" y1="595.00" x2="1120" y2="595.00" stroke="#e2e8f0"/>
<text x="82" y="599.00" text-anchor="end" font-family="Arial, sans-serif" font-size="10" fill="#334155">0.0000</text>
<line x1="96" y1="552.00" x2="1120" y2="552.00" stroke="#e2e8f0"/>
<text x="82" y="556.00" text-anchor="end" font-family="Arial, sans-serif" font-size="10" fill="#334155">0.0011</text>
<path d="M 103.11 595.00 L 110.22 595.00 L 117.33 595.00 L 124.44 595.00 L 131.56 595.00 L 138.67 595.00 L 145.78 595.00 L 152.89 595.00 L 160.00 595.00 L 167.11 595.00 L 174.22 595.00 L 181.33 595.00 L 188.44 595.00 L 195.56 595.00 L 202.67 595.00 L 209.78 595.00 L 216.89 595.00 L 224.00 595.00 L 231.11 595.00 L 238.22 595.00 L 245.33 595.00 L 252.44 595.00 L 259.56 595.00 L 266.67 595.00 L 273.78 595.00 L 280.89 595.00 L 284.44 595.00 L 288.00 595.00 L 295.11 595.00 L 302.22 595.00 L 309.33 595.00 L 316.44 595.00 L 323.56 595.00 L 330.67 595.00 L 337.78 595.00 L 344.89 595.00 L 352.00 595.00 L 359.11 595.00 L 366.22 595.00 L 373.33 595.00 L 380.44 595.00 L 387.56 595.00 L 394.67 595.00 L 401.78 595.00 L 408.89 595.00 L 416.00 595.00 L 423.11 595.00 L 430.22 595.00 L 437.33 595.00 L 444.44 595.00 L 451.56 595.00 L 458.67 595.00 L 465.78 595.00 L 472.89 595.00 L 480.00 595.00 L 487.11 595.00 L 494.22 595.00 L 501.33 595.00 L 508.44 595.00 L 515.56 595.00 L 522.67 595.00 L 529.78 595.00 L 536.89 595.00 L 544.00 595.00 L 551.11 595.00 L 558.22 595.00 L 565.33 595.00 L 572.44 595.00 L 579.56 553.18 L 586.67 582.65 L 593.78 606.30 L 594.49 595.00 L 600.89 594.81 L 608.00 594.73 L 608.00 594.73 L 615.11 594.76 L 622.22 594.90 L 629.33 595.13 L 634.31 595.32 L 636.44 595.41 L 643.56 595.75 L 650.67 596.12 L 657.78 596.51 L 664.89 596.89 L 672.00 597.26 L 679.11 597.58 L 686.22 597.86 L 693.33 598.06 L 700.44 598.17 L 707.56 598.17 L 714.67 598.05 L 721.78 597.79 L 728.89 597.38 L 736.00 596.78 L 743.11 595.99 L 750.22 595.00 L 757.33 595.00 L 764.44 595.00 L 771.56 595.00 L 778.67 595.21 L 785.78 596.17 L 792.89 596.91 L 800.00 597.47 L 807.11 597.86 L 814.22 598.09 L 821.33 598.18 L 828.44 598.15 L 835.56 598.02 L 842.67 597.81 L 849.78 597.52 L 856.89 597.19 L 864.00 596.82 L 871.11 596.43 L 878.22 596.05 L 885.33 595.68 L 892.44 595.35 L 899.56 595.07 L 906.67 594.87 L 913.78 594.75 L 920.89 594.73 L 928.00 594.84 L 932.98 595.00 L 935.11 618.67 L 942.22 566.14 L 949.33 577.07 L 956.44 595.00 L 963.56 595.00 L 970.67 595.00 L 977.78 595.00 L 984.89 595.00 L 992.00 595.00 L 999.11 595.00 L 1006.22 595.00 L 1013.33 595.00 L 1020.44 595.00 L 1027.56 595.00 L 1034.67 595.00 L 1041.78 595.00 L 1048.89 595.00 L 1056.00 595.00 L 1063.11 595.00 L 1070.22 595.00 L 1077.33 595.00 L 1084.44 595.00 L 1091.56 595.00 L 1098.67 595.00 L 1105.78 595.00 L 1112.89 595.00 L 1120.00 595.00" fill="none" stroke="#2563eb" stroke-width="1.7" stroke-opacity="0.45" stroke-dasharray="1 6" stroke-linecap="round" stroke-linejoin="round"/>
<path d="M 103.11 595.00 L 110.22 595.00 L 117.33 595.00 L 124.44 595.00 L 131.56 595.00 L 138.67 595.00 L 145.78 595.00 L 152.89 595.00 L 160.00 595.00 L 167.11 595.00 L 174.22 595.00 L 181.33 595.00 L 188.44 595.00 L 195.56 595.00 L 202.67 595.00 L 209.78 595.00 L 216.89 595.00 L 224.00 595.00 L 231.11 595.00 L 238.22 595.00 L 245.33 595.00 L 252.44 595.00 L 259.56 595.00 L 266.67 595.00 L 273.78 552.00 L 280.89 621.46 L 284.44 595.00 L 288.00 594.89 L 295.11 594.77 L 302.22 594.75 L 309.33 594.83 L 316.44 594.99 L 323.56 595.22 L 330.67 595.51 L 337.78 595.83 L 344.89 596.17 L 352.00 596.52 L 359.11 596.86 L 366.22 597.19 L 373.33 597.47 L 380.44 597.71 L 387.56 597.88 L 394.67 597.97 L 401.78 597.97 L 408.89 597.85 L 416.00 597.62 L 423.11 597.24 L 430.22 596.71 L 437.33 596.01 L 444.44 595.13 L 451.56 595.00 L 458.67 595.00 L 465.78 595.00 L 472.89 595.00 L 480.00 595.85 L 487.11 596.58 L 494.22 597.15 L 501.33 597.55 L 508.44 597.82 L 515.56 597.95 L 522.67 597.98 L 529.78 597.90 L 536.89 597.75 L 544.00 597.52 L 551.11 597.25 L 558.22 596.93 L 565.33 596.59 L 572.44 596.24 L 579.56 595.89 L 586.67 595.57 L 593.78 595.28 L 594.49 595.25 L 600.89 595.04 L 608.00 594.86 L 608.00 594.86 L 615.11 594.76 L 622.22 594.75 L 629.33 594.86 L 634.31 595.00 L 636.44 620.07 L 643.56 566.53 L 650.67 576.69 L 657.78 595.00 L 664.89 595.00 L 672.00 595.00 L 679.11 595.00 L 686.22 595.00 L 693.33 595.00 L 700.44 595.00 L 707.56 595.00 L 714.67 595.00 L 721.78 595.00 L 728.89 595.00 L 736.00 595.00 L 743.11 595.00 L 750.22 595.00 L 757.33 595.00 L 764.44 595.00 L 771.56 595.00 L 778.67 595.00 L 785.78 595.00 L 792.89 595.00 L 800.00 595.00 L 807.11 595.00 L 814.22 595.00 L 821.33 595.00 L 828.44 595.00 L 835.56 595.00 L 842.67 595.00 L 849.78 595.00 L 856.89 595.00 L 864.00 595.00 L 871.11 595.00 L 878.22 595.00 L 885.33 595.00 L 892.44 595.00 L 899.56 595.00 L 906.67 595.00 L 913.78 595.00 L 920.89 595.00 L 928.00 595.00 L 932.98 595.00 L 935.11 595.00 L 942.22 595.00 L 949.33 595.00 L 956.44 595.00 L 963.56 595.00 L 970.67 595.00 L 977.78 595.00 L 984.89 595.00 L 992.00 595.00 L 999.11 595.00 L 1006.22 595.00 L 1013.33 595.00 L 1020.44 595.00 L 1027.56 595.00 L 1034.67 595.00 L 1041.78 595.00 L 1048.89 595.00 L 1056.00 595.00 L 1063.11 595.00 L 1070.22 595.00 L 1077.33 595.00 L 1084.44 595.00 L 1091.56 595.00 L 1098.67 595.00 L 1105.78 595.00 L 1112.89 595.00 L 1120.00 595.00" fill="none" stroke="#dc2626" stroke-width="1.7" stroke-opacity="0.45" stroke-dasharray="1 6" stroke-linecap="round" stroke-linejoin="round"/>
<rect x="96" y="660" width="1024" height="86" fill="#ffffff" stroke="#cbd5e1"/>
<line x1="608.00" y1="660" x2="608.00" y2="746" stroke="#64748b" stroke-width="1.2"/>
<text x="32" y="680" font-family="Arial, sans-serif" font-size="13" font-weight="700" fill="#0f172a">Jerk (in/deg^3)</text>
<line x1="96.00" y1="660" x2="96.00" y2="746" stroke="#cbd5e1"/>
<line x1="160.00" y1="660" x2="160.00" y2="746" stroke="#e2e8f0"/>
<line x1="224.00" y1="660" x2="224.00" y2="746" stroke="#cbd5e1"/>
<line x1="288.00" y1="660" x2="288.00" y2="746" stroke="#e2e8f0"/>
<line x1="352.00" y1="660" x2="352.00" y2="746" stroke="#cbd5e1"/>
<line x1="416.00" y1="660" x2="416.00" y2="746" stroke="#e2e8f0"/>
<line x1="480.00" y1="660" x2="480.00" y2="746" stroke="#cbd5e1"/>
<line x1="544.00" y1="660" x2="544.00" y2="746" stroke="#e2e8f0"/>
<line x1="608.00" y1="660" x2="608.00" y2="746" stroke="#cbd5e1"/>
<line x1="672.00" y1="660" x2="672.00" y2="746" stroke="#e2e8f0"/>
<line x1="736.00" y1="660" x2="736.00" y2="746" stroke="#cbd5e1"/>
<line x1="800.00" y1="660" x2="800.00" y2="746" stroke="#e2e8f0"/>
<line x1="864.00" y1="660" x2="864.00" y2="746" stroke="#cbd5e1"/>
<line x1="928.00" y1="660" x2="928.00" y2="746" stroke="#e2e8f0"/>
<line x1="992.00" y1="660" x2="992.00" y2="746" stroke="#cbd5e1"/>
<line x1="1056.00" y1="660" x2="1056.00" y2="746" stroke="#e2e8f0"/>
<line x1="1120.00" y1="660" x2="1120.00" y2="746" stroke="#cbd5e1"/>
<line x1="96" y1="703.00" x2="1120" y2="703.00" stroke="#94a3b8"/>
<line x1="96" y1="746.00" x2="1120" y2="746.00" stroke="#e2e8f0"/>
<text x="82" y="750.00" text-anchor="end" font-family="Arial, sans-serif" font-size="10" fill="#334155">-0.0008</text>
<line x1="96" y1="703.00" x2="1120" y2="703.00" stroke="#e2e8f0"/>
<text x="82" y="707.00" text-anchor="end" font-family="Arial, sans-serif" font-size="10" fill="#334155">0.0000</text>
<line x1="96" y1="660.00" x2="1120" y2="660.00" stroke="#e2e8f0"/>
<text x="82" y="664.00" text-anchor="end" font-family="Arial, sans-serif" font-size="10" fill="#334155">0.0008</text>
<path d="M 103.11 703.00 L 110.22 703.00 L 117.33 703.00 L 124.44 703.00 L 131.56 703.00 L 138.67 703.00 L 145.78 703.00 L 152.89 703.00 L 160.00 703.00 L 167.11 703.00 L 174.22 703.00 L 181.33 703.00 L 188.44 703.00 L 195.56 703.00 L 202.67 703.00 L 209.78 703.00 L 216.89 703.00 L 224.00 703.00 L 231.11 703.00 L 238.22 703.00 L 245.33 703.00 L 252.44 703.00 L 259.56 703.00 L 266.67 703.00 L 273.78 703.00 L 280.89 703.00 L 284.44 703.00 L 288.00 703.00 L 295.11 703.00 L 302.22 703.00 L 309.33 703.00 L 316.44 703.00 L 323.56 703.00 L 330.67 703.00 L 337.78 703.00 L 344.89 703.00 L 352.00 703.00 L 359.11 703.00 L 366.22 703.00 L 373.33 703.00 L 380.44 703.00 L 387.56 703.00 L 394.67 703.00 L 401.78 703.00 L 408.89 703.00 L 416.00 703.00 L 423.11 703.00 L 430.22 703.00 L 437.33 703.00 L 444.44 703.00 L 451.56 703.00 L 458.67 703.00 L 465.78 703.00 L 472.89 703.00 L 480.00 703.00 L 487.11 703.00 L 494.22 703.00 L 501.33 703.00 L 508.44 703.00 L 515.56 703.00 L 522.67 703.00 L 529.78 703.00 L 536.89 703.00 L 544.00 703.00 L 551.11 703.00 L 558.22 703.00 L 565.33 703.00 L 572.44 703.00 L 579.56 680.86 L 586.67 725.46 L 593.78 677.75 L 594.49 667.90 L 600.89 702.96 L 608.00 702.99 L 608.00 702.99 L 615.11 703.02 L 622.22 703.05 L 629.33 703.07 L 634.31 703.08 L 636.44 703.08 L 643.56 703.10 L 650.67 703.10 L 657.78 703.10 L 664.89 703.10 L 672.00 703.09 L 679.11 703.08 L 686.22 703.06 L 693.33 703.04 L 700.44 703.02 L 707.56 702.99 L 714.67 702.95 L 721.78 702.91 L 728.89 702.87 L 736.00 702.82 L 743.11 702.76 L 750.22 703.00 L 757.33 703.00 L 764.44 703.00 L 771.56 703.00 L 778.67 703.28 L 785.78 703.23 L 792.89 703.17 L 800.00 703.12 L 807.11 703.08 L 814.22 703.04 L 821.33 703.01 L 828.44 702.98 L 835.56 702.95 L 842.67 702.93 L 849.78 702.92 L 856.89 702.91 L 864.00 702.90 L 871.11 702.90 L 878.22 702.90 L 885.33 702.91 L 892.44 702.92 L 899.56 702.93 L 906.67 702.96 L 913.78 702.98 L 920.89 703.01 L 928.00 703.05 L 932.98 703.07 L 935.11 711.32 L 942.22 682.08 L 949.33 745.14 L 956.44 703.00 L 963.56 703.00 L 970.67 703.00 L 977.78 703.00 L 984.89 703.00 L 992.00 703.00 L 999.11 703.00 L 1006.22 703.00 L 1013.33 703.00 L 1020.44 703.00 L 1027.56 703.00 L 1034.67 703.00 L 1041.78 703.00 L 1048.89 703.00 L 1056.00 703.00 L 1063.11 703.00 L 1070.22 703.00 L 1077.33 703.00 L 1084.44 703.00 L 1091.56 703.00 L 1098.67 703.00 L 1105.78 703.00 L 1112.89 703.00 L 1120.00 703.00" fill="none" stroke="#2563eb" stroke-width="1.7" stroke-opacity="0.45" stroke-dasharray="1 6" stroke-linecap="round" stroke-linejoin="round"/>
<path d="M 103.11 703.00 L 110.22 703.00 L 117.33 703.00 L 124.44 703.00 L 131.56 703.00 L 138.67 703.00 L 145.78 703.00 L 152.89 703.00 L 160.00 703.00 L 167.11 703.00 L 174.22 703.00 L 181.33 703.00 L 188.44 703.00 L 195.56 703.00 L 202.67 703.00 L 209.78 703.00 L 216.89 703.00 L 224.00 703.00 L 231.11 703.00 L 238.22 703.00 L 245.33 703.00 L 252.44 703.00 L 259.56 703.00 L 266.67 703.00 L 273.78 719.38 L 280.89 707.72 L 284.44 666.11 L 288.00 702.95 L 295.11 702.98 L 302.22 703.01 L 309.33 703.03 L 316.44 703.05 L 323.56 703.07 L 330.67 703.08 L 337.78 703.09 L 344.89 703.09 L 352.00 703.09 L 359.11 703.09 L 366.22 703.08 L 373.33 703.07 L 380.44 703.05 L 387.56 703.04 L 394.67 703.01 L 401.78 702.99 L 408.89 702.95 L 416.00 702.92 L 423.11 702.88 L 430.22 702.84 L 437.33 702.79 L 444.44 702.74 L 451.56 703.00 L 458.67 703.00 L 465.78 703.00 L 472.89 703.00 L 480.00 703.22 L 487.11 703.17 L 494.22 703.13 L 501.33 703.09 L 508.44 703.05 L 515.56 703.02 L 522.67 702.99 L 529.78 702.97 L 536.89 702.95 L 544.00 702.93 L 551.11 702.92 L 558.22 702.91 L 565.33 702.91 L 572.44 702.91 L 579.56 702.91 L 586.67 702.92 L 593.78 702.93 L 594.49 702.93 L 600.89 702.94 L 608.00 702.96 L 608.00 702.96 L 615.11 702.99 L 622.22 703.01 L 629.33 703.04 L 634.31 703.07 L 636.44 712.06 L 643.56 681.32 L 650.67 746.00 L 657.78 703.00 L 664.89 703.00 L 672.00 703.00 L 679.11 703.00 L 686.22 703.00 L 693.33 703.00 L 700.44 703.00 L 707.56 703.00 L 714.67 703.00 L 721.78 703.00 L 728.89 703.00 L 736.00 703.00 L 743.11 703.00 L 750.22 703.00 L 757.33 703.00 L 764.44 703.00 L 771.56 703.00 L 778.67 703.00 L 785.78 703.00 L 792.89 703.00 L 800.00 703.00 L 807.11 703.00 L 814.22 703.00 L 821.33 703.00 L 828.44 703.00 L 835.56 703.00 L 842.67 703.00 L 849.78 703.00 L 856.89 703.00 L 864.00 703.00 L 871.11 703.00 L 878.22 703.00 L 885.33 703.00 L 892.44 703.00 L 899.56 703.00 L 906.67 703.00 L 913.78 703.00 L 920.89 703.00 L 928.00 703.00 L 932.98 703.00 L 935.11 703.00 L 942.22 703.00 L 949.33 703.00 L 956.44 703.00 L 963.56 703.00 L 970.67 703.00 L 977.78 703.00 L 984.89 703.00 L 992.00 703.00 L 999.11 703.00 L 1006.22 703.00 L 1013.33 703.00 L 1020.44 703.00 L 1027.56 703.00 L 1034.67 703.00 L 1041.78 703.00 L 1048.89 703.00 L 1056.00 703.00 L 1063.11 703.00 L 1070.22 703.00 L 1077.33 703.00 L 1084.44 703.00 L 1091.56 703.00 L 1098.67 703.00 L 1105.78 703.00 L 1112.89 703.00 L 1120.00 703.00" fill="none" stroke="#dc2626" stroke-width="1.7" stroke-opacity="0.45" stroke-dasharray="1 6" stroke-linecap="round" stroke-linejoin="round"/>

<text x="96" y="776" font-family="Arial, sans-serif" font-size="13" font-weight="700" fill="#0f172a">Secondary 720 deg overview</text>
<rect x="96" y="786" width="1024" height="54" fill="#f8fafc" stroke="#cbd5e1"/>
<rect x="96.00" y="786" width="256.00" height="54" fill="#e2e8f0" fill-opacity="0.35"/>
<rect x="864.00" y="786" width="256.00" height="54" fill="#e2e8f0" fill-opacity="0.35"/>
<line x1="96.00" y1="786" x2="96.00" y2="840" stroke="#e2e8f0"/>
<text x="96.00" y="854" text-anchor="middle" font-family="Arial, sans-serif" font-size="10" fill="#475569">0</text>
<line x1="352.00" y1="786" x2="352.00" y2="840" stroke="#e2e8f0"/>
<text x="352.00" y="854" text-anchor="middle" font-family="Arial, sans-serif" font-size="10" fill="#475569">180</text>
<line x1="608.00" y1="786" x2="608.00" y2="840" stroke="#e2e8f0"/>
<text x="608.00" y="854" text-anchor="middle" font-family="Arial, sans-serif" font-size="10" fill="#475569">360</text>
<line x1="864.00" y1="786" x2="864.00" y2="840" stroke="#e2e8f0"/>
<text x="864.00" y="854" text-anchor="middle" font-family="Arial, sans-serif" font-size="10" fill="#475569">540</text>
<line x1="1120.00" y1="786" x2="1120.00" y2="840" stroke="#e2e8f0"/>
<text x="1120.00" y="854" text-anchor="middle" font-family="Arial, sans-serif" font-size="10" fill="#475569">720</text>
<path d="M 96.00 827.78 L 103.11 824.87 L 110.22 821.95 L 117.33 819.01 L 122.31 816.96 L 124.44 816.09 L 131.56 813.20 L 138.67 810.38 L 145.78 807.65 L 152.89 805.06 L 160.00 802.63 L 167.11 800.39 L 174.22 798.38 L 181.33 796.61 L 188.44 795.11 L 195.56 793.88 L 202.67 792.92 L 209.78 792.22 L 216.89 791.77 L 224.00 791.51 L 231.11 791.41" fill="none" stroke="#2563eb" stroke-width="1.3" stroke-opacity="0.70" stroke-linecap="round" stroke-linejoin="round"/>
<path d="M 238.22 791.40 L 245.33 791.40 L 252.44 791.40 L 259.56 791.40" fill="none" stroke="#2563eb" stroke-width="1.3" stroke-opacity="0.70" stroke-linecap="round" stroke-linejoin="round"/>
<path d="M 266.67 791.40 L 273.78 791.43 L 280.89 791.55 L 288.00 791.84 L 295.11 792.34 L 302.22 793.09 L 309.33 794.10 L 316.44 795.39 L 323.56 796.94 L 330.67 798.76 L 337.78 800.82 L 344.89 803.10 L 352.00 805.57 L 359.11 808.19 L 366.22 810.94 L 373.33 813.77 L 380.44 816.67 L 387.56 819.60 L 394.67 822.53 L 401.78 825.46 L 408.89 828.36 L 416.00 831.24 L 420.98 833.25" fill="none" stroke="#2563eb" stroke-width="1.3" stroke-opacity="0.70" stroke-linecap="round" stroke-linejoin="round"/>
<path d="M 423.11 834.15 L 430.22 838.09 L 437.33 840.00 L 444.44 840.00 L 451.56 840.00 L 458.67 840.00 L 465.78 840.00 L 472.89 840.00 L 480.00 840.00 L 487.11 840.00 L 494.22 840.00 L 501.33 840.00 L 508.44 840.00 L 515.56 840.00 L 522.67 840.00 L 529.78 840.00 L 536.89 840.00 L 544.00 840.00 L 551.11 840.00 L 558.22 840.00 L 565.33 840.00 L 572.44 840.00 L 579.56 840.00 L 586.67 840.00 L 593.78 840.00 L 600.89 840.00 L 608.00 840.00 L 615.11 840.00 L 622.22 840.00 L 629.33 840.00 L 636.44 840.00 L 643.56 840.00 L 650.67 840.00 L 657.78 840.00 L 664.89 840.00 L 672.00 840.00 L 679.11 840.00 L 686.22 840.00 L 693.33 840.00 L 700.44 840.00 L 707.56 840.00 L 714.67 840.00 L 721.78 840.00 L 728.89 840.00 L 736.00 840.00 L 743.11 840.00 L 750.22 840.00 L 757.33 840.00 L 764.44 840.00 L 771.56 840.00 L 778.67 840.00 L 785.78 840.00 L 792.89 840.00 L 796.44 840.00 L 800.00 840.00 L 807.11 840.00 L 814.22 840.00 L 821.33 840.00 L 828.44 840.00 L 835.56 840.00 L 842.67 840.00 L 849.78 840.00 L 856.89 840.00 L 864.00 840.00 L 871.11 840.00 L 878.22 840.00 L 885.33 840.00 L 892.44 840.00 L 899.56 840.00 L 906.67 840.00 L 913.78 840.00 L 920.89 840.00 L 928.00 840.00 L 935.11 840.00 L 942.22 840.00 L 949.33 840.00 L 956.44 840.00 L 963.56 840.00 L 970.67 840.00 L 977.78 840.00 L 984.89 840.00 L 992.00 840.00 L 999.11 840.00 L 1006.22 840.00 L 1013.33 840.00 L 1020.44 840.00 L 1027.56 840.00 L 1034.67 840.00 L 1041.78 840.00 L 1048.89 840.00 L 1056.00 840.00 L 1063.11 840.00 L 1070.22 840.00 L 1077.33 840.00 L 1084.44 840.00 L 1091.56 839.93 L 1098.67 837.29 L 1105.78 833.54" fill="none" stroke="#2563eb" stroke-width="1.3" stroke-opacity="0.70" stroke-linecap="round" stroke-linejoin="round"/>
<path d="M 1106.49 833.25 L 1112.89 830.67 L 1120.00 827.78" fill="none" stroke="#2563eb" stroke-width="1.3" stroke-opacity="0.70" stroke-linecap="round" stroke-linejoin="round"/>
<path d="M 96.00 822.89 L 103.11 825.71 L 110.22 828.52 L 117.33 831.31 L 122.31 833.25" fill="none" stroke="#dc2626" stroke-width="1.3" stroke-opacity="0.70" stroke-linecap="round" stroke-linejoin="round"/>
<path d="M 124.44 834.12 L 131.56 838.06 L 138.67 840.00 L 145.78 840.00 L 152.89 840.00 L 160.00 840.00 L 167.11 840.00 L 174.22 840.00 L 181.33 840.00 L 188.44 840.00 L 195.56 840.00 L 202.67 840.00 L 209.78 840.00 L 216.89 840.00 L 224.00 840.00 L 231.11 840.00 L 238.22 840.00 L 245.33 840.00 L 252.44 840.00 L 259.56 840.00 L 266.67 840.00 L 273.78 840.00 L 280.89 840.00 L 288.00 840.00 L 295.11 840.00 L 302.22 840.00 L 309.33 840.00 L 316.44 840.00 L 323.56 840.00 L 330.67 840.00 L 337.78 840.00 L 344.89 840.00 L 352.00 840.00 L 359.11 840.00 L 366.22 840.00 L 373.33 840.00 L 380.44 840.00 L 387.56 840.00 L 394.67 840.00 L 401.78 840.00 L 408.89 840.00 L 416.00 840.00 L 420.98 840.00 L 423.11 840.00 L 430.22 840.00 L 437.33 840.00 L 444.44 840.00 L 451.56 840.00 L 458.67 840.00 L 465.78 840.00 L 472.89 840.00 L 480.00 840.00 L 487.11 840.00 L 494.22 840.00 L 501.33 840.00 L 508.44 840.00 L 515.56 840.00 L 522.67 840.00 L 529.78 840.00 L 536.89 840.00 L 544.00 840.00 L 551.11 840.00 L 558.22 840.00 L 565.33 840.00 L 572.44 840.00 L 579.56 840.00 L 586.67 840.00 L 593.78 840.00 L 600.89 840.00 L 608.00 840.00 L 615.11 840.00 L 622.22 840.00 L 629.33 840.00 L 636.44 840.00 L 643.56 840.00 L 650.67 840.00 L 657.78 840.00 L 664.89 840.00 L 672.00 840.00 L 679.11 840.00 L 686.22 840.00 L 693.33 840.00 L 700.44 840.00 L 707.56 840.00 L 714.67 840.00 L 721.78 840.00 L 728.89 840.00 L 736.00 840.00 L 743.11 840.00 L 750.22 840.00 L 757.33 840.00 L 764.44 840.00 L 771.56 840.00 L 778.67 840.00 L 785.78 838.77 L 792.89 834.80" fill="none" stroke="#dc2626" stroke-width="1.3" stroke-opacity="0.70" stroke-linecap="round" stroke-linejoin="round"/>
<path d="M 796.44 833.25 L 800.00 831.86 L 807.11 829.08 L 814.22 826.28 L 821.33 823.45 L 828.44 820.62 L 835.56 817.78 L 842.67 814.96 L 849.78 812.19 L 856.89 809.49 L 864.00 806.88 L 871.11 804.41 L 878.22 802.10 L 885.33 799.98 L 892.44 798.08 L 899.56 796.40 L 906.67 794.98 L 913.78 793.81 L 920.89 792.89 L 928.00 792.22 L 935.11 791.78 L 942.22 791.53 L 949.33 791.42 L 956.44 791.40" fill="none" stroke="#dc2626" stroke-width="1.3" stroke-opacity="0.70" stroke-linecap="round" stroke-linejoin="round"/>
<path d="M 963.56 791.40 L 970.67 791.40 L 977.78 791.40 L 984.89 791.40" fill="none" stroke="#dc2626" stroke-width="1.3" stroke-opacity="0.70" stroke-linecap="round" stroke-linejoin="round"/>
<path d="M 992.00 791.41 L 999.11 791.49 L 1006.22 791.71 L 1013.33 792.12 L 1020.44 792.74 L 1027.56 793.60 L 1034.67 794.72 L 1041.78 796.10 L 1048.89 797.72 L 1056.00 799.58 L 1063.11 801.66 L 1070.22 803.94 L 1077.33 806.38 L 1084.44 808.96 L 1091.56 811.64 L 1098.67 814.40 L 1105.78 817.21 L 1106.49 817.50 L 1112.89 820.05 L 1120.00 822.89" fill="none" stroke="#dc2626" stroke-width="1.3" stroke-opacity="0.70" stroke-linecap="round" stroke-linejoin="round"/>
<line x1="1106.49" y1="786" x2="1106.49" y2="840" stroke="#2563eb" stroke-width="1.1" stroke-dasharray="4 4" data-event="IO" data-canonical-angle-deg="710.5"/>
<text x="1106.49" y="797" text-anchor="middle" font-family="Arial, sans-serif" font-size="9" font-weight="700" fill="#2563eb">IO</text>
<line x1="420.98" y1="786" x2="420.98" y2="840" stroke="#2563eb" stroke-width="1.1" stroke-dasharray="4 4" data-event="IC" data-canonical-angle-deg="228.5"/>
<text x="420.98" y="797" text-anchor="middle" font-family="Arial, sans-serif" font-size="9" font-weight="700" fill="#2563eb">IC</text>
<line x1="796.44" y1="786" x2="796.44" y2="840" stroke="#dc2626" stroke-width="1.1" stroke-dasharray="4 4" data-event="EO" data-canonical-angle-deg="492.5"/>
<text x="796.44" y="797" text-anchor="middle" font-family="Arial, sans-serif" font-size="9" font-weight="700" fill="#dc2626">EO</text>
<line x1="122.31" y1="786" x2="122.31" y2="840" stroke="#dc2626" stroke-width="1.1" stroke-dasharray="4 4" data-event="EC" data-canonical-angle-deg="18.5"/>
<text x="122.31" y="797" text-anchor="middle" font-family="Arial, sans-serif" font-size="9" font-weight="700" fill="#dc2626">EC</text>
<rect x="1150" y="92" width="342" height="748" rx="6" fill="#f8fafc" stroke="#cbd5e1"/>
<text x="1164" y="120" font-family="Arial, sans-serif" font-size="14" font-weight="700" fill="#0f172a">Timing Summary (@ 0.050 in)</text>
<text x="1168" y="146" font-family="Arial, sans-serif" font-size="12" fill="#334155">IO</text>
<text x="1474" y="146" text-anchor="end" font-family="Arial, sans-serif" font-size="12" font-weight="700" fill="#2563eb">9.5 BTDC</text>
<text x="1168" y="164" font-family="Arial, sans-serif" font-size="12" fill="#334155">IC</text>
<text x="1474" y="164" text-anchor="end" font-family="Arial, sans-serif" font-size="12" font-weight="700" fill="#2563eb">48.5 ABDC</text>
<text x="1168" y="182" font-family="Arial, sans-serif" font-size="12" fill="#334155">EO</text>
<text x="1474" y="182" text-anchor="end" font-family="Arial, sans-serif" font-size="12" font-weight="700" fill="#dc2626">47.5 BBDC</text>
<text x="1168" y="200" font-family="Arial, sans-serif" font-size="12" fill="#334155">EC</text>
<text x="1474" y="200" text-anchor="end" font-family="Arial, sans-serif" font-size="12" font-weight="700" fill="#dc2626">18.5 ATDC</text>
<text x="1168" y="218" font-family="Arial, sans-serif" font-size="12" fill="#334155">LSA</text>
<text x="1474" y="218" text-anchor="end" font-family="Arial, sans-serif" font-size="12" font-weight="700" fill="#0f172a">107.0</text>
<text x="1168" y="236" font-family="Arial, sans-serif" font-size="12" fill="#334155">Intake CL</text>
<text x="1474" y="236" text-anchor="end" font-family="Arial, sans-serif" font-size="12" font-weight="700" fill="#2563eb">109.5 ATDC</text>
<text x="1168" y="254" font-family="Arial, sans-serif" font-size="12" fill="#334155">Exhaust CL</text>
<text x="1474" y="254" text-anchor="end" font-family="Arial, sans-serif" font-size="12" font-weight="700" fill="#dc2626">104.5 BTDC</text>
<text x="1164" y="276" font-family="Arial, sans-serif" font-size="14" font-weight="700" fill="#0f172a">Overlap Summary</text>
<text x="1168" y="302" font-family="Arial, sans-serif" font-size="12" fill="#334155">@ 0.050 in</text>
<text x="1474" y="302" text-anchor="end" font-family="Arial, sans-serif" font-size="12" font-weight="700" fill="#0f172a">28.0 deg</text>
<text x="1168" y="322" font-family="Arial, sans-serif" font-size="12" fill="#334155">@ 0.020 in</text>
<text x="1474" y="322" text-anchor="end" font-family="Arial, sans-serif" font-size="12" font-weight="700" fill="#0f172a">39.1 deg est.</text>
<text x="1168" y="342" font-family="Arial, sans-serif" font-size="12" fill="#334155">@ 0.006 in</text>
<text x="1474" y="342" text-anchor="end" font-family="Arial, sans-serif" font-size="12" font-weight="700" fill="#0f172a">44.4 deg est.</text>
<text x="1164" y="406" font-family="Arial, sans-serif" font-size="14" font-weight="700" fill="#0f172a">Duration Summary (deg)</text>
<text x="1168" y="432" font-family="Arial, sans-serif" font-size="12" fill="#334155">@ 0.001 in</text>
<text x="1474" y="432" text-anchor="end" font-family="Arial, sans-serif" font-size="12" font-weight="700" fill="#0f172a">I 258.1 / E 266.1</text>
<text x="1168" y="450" font-family="Arial, sans-serif" font-size="12" fill="#334155">@ 0.006 in</text>
<text x="1474" y="450" text-anchor="end" font-family="Arial, sans-serif" font-size="12" font-weight="700" fill="#0f172a">I 254.4 / E 262.4</text>
<text x="1168" y="468" font-family="Arial, sans-serif" font-size="12" fill="#334155">@ 0.020 in</text>
<text x="1474" y="468" text-anchor="end" font-family="Arial, sans-serif" font-size="12" font-weight="700" fill="#0f172a">I 249.0 / E 257.1</text>
<text x="1168" y="486" font-family="Arial, sans-serif" font-size="12" fill="#334155">@ 0.050 in</text>
<text x="1474" y="486" text-anchor="end" font-family="Arial, sans-serif" font-size="12" font-weight="700" fill="#0f172a">I 238.0 / E 246.0</text>
<text x="1168" y="504" font-family="Arial, sans-serif" font-size="12" fill="#334155">@ 0.100 in</text>
<text x="1474" y="504" text-anchor="end" font-family="Arial, sans-serif" font-size="12" font-weight="700" fill="#0f172a">I 214.6 / E 221.8</text>
<text x="1168" y="522" font-family="Arial, sans-serif" font-size="12" fill="#334155">@ 0.200 in</text>
<text x="1474" y="522" text-anchor="end" font-family="Arial, sans-serif" font-size="12" font-weight="700" fill="#0f172a">I 168.3 / E 174.0</text>
<text x="1164" y="598" font-family="Arial, sans-serif" font-size="14" font-weight="700" fill="#0f172a">Profile Quality</text>
<text x="1168" y="624" font-family="Arial, sans-serif" font-size="12" fill="#334155">Confidence</text>
<text x="1474" y="624" text-anchor="end" font-family="Arial, sans-serif" font-size="12" font-weight="700" fill="#0f172a">27/100</text>
<text x="1168" y="642" font-family="Arial, sans-serif" font-size="12" fill="#334155">Measured</text>
<text x="1474" y="642" text-anchor="end" font-family="Arial, sans-serif" font-size="12" font-weight="700" fill="#0f172a">0%</text>
<text x="1168" y="660" font-family="Arial, sans-serif" font-size="12" fill="#334155">Inferred</text>
<text x="1474" y="660" text-anchor="end" font-family="Arial, sans-serif" font-size="12" font-weight="700" fill="#0f172a">31%</text>
<text x="1168" y="678" font-family="Arial, sans-serif" font-size="12" fill="#334155">Extrapolated</text>
<text x="1474" y="678" text-anchor="end" font-family="Arial, sans-serif" font-size="12" font-weight="700" fill="#0f172a">69%</text>
<text x="1164" y="712" font-family="Arial, sans-serif" font-size="14" font-weight="700" fill="#0f172a">Validation</text>
<text x="1168" y="738" font-family="Arial, sans-serif" font-size="11" fill="#7f1d1d">- Profile confidence is low</text>
<text x="1168" y="752" font-family="Arial, sans-serif" font-size="11" fill="#7f1d1d">- Intake: Cam-card reconstruction is</text>
<text x="1168" y="766" font-family="Arial, sans-serif" font-size="11" fill="#7f1d1d">  model-derived; replace with measured lift data</text>
<text x="1168" y="780" font-family="Arial, sans-serif" font-size="11" fill="#7f1d1d">  before using derivative-sensitive conclusions.</text>
<text x="1168" y="794" font-family="Arial, sans-serif" font-size="11" fill="#7f1d1d">- Intake: Opening and closing flanks are nearly</text>
<text x="1168" y="808" font-family="Arial, sans-serif" font-size="11" fill="#7f1d1d">  mirror-symmetric; the cam card does not</text>
<text x="1168" y="822" font-family="Arial, sans-serif" font-size="11" fill="#7f1d1d">- More warnings in JSON projection</text>
<rect x="24" y="856" width="348" height="118" rx="6" fill="#ffffff" stroke="#cbd5e1"/>
<text x="40" y="880" font-family="Arial, sans-serif" font-size="13" font-weight="700" fill="#0f172a">Cam Card Source</text>
<text x="40" y="904" font-family="Arial, sans-serif" font-size="12" fill="#1e293b">Web Cam 81-651 / WR250R DOHC 4V</text>
<text x="40" y="924" font-family="Arial, sans-serif" font-size="12" fill="#1e293b">Peak lift 0.360 in, cold lash 0.006/0.008 in</text>
<text x="40" y="944" font-family="Arial, sans-serif" font-size="12" fill="#1e293b">Primary view: -360 to +360, 0 = TDC overlap</text>
<rect x="396" y="856" width="520" height="118" rx="6" fill="#ffffff" stroke="#cbd5e1"/>
<text x="412" y="880" font-family="Arial, sans-serif" font-size="13" font-weight="700" fill="#0f172a">Legend / Provenance</text>
<line x1="420" y1="906" x2="464" y2="906" stroke="#0f172a" stroke-width="2.5" stroke-opacity="1.00" stroke-linecap="round"/>
<text x="478" y="910" font-family="Arial, sans-serif" font-size="12" fill="#1e293b">MEASURED</text>
<line x1="420" y1="926" x2="464" y2="926" stroke="#0f172a" stroke-width="2.5" stroke-opacity="0.70" stroke-dasharray="7 5" stroke-linecap="round"/>
<text x="478" y="930" font-family="Arial, sans-serif" font-size="12" fill="#1e293b">INFERRED</text>
<line x1="420" y1="946" x2="464" y2="946" stroke="#0f172a" stroke-width="2.5" stroke-opacity="0.45" stroke-dasharray="1 6" stroke-linecap="round"/>
<text x="478" y="950" font-family="Arial, sans-serif" font-size="12" fill="#1e293b">EXTRAPOLATED</text>
<rect x="420" y="958" width="44" height="12" fill="none" stroke="#0f172a"/>
<text x="478" y="970" font-family="Arial, sans-serif" font-size="12" fill="#1e293b">UNDECIDABLE</text>
<rect x="710" y="892" width="30" height="12" fill="#2563eb" fill-opacity="0.10"/>
<text x="750" y="903" font-family="Arial, sans-serif" font-size="12" fill="#1e293b">95% band</text>
<rect x="710" y="916" width="30" height="12" fill="#2563eb" fill-opacity="0.05"/>
<text x="750" y="927" font-family="Arial, sans-serif" font-size="12" fill="#1e293b">50% band</text>
<rect x="940" y="856" width="552" height="118" rx="6" fill="#ffffff" stroke="#cbd5e1"/>
<text x="956" y="880" font-family="Arial, sans-serif" font-size="13" font-weight="700" fill="#0f172a">How to read</text>
<text x="956" y="902" font-family="Arial, sans-serif" font-size="11" fill="#1e293b">- Negative = BTDC overlap; positive = ATDC overlap</text>
<text x="956" y="917" font-family="Arial, sans-serif" font-size="11" fill="#1e293b">- Solid/dashed/dotted = measured/inferred/extrapolated</text>
<text x="956" y="932" font-family="Arial, sans-serif" font-size="11" fill="#1e293b">- Bands show 95% and 50% confidence</text>
<text x="956" y="947" font-family="Arial, sans-serif" font-size="11" fill="#1e293b">- Dashed markers are hard @0.050 in crossings</text>
<text x="956" y="962" font-family="Arial, sans-serif" font-size="11" fill="#1e293b">- 720 overview uses the same canonical samples</text>
<text x="768" y="1004" text-anchor="middle" font-family="Arial, sans-serif" font-size="11" fill="#64748b">Projection: cam_analyzer.visualization_projection.v1. Renderer draws only sampled boundary answers and does not recompute source facts.</text>
</svg>
