<svg xmlns="http://www.w3.org/2000/svg" viewBox="0 0 1040 1020" role="img" aria-labelledby="chart-title chart-desc">
<title id="chart-title">WR250R reference (Web Cam 81-651)</title>
<desc id="chart-desc">SVAJ stack rendered from a source-blind cam-analyzer visualization projection with provenance and confidence bands.</desc>
<rect x="0" y="0" width="1040" height="1020" fill="#ffffff"/>
<text x="78" y="42" font-family="Arial, sans-serif" font-size="24" font-weight="700" fill="#111827">WR250R reference (Web Cam 81-651)</text>
<text x="78" y="66" font-family="Arial, sans-serif" font-size="13" fill="#4b5563">SVAJ stack, sampled over 720 crank degrees</text>
<rect x="78" y="82" width="888" height="372" fill="#f9fafb" stroke="#d1d5db"/>
<line x1="78.00" y1="82" x2="78.00" y2="454" stroke="#e5e7eb"/>
<text x="78.00" y="478" text-anchor="middle" font-family="Arial, sans-serif" font-size="11" fill="#374151">0</text>
<line x1="189.00" y1="82" x2="189.00" y2="454" stroke="#e5e7eb"/>
<text x="189.00" y="478" text-anchor="middle" font-family="Arial, sans-serif" font-size="11" fill="#374151">90</text>
<line x1="300.00" y1="82" x2="300.00" y2="454" stroke="#e5e7eb"/>
<text x="300.00" y="478" text-anchor="middle" font-family="Arial, sans-serif" font-size="11" fill="#374151">180</text>
<line x1="411.00" y1="82" x2="411.00" y2="454" stroke="#e5e7eb"/>
<text x="411.00" y="478" text-anchor="middle" font-family="Arial, sans-serif" font-size="11" fill="#374151">270</text>
<line x1="522.00" y1="82" x2="522.00" y2="454" stroke="#e5e7eb"/>
<text x="522.00" y="478" text-anchor="middle" font-family="Arial, sans-serif" font-size="11" fill="#374151">360</text>
<line x1="633.00" y1="82" x2="633.00" y2="454" stroke="#e5e7eb"/>
<text x="633.00" y="478" text-anchor="middle" font-family="Arial, sans-serif" font-size="11" fill="#374151">450</text>
<line x1="744.00" y1="82" x2="744.00" y2="454" stroke="#e5e7eb"/>
<text x="744.00" y="478" text-anchor="middle" font-family="Arial, sans-serif" font-size="11" fill="#374151">540</text>
<line x1="855.00" y1="82" x2="855.00" y2="454" stroke="#e5e7eb"/>
<text x="855.00" y="478" text-anchor="middle" font-family="Arial, sans-serif" font-size="11" fill="#374151">630</text>
<line x1="966.00" y1="82" x2="966.00" y2="454" stroke="#e5e7eb"/>
<text x="966.00" y="478" text-anchor="middle" font-family="Arial, sans-serif" font-size="11" fill="#374151">720</text>
<line x1="78" y1="454.00" x2="966" y2="454.00" stroke="#e5e7eb"/>
<text x="66" y="458.00" text-anchor="end" font-family="Arial, sans-serif" font-size="11" fill="#374151">0.000</text>
<line x1="78" y1="361.00" x2="966" y2="361.00" stroke="#e5e7eb"/>
<text x="66" y="365.00" text-anchor="end" font-family="Arial, sans-serif" font-size="11" fill="#374151">0.100</text>
<line x1="78" y1="268.00" x2="966" y2="268.00" stroke="#e5e7eb"/>
<text x="66" y="272.00" text-anchor="end" font-family="Arial, sans-serif" font-size="11" fill="#374151">0.200</text>
<line x1="78" y1="175.00" x2="966" y2="175.00" stroke="#e5e7eb"/>
<text x="66" y="179.00" text-anchor="end" font-family="Arial, sans-serif" font-size="11" fill="#374151">0.300</text>
<line x1="78" y1="82.00" x2="966" y2="82.00" stroke="#e5e7eb"/>
<text x="66" y="86.00" text-anchor="end" font-family="Arial, sans-serif" font-size="11" fill="#374151">0.400</text>
<text x="522" y="506" text-anchor="middle" font-family="Arial, sans-serif" font-size="13" fill="#111827">Crank angle (deg)</text><text x="22" y="268" transform="rotate(-90 22 268)" text-anchor="middle" font-family="Arial, sans-serif" font-size="13" fill="#111827">Valve lift (in)</text>
<path d="M 78.00 353.09 L 80.47 345.10 L 82.93 337.08 L 85.40 329.04 L 87.87 320.98 L 90.33 312.90 L 92.80 304.81 L 95.27 296.72 L 97.73 288.64 L 100.20 280.58 L 102.67 272.54 L 105.13 264.54 L 107.60 256.60 L 110.07 248.72 L 112.53 240.91 L 115.00 233.21 L 117.47 225.60 L 119.93 218.12 L 122.40 210.78 L 124.87 203.59 L 127.33 196.56 L 129.80 189.71 L 132.27 183.06 L 134.73 176.62 L 137.20 170.39 L 139.67 164.40 L 142.13 158.66 L 144.60 153.18 L 147.07 147.96 L 149.53 143.01 L 152.00 138.36 L 154.47 133.99 L 156.93 129.92 L 159.40 126.15 L 161.87 122.68 L 164.33 119.51 L 166.80 116.65 L 169.27 114.08 L 171.73 111.81 L 174.20 109.83 L 176.67 108.12 L 179.13 106.68 L 181.60 105.49 L 184.07 104.53 L 186.53 103.79 L 189.00 103.25 L 191.47 102.87 L 193.93 102.64 L 196.40 102.51 L 198.87 102.47 L 198.87 135.95 L 196.40 135.99 L 193.93 136.12 L 191.47 136.35 L 189.00 136.73 L 186.53 137.27 L 184.07 138.01 L 181.60 138.97 L 179.13 140.16 L 176.67 141.60 L 174.20 143.31 L 171.73 145.29 L 169.27 147.56 L 166.80 150.13 L 164.33 152.99 L 161.87 156.16 L 159.40 159.63 L 156.93 163.40 L 154.47 167.47 L 152.00 171.84 L 149.53 176.49 L 147.07 181.44 L 144.60 186.66 L 142.13 192.14 L 139.67 197.88 L 137.20 203.87 L 134.73 210.10 L 132.27 216.54 L 129.80 223.19 L 127.33 230.04 L 124.87 237.07 L 122.40 244.26 L 119.93 251.60 L 117.47 259.08 L 115.00 266.69 L 112.53 274.39 L 110.07 282.20 L 107.60 290.08 L 105.13 298.02 L 102.67 306.02 L 100.20 314.06 L 97.73 322.12 L 95.27 330.20 L 92.80 338.29 L 90.33 346.38 L 87.87 354.46 L 85.40 362.52 L 82.93 370.56 L 80.47 378.58 L 78.00 386.57 Z" fill="#2563eb" fill-opacity="0.10" stroke="none" data-confidence="95"/>
<path d="M 78.00 369.83 L 80.47 361.84 L 82.93 353.82 L 85.40 345.78 L 87.87 337.72 L 90.33 329.64 L 92.80 321.55 L 95.27 313.46 L 97.73 305.38 L 100.20 297.32 L 102.67 289.28 L 105.13 281.28 L 107.60 273.34 L 110.07 265.46 L 112.53 257.65 L 115.00 249.95 L 117.47 242.34 L 119.93 234.86 L 122.40 227.52 L 124.87 220.33 L 127.33 213.30 L 129.80 206.45 L 132.27 199.80 L 134.73 193.36 L 137.20 187.13 L 139.67 181.14 L 142.13 175.40 L 144.60 169.92 L 147.07 164.70 L 149.53 159.75 L 152.00 155.10 L 154.47 150.73 L 156.93 146.66 L 159.40 142.89 L 161.87 139.42 L 164.33 136.25 L 166.80 133.39 L 169.27 130.82 L 171.73 128.55 L 174.20 126.57 L 176.67 124.86 L 179.13 123.42 L 181.60 122.23 L 184.07 121.27 L 186.53 120.53 L 189.00 119.99 L 191.47 119.61 L 193.93 119.38 L 196.40 119.25 L 198.87 119.21" fill="none" stroke="#2563eb" stroke-width="2.5" stroke-opacity="0.70" stroke-dasharray="6 4" stroke-linecap="round" stroke-linejoin="round"/>
<path d="M 201.33 82.00 L 203.80 82.00 L 206.27 82.00 L 208.73 82.00 L 211.20 82.00 L 213.67 82.00 L 216.13 82.00 L 218.60 82.00 L 221.07 82.00 L 223.53 82.00 L 223.53 179.46 L 221.07 179.46 L 218.60 179.46 L 216.13 179.46 L 213.67 179.46 L 211.20 179.46 L 208.73 179.46 L 206.27 179.46 L 203.80 179.46 L 201.33 179.46 Z" fill="#2563eb" fill-opacity="0.10" stroke="none" data-confidence="95"/>
<path d="M 201.33 119.20 L 203.80 119.20 L 206.27 119.20 L 208.73 119.20 L 211.20 119.20 L 213.67 119.20 L 216.13 119.20 L 218.60 119.20 L 221.07 119.20 L 223.53 119.20" fill="none" stroke="#2563eb" stroke-width="2.5" stroke-opacity="0.45" stroke-dasharray="12 7" stroke-linecap="round" stroke-linejoin="round"/>
<path d="M 226.00 102.46 L 228.47 102.48 L 230.93 102.56 L 233.40 102.74 L 235.87 103.04 L 238.33 103.50 L 240.80 104.14 L 243.27 104.98 L 245.73 106.05 L 248.20 107.36 L 250.67 108.94 L 253.13 110.78 L 255.60 112.91 L 258.07 115.33 L 260.53 118.04 L 263.00 121.06 L 265.47 124.37 L 267.93 127.99 L 270.40 131.92 L 272.87 136.14 L 275.33 140.65 L 277.80 145.45 L 280.27 150.53 L 282.73 155.89 L 285.20 161.50 L 287.67 167.37 L 290.13 173.48 L 292.60 179.81 L 295.07 186.36 L 297.53 193.11 L 300.00 200.05 L 302.47 207.16 L 304.93 214.43 L 307.40 221.85 L 309.87 229.39 L 312.33 237.05 L 314.80 244.80 L 317.27 252.65 L 319.73 260.56 L 322.20 268.53 L 324.67 276.55 L 327.13 284.61 L 329.60 292.68 L 332.07 300.77 L 334.53 308.86 L 337.00 316.94 L 339.47 325.01 L 341.93 333.06 L 344.40 341.09 L 346.87 349.10 L 349.33 357.08 L 351.80 365.03 L 354.27 372.97 L 356.73 380.88 L 359.20 388.78 L 359.20 422.26 L 356.73 414.36 L 354.27 406.45 L 351.80 398.51 L 349.33 390.56 L 346.87 382.58 L 344.40 374.57 L 341.93 366.54 L 339.47 358.49 L 337.00 350.42 L 334.53 342.34 L 332.07 334.25 L 329.60 326.16 L 327.13 318.09 L 324.67 310.03 L 322.20 302.01 L 319.73 294.04 L 317.27 286.13 L 314.80 278.28 L 312.33 270.53 L 309.87 262.87 L 307.40 255.33 L 304.93 247.91 L 302.47 240.64 L 300.00 233.53 L 297.53 226.59 L 295.07 219.84 L 292.60 213.29 L 290.13 206.96 L 287.67 200.85 L 285.20 194.98 L 282.73 189.37 L 280.27 184.01 L 277.80 178.93 L 275.33 174.13 L 272.87 169.62 L 270.40 165.40 L 267.93 161.47 L 265.47 157.85 L 263.00 154.54 L 260.53 151.52 L 258.07 148.81 L 255.60 146.39 L 253.13 144.26 L 250.67 142.42 L 248.20 140.84 L 245.73 139.53 L 243.27 138.46 L 240.80 137.62 L 238.33 136.98 L 235.87 136.52 L 233.40 136.22 L 230.93 136.04 L 228.47 135.96 L 226.00 135.94 Z" fill="#2563eb" fill-opacity="0.10" stroke="none" data-confidence="95"/>
<path d="M 226.00 119.20 L 228.47 119.22 L 230.93 119.30 L 233.40 119.48 L 235.87 119.78 L 238.33 120.24 L 240.80 120.88 L 243.27 121.72 L 245.73 122.79 L 248.20 124.10 L 250.67 125.68 L 253.13 127.52 L 255.60 129.65 L 258.07 132.07 L 260.53 134.78 L 263.00 137.80 L 265.47 141.11 L 267.93 144.73 L 270.40 148.66 L 272.87 152.88 L 275.33 157.39 L 277.80 162.19 L 280.27 167.27 L 282.73 172.63 L 285.20 178.24 L 287.67 184.11 L 290.13 190.22 L 292.60 196.55 L 295.07 203.10 L 297.53 209.85 L 300.00 216.79 L 302.47 223.90 L 304.93 231.17 L 307.40 238.59 L 309.87 246.13 L 312.33 253.79 L 314.80 261.54 L 317.27 269.39 L 319.73 277.30 L 322.20 285.27 L 324.67 293.29 L 327.13 301.35 L 329.60 309.42 L 332.07 317.51 L 334.53 325.60 L 337.00 333.68 L 339.47 341.75 L 341.93 349.80 L 344.40 357.83 L 346.87 365.84 L 349.33 373.82 L 351.80 381.77 L 354.27 389.71 L 356.73 397.62 L 359.20 405.52" fill="none" stroke="#2563eb" stroke-width="2.5" stroke-opacity="0.70" stroke-dasharray="6 4" stroke-linecap="round" stroke-linejoin="round"/>
<path d="M 361.67 353.44 L 364.13 363.53 L 366.60 375.07 L 369.07 385.43 L 371.53 391.88 L 374.00 393.72 L 376.47 393.74 L 378.93 393.74 L 381.40 393.74 L 383.87 393.74 L 386.33 393.74 L 388.80 393.74 L 391.27 393.74 L 393.73 393.74 L 396.20 393.74 L 398.67 393.74 L 401.13 393.74 L 403.60 393.74 L 406.07 393.74 L 408.53 393.74 L 411.00 393.74 L 413.47 393.74 L 415.93 393.74 L 418.40 393.74 L 420.87 393.74 L 423.33 393.74 L 425.80 393.74 L 428.27 393.74 L 430.73 393.74 L 433.20 393.74 L 435.67 393.74 L 438.13 393.74 L 440.60 393.74 L 443.07 393.74 L 445.53 393.74 L 448.00 393.74 L 450.47 393.74 L 452.93 393.74 L 455.40 393.74 L 457.87 393.74 L 460.33 393.74 L 462.80 393.74 L 465.27 393.74 L 467.73 393.74 L 470.20 393.74 L 472.67 393.74 L 475.13 393.74 L 477.60 393.74 L 480.07 393.74 L 482.53 393.74 L 485.00 393.74 L 487.47 393.74 L 489.93 393.74 L 492.40 393.74 L 494.87 393.74 L 497.33 393.74 L 499.80 393.74 L 502.27 393.74 L 504.73 393.74 L 507.20 393.74 L 509.67 393.74 L 512.13 393.74 L 514.60 393.74 L 517.07 393.74 L 519.53 393.74 L 522.00 393.74 L 524.47 393.74 L 526.93 393.74 L 529.40 393.74 L 531.87 393.74 L 534.33 393.74 L 536.80 393.74 L 539.27 393.74 L 541.73 393.74 L 544.20 393.74 L 546.67 393.74 L 549.13 393.74 L 551.60 393.74 L 554.07 393.74 L 556.53 393.74 L 559.00 393.74 L 561.47 393.74 L 563.93 393.74 L 566.40 393.74 L 568.87 393.74 L 571.33 393.74 L 573.80 393.74 L 576.27 393.74 L 578.73 393.74 L 581.20 393.74 L 583.67 393.74 L 586.13 393.74 L 588.60 393.74 L 591.07 393.74 L 593.53 393.74 L 596.00 393.74 L 598.47 393.74 L 600.93 393.74 L 603.40 393.74 L 605.87 393.74 L 608.33 393.74 L 610.80 393.74 L 613.27 393.74 L 615.73 393.74 L 618.20 393.74 L 620.67 393.74 L 623.13 393.74 L 625.60 393.74 L 628.07 393.74 L 630.53 393.74 L 633.00 393.74 L 635.47 393.74 L 637.93 393.74 L 640.40 393.74 L 642.87 393.74 L 645.33 393.74 L 647.80 393.74 L 650.27 393.74 L 652.73 393.74 L 655.20 393.74 L 657.67 393.74 L 660.13 393.74 L 662.60 393.74 L 665.07 393.74 L 667.53 393.74 L 670.00 393.74 L 672.47 393.74 L 674.93 393.74 L 677.40 393.74 L 679.87 393.74 L 682.33 393.74 L 684.80 393.74 L 687.27 393.74 L 689.73 393.74 L 692.20 393.74 L 694.67 393.74 L 697.13 393.74 L 699.60 393.74 L 702.07 393.74 L 704.53 393.74 L 707.00 393.74 L 709.47 393.74 L 711.93 393.74 L 714.40 393.74 L 716.87 393.74 L 719.33 393.74 L 721.80 393.74 L 724.27 393.74 L 726.73 393.74 L 729.20 393.74 L 731.67 393.74 L 734.13 393.74 L 736.60 393.74 L 739.07 393.74 L 741.53 393.74 L 744.00 393.74 L 746.47 393.74 L 748.93 393.74 L 751.40 393.74 L 753.87 393.74 L 756.33 393.74 L 758.80 393.74 L 761.27 393.74 L 763.73 393.74 L 766.20 393.74 L 768.67 393.74 L 771.13 393.74 L 773.60 393.74 L 776.07 393.74 L 778.53 393.74 L 781.00 393.74 L 783.47 393.74 L 785.93 393.74 L 788.40 393.74 L 790.87 393.74 L 793.33 393.74 L 795.80 393.74 L 798.27 393.74 L 800.73 393.74 L 803.20 393.74 L 805.67 393.74 L 808.13 393.74 L 810.60 393.74 L 813.07 393.74 L 815.53 393.74 L 818.00 393.74 L 820.47 393.74 L 822.93 393.74 L 825.40 393.74 L 827.87 393.74 L 830.33 393.74 L 832.80 393.74 L 835.27 393.74 L 837.73 393.74 L 840.20 393.74 L 842.67 393.74 L 845.13 393.74 L 847.60 393.74 L 850.07 393.74 L 852.53 393.74 L 855.00 393.74 L 857.47 393.74 L 859.93 393.74 L 862.40 393.74 L 864.87 393.74 L 867.33 393.74 L 869.80 393.74 L 872.27 393.74 L 874.73 393.74 L 877.20 393.74 L 879.67 393.74 L 882.13 393.74 L 884.60 393.74 L 887.07 393.74 L 889.53 393.74 L 892.00 393.74 L 894.47 393.74 L 896.93 393.74 L 899.40 393.74 L 901.87 393.74 L 904.33 393.74 L 906.80 393.74 L 909.27 393.74 L 911.73 393.74 L 914.20 393.74 L 916.67 393.74 L 919.13 393.74 L 921.60 393.74 L 924.07 393.74 L 926.53 393.74 L 929.00 393.74 L 931.47 393.74 L 933.93 393.74 L 936.40 393.74 L 938.87 393.74 L 941.33 393.28 L 943.80 389.26 L 946.27 380.59 L 948.73 369.25 L 951.20 358.20 L 953.67 349.22 L 953.67 454.00 L 951.20 454.00 L 948.73 454.00 L 946.27 454.00 L 943.80 454.00 L 941.33 454.00 L 938.87 454.00 L 936.40 454.00 L 933.93 454.00 L 931.47 454.00 L 929.00 454.00 L 926.53 454.00 L 924.07 454.00 L 921.60 454.00 L 919.13 454.00 L 916.67 454.00 L 914.20 454.00 L 911.73 454.00 L 909.27 454.00 L 906.80 454.00 L 904.33 454.00 L 901.87 454.00 L 899.40 454.00 L 896.93 454.00 L 894.47 454.00 L 892.00 454.00 L 889.53 454.00 L 887.07 454.00 L 884.60 454.00 L 882.13 454.00 L 879.67 454.00 L 877.20 454.00 L 874.73 454.00 L 872.27 454.00 L 869.80 454.00 L 867.33 454.00 L 864.87 454.00 L 862.40 454.00 L 859.93 454.00 L 857.47 454.00 L 855.00 454.00 L 852.53 454.00 L 850.07 454.00 L 847.60 454.00 L 845.13 454.00 L 842.67 454.00 L 840.20 454.00 L 837.73 454.00 L 835.27 454.00 L 832.80 454.00 L 830.33 454.00 L 827.87 454.00 L 825.40 454.00 L 822.93 454.00 L 820.47 454.00 L 818.00 454.00 L 815.53 454.00 L 813.07 454.00 L 810.60 454.00 L 808.13 454.00 L 805.67 454.00 L 803.20 454.00 L 800.73 454.00 L 798.27 454.00 L 795.80 454.00 L 793.33 454.00 L 790.87 454.00 L 788.40 454.00 L 785.93 454.00 L 783.47 454.00 L 781.00 454.00 L 778.53 454.00 L 776.07 454.00 L 773.60 454.00 L 771.13 454.00 L 768.67 454.00 L 766.20 454.00 L 763.73 454.00 L 761.27 454.00 L 758.80 454.00 L 756.33 454.00 L 753.87 454.00 L 751.40 454.00 L 748.93 454.00 L 746.47 454.00 L 744.00 454.00 L 741.53 454.00 L 739.07 454.00 L 736.60 454.00 L 734.13 454.00 L 731.67 454.00 L 729.20 454.00 L 726.73 454.00 L 724.27 454.00 L 721.80 454.00 L 719.33 454.00 L 716.87 454.00 L 714.40 454.00 L 711.93 454.00 L 709.47 454.00 L 707.00 454.00 L 704.53 454.00 L 702.07 454.00 L 699.60 454.00 L 697.13 454.00 L 694.67 454.00 L 692.20 454.00 L 689.73 454.00 L 687.27 454.00 L 684.80 454.00 L 682.33 454.00 L 679.87 454.00 L 677.40 454.00 L 674.93 454.00 L 672.47 454.00 L 670.00 454.00 L 667.53 454.00 L 665.07 454.00 L 662.60 454.00 L 660.13 454.00 L 657.67 454.00 L 655.20 454.00 L 652.73 454.00 L 650.27 454.00 L 647.80 454.00 L 645.33 454.00 L 642.87 454.00 L 640.40 454.00 L 637.93 454.00 L 635.47 454.00 L 633.00 454.00 L 630.53 454.00 L 628.07 454.00 L 625.60 454.00 L 623.13 454.00 L 620.67 454.00 L 618.20 454.00 L 615.73 454.00 L 613.27 454.00 L 610.80 454.00 L 608.33 454.00 L 605.87 454.00 L 603.40 454.00 L 600.93 454.00 L 598.47 454.00 L 596.00 454.00 L 593.53 454.00 L 591.07 454.00 L 588.60 454.00 L 586.13 454.00 L 583.67 454.00 L 581.20 454.00 L 578.73 454.00 L 576.27 454.00 L 573.80 454.00 L 571.33 454.00 L 568.87 454.00 L 566.40 454.00 L 563.93 454.00 L 561.47 454.00 L 559.00 454.00 L 556.53 454.00 L 554.07 454.00 L 551.60 454.00 L 549.13 454.00 L 546.67 454.00 L 544.20 454.00 L 541.73 454.00 L 539.27 454.00 L 536.80 454.00 L 534.33 454.00 L 531.87 454.00 L 529.40 454.00 L 526.93 454.00 L 524.47 454.00 L 522.00 454.00 L 519.53 454.00 L 517.07 454.00 L 514.60 454.00 L 512.13 454.00 L 509.67 454.00 L 507.20 454.00 L 504.73 454.00 L 502.27 454.00 L 499.80 454.00 L 497.33 454.00 L 494.87 454.00 L 492.40 454.00 L 489.93 454.00 L 487.47 454.00 L 485.00 454.00 L 482.53 454.00 L 480.07 454.00 L 477.60 454.00 L 475.13 454.00 L 472.67 454.00 L 470.20 454.00 L 467.73 454.00 L 465.27 454.00 L 462.80 454.00 L 460.33 454.00 L 457.87 454.00 L 455.40 454.00 L 452.93 454.00 L 450.47 454.00 L 448.00 454.00 L 445.53 454.00 L 443.07 454.00 L 440.60 454.00 L 438.13 454.00 L 435.67 454.00 L 433.20 454.00 L 430.73 454.00 L 428.27 454.00 L 425.80 454.00 L 423.33 454.00 L 420.87 454.00 L 418.40 454.00 L 415.93 454.00 L 413.47 454.00 L 411.00 454.00 L 408.53 454.00 L 406.07 454.00 L 403.60 454.00 L 401.13 454.00 L 398.67 454.00 L 396.20 454.00 L 393.73 454.00 L 391.27 454.00 L 388.80 454.00 L 386.33 454.00 L 383.87 454.00 L 381.40 454.00 L 378.93 454.00 L 376.47 454.00 L 374.00 454.00 L 371.53 454.00 L 369.07 454.00 L 366.60 454.00 L 364.13 454.00 L 361.67 454.00 Z" fill="#2563eb" fill-opacity="0.10" stroke="none" data-confidence="95"/>
<path d="M 361.67 413.70 L 364.13 423.79 L 366.60 435.33 L 369.07 445.69 L 371.53 452.14 L 374.00 453.98 L 376.47 454.00 L 378.93 454.00 L 381.40 454.00 L 383.87 454.00 L 386.33 454.00 L 388.80 454.00 L 391.27 454.00 L 393.73 454.00 L 396.20 454.00 L 398.67 454.00 L 401.13 454.00 L 403.60 454.00 L 406.07 454.00 L 408.53 454.00 L 411.00 454.00 L 413.47 454.00 L 415.93 454.00 L 418.40 454.00 L 420.87 454.00 L 423.33 454.00 L 425.80 454.00 L 428.27 454.00 L 430.73 454.00 L 433.20 454.00 L 435.67 454.00 L 438.13 454.00 L 440.60 454.00 L 443.07 454.00 L 445.53 454.00 L 448.00 454.00 L 450.47 454.00 L 452.93 454.00 L 455.40 454.00 L 457.87 454.00 L 460.33 454.00 L 462.80 454.00 L 465.27 454.00 L 467.73 454.00 L 470.20 454.00 L 472.67 454.00 L 475.13 454.00 L 477.60 454.00 L 480.07 454.00 L 482.53 454.00 L 485.00 454.00 L 487.47 454.00 L 489.93 454.00 L 492.40 454.00 L 494.87 454.00 L 497.33 454.00 L 499.80 454.00 L 502.27 454.00 L 504.73 454.00 L 507.20 454.00 L 509.67 454.00 L 512.13 454.00 L 514.60 454.00 L 517.07 454.00 L 519.53 454.00 L 522.00 454.00 L 524.47 454.00 L 526.93 454.00 L 529.40 454.00 L 531.87 454.00 L 534.33 454.00 L 536.80 454.00 L 539.27 454.00 L 541.73 454.00 L 544.20 454.00 L 546.67 454.00 L 549.13 454.00 L 551.60 454.00 L 554.07 454.00 L 556.53 454.00 L 559.00 454.00 L 561.47 454.00 L 563.93 454.00 L 566.40 454.00 L 568.87 454.00 L 571.33 454.00 L 573.80 454.00 L 576.27 454.00 L 578.73 454.00 L 581.20 454.00 L 583.67 454.00 L 586.13 454.00 L 588.60 454.00 L 591.07 454.00 L 593.53 454.00 L 596.00 454.00 L 598.47 454.00 L 600.93 454.00 L 603.40 454.00 L 605.87 454.00 L 608.33 454.00 L 610.80 454.00 L 613.27 454.00 L 615.73 454.00 L 618.20 454.00 L 620.67 454.00 L 623.13 454.00 L 625.60 454.00 L 628.07 454.00 L 630.53 454.00 L 633.00 454.00 L 635.47 454.00 L 637.93 454.00 L 640.40 454.00 L 642.87 454.00 L 645.33 454.00 L 647.80 454.00 L 650.27 454.00 L 652.73 454.00 L 655.20 454.00 L 657.67 454.00 L 660.13 454.00 L 662.60 454.00 L 665.07 454.00 L 667.53 454.00 L 670.00 454.00 L 672.47 454.00 L 674.93 454.00 L 677.40 454.00 L 679.87 454.00 L 682.33 454.00 L 684.80 454.00 L 687.27 454.00 L 689.73 454.00 L 692.20 454.00 L 694.67 454.00 L 697.13 454.00 L 699.60 454.00 L 702.07 454.00 L 704.53 454.00 L 707.00 454.00 L 709.47 454.00 L 711.93 454.00 L 714.40 454.00 L 716.87 454.00 L 719.33 454.00 L 721.80 454.00 L 724.27 454.00 L 726.73 454.00 L 729.20 454.00 L 731.67 454.00 L 734.13 454.00 L 736.60 454.00 L 739.07 454.00 L 741.53 454.00 L 744.00 454.00 L 746.47 454.00 L 748.93 454.00 L 751.40 454.00 L 753.87 454.00 L 756.33 454.00 L 758.80 454.00 L 761.27 454.00 L 763.73 454.00 L 766.20 454.00 L 768.67 454.00 L 771.13 454.00 L 773.60 454.00 L 776.07 454.00 L 778.53 454.00 L 781.00 454.00 L 783.47 454.00 L 785.93 454.00 L 788.40 454.00 L 790.87 454.00 L 793.33 454.00 L 795.80 454.00 L 798.27 454.00 L 800.73 454.00 L 803.20 454.00 L 805.67 454.00 L 808.13 454.00 L 810.60 454.00 L 813.07 454.00 L 815.53 454.00 L 818.00 454.00 L 820.47 454.00 L 822.93 454.00 L 825.40 454.00 L 827.87 454.00 L 830.33 454.00 L 832.80 454.00 L 835.27 454.00 L 837.73 454.00 L 840.20 454.00 L 842.67 454.00 L 845.13 454.00 L 847.60 454.00 L 850.07 454.00 L 852.53 454.00 L 855.00 454.00 L 857.47 454.00 L 859.93 454.00 L 862.40 454.00 L 864.87 454.00 L 867.33 454.00 L 869.80 454.00 L 872.27 454.00 L 874.73 454.00 L 877.20 454.00 L 879.67 454.00 L 882.13 454.00 L 884.60 454.00 L 887.07 454.00 L 889.53 454.00 L 892.00 454.00 L 894.47 454.00 L 896.93 454.00 L 899.40 454.00 L 901.87 454.00 L 904.33 454.00 L 906.80 454.00 L 909.27 454.00 L 911.73 454.00 L 914.20 454.00 L 916.67 454.00 L 919.13 454.00 L 921.60 454.00 L 924.07 454.00 L 926.53 454.00 L 929.00 454.00 L 931.47 454.00 L 933.93 454.00 L 936.40 454.00 L 938.87 454.00 L 941.33 453.55 L 943.80 449.52 L 946.27 440.86 L 948.73 429.52 L 951.20 418.46 L 953.67 409.49" fill="none" stroke="#2563eb" stroke-width="2.5" stroke-opacity="0.45" stroke-dasharray="12 7" stroke-linecap="round" stroke-linejoin="round"/>
<path d="M 956.13 384.83 L 958.60 376.93 L 961.07 369.00 L 963.53 361.06 L 966.00 353.09 L 966.00 386.57 L 963.53 394.54 L 961.07 402.48 L 958.60 410.41 L 956.13 418.31 Z" fill="#2563eb" fill-opacity="0.10" stroke="none" data-confidence="95"/>
<path d="M 956.13 401.57 L 958.60 393.67 L 961.07 385.74 L 963.53 377.80 L 966.00 369.83" fill="none" stroke="#2563eb" stroke-width="2.5" stroke-opacity="0.70" stroke-dasharray="6 4" stroke-linecap="round" stroke-linejoin="round"/>
<path d="M 78.00 319.37 L 80.47 327.17 L 82.93 334.96 L 85.40 342.72 L 87.87 350.46 L 90.33 358.18 L 92.80 365.87 L 95.27 373.55 L 97.73 381.20 L 100.20 388.85 L 100.20 422.33 L 97.73 414.68 L 95.27 407.03 L 92.80 399.35 L 90.33 391.66 L 87.87 383.94 L 85.40 376.20 L 82.93 368.44 L 80.47 360.65 L 78.00 352.85 Z" fill="#dc2626" fill-opacity="0.10" stroke="none" data-confidence="95"/>
<path d="M 78.00 336.11 L 80.47 343.91 L 82.93 351.70 L 85.40 359.46 L 87.87 367.20 L 90.33 374.92 L 92.80 382.61 L 95.27 390.29 L 97.73 397.94 L 100.20 405.59" fill="none" stroke="#dc2626" stroke-width="2.5" stroke-opacity="0.70" stroke-dasharray="6 4" stroke-linecap="round" stroke-linejoin="round"/>
<path d="M 102.67 353.26 L 105.13 363.23 L 107.60 374.80 L 110.07 385.28 L 112.53 391.84 L 115.00 393.72 L 117.47 393.74 L 119.93 393.74 L 122.40 393.74 L 124.87 393.74 L 127.33 393.74 L 129.80 393.74 L 132.27 393.74 L 134.73 393.74 L 137.20 393.74 L 139.67 393.74 L 142.13 393.74 L 144.60 393.74 L 147.07 393.74 L 149.53 393.74 L 152.00 393.74 L 154.47 393.74 L 156.93 393.74 L 159.40 393.74 L 161.87 393.74 L 164.33 393.74 L 166.80 393.74 L 169.27 393.74 L 171.73 393.74 L 174.20 393.74 L 176.67 393.74 L 179.13 393.74 L 181.60 393.74 L 184.07 393.74 L 186.53 393.74 L 189.00 393.74 L 191.47 393.74 L 193.93 393.74 L 196.40 393.74 L 198.87 393.74 L 201.33 393.74 L 203.80 393.74 L 206.27 393.74 L 208.73 393.74 L 211.20 393.74 L 213.67 393.74 L 216.13 393.74 L 218.60 393.74 L 221.07 393.74 L 223.53 393.74 L 226.00 393.74 L 228.47 393.74 L 230.93 393.74 L 233.40 393.74 L 235.87 393.74 L 238.33 393.74 L 240.80 393.74 L 243.27 393.74 L 245.73 393.74 L 248.20 393.74 L 250.67 393.74 L 253.13 393.74 L 255.60 393.74 L 258.07 393.74 L 260.53 393.74 L 263.00 393.74 L 265.47 393.74 L 267.93 393.74 L 270.40 393.74 L 272.87 393.74 L 275.33 393.74 L 277.80 393.74 L 280.27 393.74 L 282.73 393.74 L 285.20 393.74 L 287.67 393.74 L 290.13 393.74 L 292.60 393.74 L 295.07 393.74 L 297.53 393.74 L 300.00 393.74 L 302.47 393.74 L 304.93 393.74 L 307.40 393.74 L 309.87 393.74 L 312.33 393.74 L 314.80 393.74 L 317.27 393.74 L 319.73 393.74 L 322.20 393.74 L 324.67 393.74 L 327.13 393.74 L 329.60 393.74 L 332.07 393.74 L 334.53 393.74 L 337.00 393.74 L 339.47 393.74 L 341.93 393.74 L 344.40 393.74 L 346.87 393.74 L 349.33 393.74 L 351.80 393.74 L 354.27 393.74 L 356.73 393.74 L 359.20 393.74 L 361.67 393.74 L 364.13 393.74 L 366.60 393.74 L 369.07 393.74 L 371.53 393.74 L 374.00 393.74 L 376.47 393.74 L 378.93 393.74 L 381.40 393.74 L 383.87 393.74 L 386.33 393.74 L 388.80 393.74 L 391.27 393.74 L 393.73 393.74 L 396.20 393.74 L 398.67 393.74 L 401.13 393.74 L 403.60 393.74 L 406.07 393.74 L 408.53 393.74 L 411.00 393.74 L 413.47 393.74 L 415.93 393.74 L 418.40 393.74 L 420.87 393.74 L 423.33 393.74 L 425.80 393.74 L 428.27 393.74 L 430.73 393.74 L 433.20 393.74 L 435.67 393.74 L 438.13 393.74 L 440.60 393.74 L 443.07 393.74 L 445.53 393.74 L 448.00 393.74 L 450.47 393.74 L 452.93 393.74 L 455.40 393.74 L 457.87 393.74 L 460.33 393.74 L 462.80 393.74 L 465.27 393.74 L 467.73 393.74 L 470.20 393.74 L 472.67 393.74 L 475.13 393.74 L 477.60 393.74 L 480.07 393.74 L 482.53 393.74 L 485.00 393.74 L 487.47 393.74 L 489.93 393.74 L 492.40 393.74 L 494.87 393.74 L 497.33 393.74 L 499.80 393.74 L 502.27 393.74 L 504.73 393.74 L 507.20 393.74 L 509.67 393.74 L 512.13 393.74 L 514.60 393.74 L 517.07 393.74 L 519.53 393.74 L 522.00 393.74 L 524.47 393.74 L 526.93 393.74 L 529.40 393.74 L 531.87 393.74 L 534.33 393.74 L 536.80 393.74 L 539.27 393.74 L 541.73 393.74 L 544.20 393.74 L 546.67 393.74 L 549.13 393.74 L 551.60 393.74 L 554.07 393.74 L 556.53 393.74 L 559.00 393.74 L 561.47 393.74 L 563.93 393.74 L 566.40 393.74 L 568.87 393.74 L 571.33 393.74 L 573.80 393.74 L 576.27 393.74 L 578.73 393.74 L 581.20 393.74 L 583.67 393.74 L 586.13 393.74 L 588.60 393.74 L 591.07 393.74 L 593.53 393.74 L 596.00 393.74 L 598.47 393.74 L 600.93 393.74 L 603.40 393.74 L 605.87 393.74 L 608.33 393.74 L 610.80 393.74 L 613.27 393.74 L 615.73 393.74 L 618.20 393.74 L 620.67 393.74 L 623.13 393.74 L 625.60 393.74 L 628.07 393.74 L 630.53 393.74 L 633.00 393.74 L 635.47 393.74 L 637.93 393.74 L 640.40 393.74 L 642.87 393.74 L 645.33 393.74 L 647.80 393.74 L 650.27 393.74 L 652.73 393.74 L 655.20 393.74 L 657.67 393.74 L 660.13 393.74 L 662.60 393.74 L 665.07 393.74 L 667.53 393.74 L 670.00 393.74 L 672.47 393.27 L 674.93 389.18 L 677.40 380.38 L 679.87 368.95 L 682.33 357.94 L 684.80 349.16 L 684.80 454.00 L 682.33 454.00 L 679.87 454.00 L 677.40 454.00 L 674.93 454.00 L 672.47 454.00 L 670.00 454.00 L 667.53 454.00 L 665.07 454.00 L 662.60 454.00 L 660.13 454.00 L 657.67 454.00 L 655.20 454.00 L 652.73 454.00 L 650.27 454.00 L 647.80 454.00 L 645.33 454.00 L 642.87 454.00 L 640.40 454.00 L 637.93 454.00 L 635.47 454.00 L 633.00 454.00 L 630.53 454.00 L 628.07 454.00 L 625.60 454.00 L 623.13 454.00 L 620.67 454.00 L 618.20 454.00 L 615.73 454.00 L 613.27 454.00 L 610.80 454.00 L 608.33 454.00 L 605.87 454.00 L 603.40 454.00 L 600.93 454.00 L 598.47 454.00 L 596.00 454.00 L 593.53 454.00 L 591.07 454.00 L 588.60 454.00 L 586.13 454.00 L 583.67 454.00 L 581.20 454.00 L 578.73 454.00 L 576.27 454.00 L 573.80 454.00 L 571.33 454.00 L 568.87 454.00 L 566.40 454.00 L 563.93 454.00 L 561.47 454.00 L 559.00 454.00 L 556.53 454.00 L 554.07 454.00 L 551.60 454.00 L 549.13 454.00 L 546.67 454.00 L 544.20 454.00 L 541.73 454.00 L 539.27 454.00 L 536.80 454.00 L 534.33 454.00 L 531.87 454.00 L 529.40 454.00 L 526.93 454.00 L 524.47 454.00 L 522.00 454.00 L 519.53 454.00 L 517.07 454.00 L 514.60 454.00 L 512.13 454.00 L 509.67 454.00 L 507.20 454.00 L 504.73 454.00 L 502.27 454.00 L 499.80 454.00 L 497.33 454.00 L 494.87 454.00 L 492.40 454.00 L 489.93 454.00 L 487.47 454.00 L 485.00 454.00 L 482.53 454.00 L 480.07 454.00 L 477.60 454.00 L 475.13 454.00 L 472.67 454.00 L 470.20 454.00 L 467.73 454.00 L 465.27 454.00 L 462.80 454.00 L 460.33 454.00 L 457.87 454.00 L 455.40 454.00 L 452.93 454.00 L 450.47 454.00 L 448.00 454.00 L 445.53 454.00 L 443.07 454.00 L 440.60 454.00 L 438.13 454.00 L 435.67 454.00 L 433.20 454.00 L 430.73 454.00 L 428.27 454.00 L 425.80 454.00 L 423.33 454.00 L 420.87 454.00 L 418.40 454.00 L 415.93 454.00 L 413.47 454.00 L 411.00 454.00 L 408.53 454.00 L 406.07 454.00 L 403.60 454.00 L 401.13 454.00 L 398.67 454.00 L 396.20 454.00 L 393.73 454.00 L 391.27 454.00 L 388.80 454.00 L 386.33 454.00 L 383.87 454.00 L 381.40 454.00 L 378.93 454.00 L 376.47 454.00 L 374.00 454.00 L 371.53 454.00 L 369.07 454.00 L 366.60 454.00 L 364.13 454.00 L 361.67 454.00 L 359.20 454.00 L 356.73 454.00 L 354.27 454.00 L 351.80 454.00 L 349.33 454.00 L 346.87 454.00 L 344.40 454.00 L 341.93 454.00 L 339.47 454.00 L 337.00 454.00 L 334.53 454.00 L 332.07 454.00 L 329.60 454.00 L 327.13 454.00 L 324.67 454.00 L 322.20 454.00 L 319.73 454.00 L 317.27 454.00 L 314.80 454.00 L 312.33 454.00 L 309.87 454.00 L 307.40 454.00 L 304.93 454.00 L 302.47 454.00 L 300.00 454.00 L 297.53 454.00 L 295.07 454.00 L 292.60 454.00 L 290.13 454.00 L 287.67 454.00 L 285.20 454.00 L 282.73 454.00 L 280.27 454.00 L 277.80 454.00 L 275.33 454.00 L 272.87 454.00 L 270.40 454.00 L 267.93 454.00 L 265.47 454.00 L 263.00 454.00 L 260.53 454.00 L 258.07 454.00 L 255.60 454.00 L 253.13 454.00 L 250.67 454.00 L 248.20 454.00 L 245.73 454.00 L 243.27 454.00 L 240.80 454.00 L 238.33 454.00 L 235.87 454.00 L 233.40 454.00 L 230.93 454.00 L 228.47 454.00 L 226.00 454.00 L 223.53 454.00 L 221.07 454.00 L 218.60 454.00 L 216.13 454.00 L 213.67 454.00 L 211.20 454.00 L 208.73 454.00 L 206.27 454.00 L 203.80 454.00 L 201.33 454.00 L 198.87 454.00 L 196.40 454.00 L 193.93 454.00 L 191.47 454.00 L 189.00 454.00 L 186.53 454.00 L 184.07 454.00 L 181.60 454.00 L 179.13 454.00 L 176.67 454.00 L 174.20 454.00 L 171.73 454.00 L 169.27 454.00 L 166.80 454.00 L 164.33 454.00 L 161.87 454.00 L 159.40 454.00 L 156.93 454.00 L 154.47 454.00 L 152.00 454.00 L 149.53 454.00 L 147.07 454.00 L 144.60 454.00 L 142.13 454.00 L 139.67 454.00 L 137.20 454.00 L 134.73 454.00 L 132.27 454.00 L 129.80 454.00 L 127.33 454.00 L 124.87 454.00 L 122.40 454.00 L 119.93 454.00 L 117.47 454.00 L 115.00 454.00 L 112.53 454.00 L 110.07 454.00 L 107.60 454.00 L 105.13 454.00 L 102.67 454.00 Z" fill="#dc2626" fill-opacity="0.10" stroke="none" data-confidence="95"/>
<path d="M 102.67 413.53 L 105.13 423.49 L 107.60 435.07 L 110.07 445.55 L 112.53 452.11 L 115.00 453.98 L 117.47 454.00 L 119.93 454.00 L 122.40 454.00 L 124.87 454.00 L 127.33 454.00 L 129.80 454.00 L 132.27 454.00 L 134.73 454.00 L 137.20 454.00 L 139.67 454.00 L 142.13 454.00 L 144.60 454.00 L 147.07 454.00 L 149.53 454.00 L 152.00 454.00 L 154.47 454.00 L 156.93 454.00 L 159.40 454.00 L 161.87 454.00 L 164.33 454.00 L 166.80 454.00 L 169.27 454.00 L 171.73 454.00 L 174.20 454.00 L 176.67 454.00 L 179.13 454.00 L 181.60 454.00 L 184.07 454.00 L 186.53 454.00 L 189.00 454.00 L 191.47 454.00 L 193.93 454.00 L 196.40 454.00 L 198.87 454.00 L 201.33 454.00 L 203.80 454.00 L 206.27 454.00 L 208.73 454.00 L 211.20 454.00 L 213.67 454.00 L 216.13 454.00 L 218.60 454.00 L 221.07 454.00 L 223.53 454.00 L 226.00 454.00 L 228.47 454.00 L 230.93 454.00 L 233.40 454.00 L 235.87 454.00 L 238.33 454.00 L 240.80 454.00 L 243.27 454.00 L 245.73 454.00 L 248.20 454.00 L 250.67 454.00 L 253.13 454.00 L 255.60 454.00 L 258.07 454.00 L 260.53 454.00 L 263.00 454.00 L 265.47 454.00 L 267.93 454.00 L 270.40 454.00 L 272.87 454.00 L 275.33 454.00 L 277.80 454.00 L 280.27 454.00 L 282.73 454.00 L 285.20 454.00 L 287.67 454.00 L 290.13 454.00 L 292.60 454.00 L 295.07 454.00 L 297.53 454.00 L 300.00 454.00 L 302.47 454.00 L 304.93 454.00 L 307.40 454.00 L 309.87 454.00 L 312.33 454.00 L 314.80 454.00 L 317.27 454.00 L 319.73 454.00 L 322.20 454.00 L 324.67 454.00 L 327.13 454.00 L 329.60 454.00 L 332.07 454.00 L 334.53 454.00 L 337.00 454.00 L 339.47 454.00 L 341.93 454.00 L 344.40 454.00 L 346.87 454.00 L 349.33 454.00 L 351.80 454.00 L 354.27 454.00 L 356.73 454.00 L 359.20 454.00 L 361.67 454.00 L 364.13 454.00 L 366.60 454.00 L 369.07 454.00 L 371.53 454.00 L 374.00 454.00 L 376.47 454.00 L 378.93 454.00 L 381.40 454.00 L 383.87 454.00 L 386.33 454.00 L 388.80 454.00 L 391.27 454.00 L 393.73 454.00 L 396.20 454.00 L 398.67 454.00 L 401.13 454.00 L 403.60 454.00 L 406.07 454.00 L 408.53 454.00 L 411.00 454.00 L 413.47 454.00 L 415.93 454.00 L 418.40 454.00 L 420.87 454.00 L 423.33 454.00 L 425.80 454.00 L 428.27 454.00 L 430.73 454.00 L 433.20 454.00 L 435.67 454.00 L 438.13 454.00 L 440.60 454.00 L 443.07 454.00 L 445.53 454.00 L 448.00 454.00 L 450.47 454.00 L 452.93 454.00 L 455.40 454.00 L 457.87 454.00 L 460.33 454.00 L 462.80 454.00 L 465.27 454.00 L 467.73 454.00 L 470.20 454.00 L 472.67 454.00 L 475.13 454.00 L 477.60 454.00 L 480.07 454.00 L 482.53 454.00 L 485.00 454.00 L 487.47 454.00 L 489.93 454.00 L 492.40 454.00 L 494.87 454.00 L 497.33 454.00 L 499.80 454.00 L 502.27 454.00 L 504.73 454.00 L 507.20 454.00 L 509.67 454.00 L 512.13 454.00 L 514.60 454.00 L 517.07 454.00 L 519.53 454.00 L 522.00 454.00 L 524.47 454.00 L 526.93 454.00 L 529.40 454.00 L 531.87 454.00 L 534.33 454.00 L 536.80 454.00 L 539.27 454.00 L 541.73 454.00 L 544.20 454.00 L 546.67 454.00 L 549.13 454.00 L 551.60 454.00 L 554.07 454.00 L 556.53 454.00 L 559.00 454.00 L 561.47 454.00 L 563.93 454.00 L 566.40 454.00 L 568.87 454.00 L 571.33 454.00 L 573.80 454.00 L 576.27 454.00 L 578.73 454.00 L 581.20 454.00 L 583.67 454.00 L 586.13 454.00 L 588.60 454.00 L 591.07 454.00 L 593.53 454.00 L 596.00 454.00 L 598.47 454.00 L 600.93 454.00 L 603.40 454.00 L 605.87 454.00 L 608.33 454.00 L 610.80 454.00 L 613.27 454.00 L 615.73 454.00 L 618.20 454.00 L 620.67 454.00 L 623.13 454.00 L 625.60 454.00 L 628.07 454.00 L 630.53 454.00 L 633.00 454.00 L 635.47 454.00 L 637.93 454.00 L 640.40 454.00 L 642.87 454.00 L 645.33 454.00 L 647.80 454.00 L 650.27 454.00 L 652.73 454.00 L 655.20 454.00 L 657.67 454.00 L 660.13 454.00 L 662.60 454.00 L 665.07 454.00 L 667.53 454.00 L 670.00 454.00 L 672.47 453.54 L 674.93 449.44 L 677.40 440.64 L 679.87 429.22 L 682.33 418.20 L 684.80 409.42" fill="none" stroke="#dc2626" stroke-width="2.5" stroke-opacity="0.45" stroke-dasharray="12 7" stroke-linecap="round" stroke-linejoin="round"/>
<path d="M 687.27 385.03 L 689.73 377.38 L 692.20 369.71 L 694.67 362.03 L 697.13 354.33 L 699.60 346.60 L 702.07 338.84 L 704.53 331.07 L 707.00 323.27 L 709.47 315.46 L 711.93 307.64 L 714.40 299.81 L 716.87 291.99 L 719.33 284.18 L 721.80 276.39 L 724.27 268.63 L 726.73 260.92 L 729.20 253.26 L 731.67 245.66 L 734.13 238.15 L 736.60 230.72 L 739.07 223.40 L 741.53 216.20 L 744.00 209.13 L 746.47 202.20 L 748.93 195.43 L 751.40 188.84 L 753.87 182.42 L 756.33 176.20 L 758.80 170.20 L 761.27 164.40 L 763.73 158.84 L 766.20 153.52 L 768.67 148.45 L 771.13 143.64 L 773.60 139.09 L 776.07 134.82 L 778.53 130.82 L 781.00 127.10 L 783.47 123.66 L 785.93 120.51 L 788.40 117.64 L 790.87 115.05 L 793.33 112.74 L 795.80 110.69 L 798.27 108.92 L 800.73 107.39 L 803.20 106.11 L 805.67 105.06 L 808.13 104.22 L 810.60 103.58 L 813.07 103.11 L 815.53 102.79 L 818.00 102.60 L 820.47 102.50 L 822.93 102.46 L 822.93 135.94 L 820.47 135.98 L 818.00 136.08 L 815.53 136.27 L 813.07 136.59 L 810.60 137.06 L 808.13 137.70 L 805.67 138.54 L 803.20 139.59 L 800.73 140.87 L 798.27 142.40 L 795.80 144.17 L 793.33 146.22 L 790.87 148.53 L 788.40 151.12 L 785.93 153.99 L 783.47 157.14 L 781.00 160.58 L 778.53 164.30 L 776.07 168.30 L 773.60 172.57 L 771.13 177.12 L 768.67 181.93 L 766.20 187.00 L 763.73 192.32 L 761.27 197.88 L 758.80 203.68 L 756.33 209.68 L 753.87 215.90 L 751.40 222.32 L 748.93 228.91 L 746.47 235.68 L 744.00 242.61 L 741.53 249.68 L 739.07 256.88 L 736.60 264.20 L 734.13 271.63 L 731.67 279.14 L 729.20 286.74 L 726.73 294.40 L 724.27 302.11 L 721.80 309.87 L 719.33 317.66 L 716.87 325.47 L 714.40 333.29 L 711.93 341.12 L 709.47 348.94 L 707.00 356.75 L 704.53 364.55 L 702.07 372.32 L 699.60 380.08 L 697.13 387.81 L 694.67 395.51 L 692.20 403.19 L 689.73 410.86 L 687.27 418.51 Z" fill="#dc2626" fill-opacity="0.10" stroke="none" data-confidence="95"/>
<path d="M 687.27 401.77 L 689.73 394.12 L 692.20 386.45 L 694.67 378.77 L 697.13 371.07 L 699.60 363.34 L 702.07 355.58 L 704.53 347.81 L 707.00 340.01 L 709.47 332.20 L 711.93 324.38 L 714.40 316.55 L 716.87 308.73 L 719.33 300.92 L 721.80 293.13 L 724.27 285.37 L 726.73 277.66 L 729.20 270.00 L 731.67 262.40 L 734.13 254.89 L 736.60 247.46 L 739.07 240.14 L 741.53 232.94 L 744.00 225.87 L 746.47 218.94 L 748.93 212.17 L 751.40 205.58 L 753.87 199.16 L 756.33 192.94 L 758.80 186.94 L 761.27 181.14 L 763.73 175.58 L 766.20 170.26 L 768.67 165.19 L 771.13 160.38 L 773.60 155.83 L 776.07 151.56 L 778.53 147.56 L 781.00 143.84 L 783.47 140.40 L 785.93 137.25 L 788.40 134.38 L 790.87 131.79 L 793.33 129.48 L 795.80 127.43 L 798.27 125.66 L 800.73 124.13 L 803.20 122.85 L 805.67 121.80 L 808.13 120.96 L 810.60 120.32 L 813.07 119.85 L 815.53 119.53 L 818.00 119.34 L 820.47 119.24 L 822.93 119.20" fill="none" stroke="#dc2626" stroke-width="2.5" stroke-opacity="0.70" stroke-dasharray="6 4" stroke-linecap="round" stroke-linejoin="round"/>
<path d="M 825.40 82.00 L 827.87 82.00 L 830.33 82.00 L 832.80 82.00 L 835.27 82.00 L 837.73 82.00 L 840.20 82.00 L 842.67 82.00 L 845.13 82.00 L 847.60 82.00 L 847.60 179.46 L 845.13 179.46 L 842.67 179.46 L 840.20 179.46 L 837.73 179.46 L 835.27 179.46 L 832.80 179.46 L 830.33 179.46 L 827.87 179.46 L 825.40 179.46 Z" fill="#dc2626" fill-opacity="0.10" stroke="none" data-confidence="95"/>
<path d="M 825.40 119.20 L 827.87 119.20 L 830.33 119.20 L 832.80 119.20 L 835.27 119.20 L 837.73 119.20 L 840.20 119.20 L 842.67 119.20 L 845.13 119.20 L 847.60 119.20" fill="none" stroke="#dc2626" stroke-width="2.5" stroke-opacity="0.45" stroke-dasharray="12 7" stroke-linecap="round" stroke-linejoin="round"/>
<path d="M 850.07 102.46 L 852.53 102.47 L 855.00 102.54 L 857.47 102.68 L 859.93 102.93 L 862.40 103.33 L 864.87 103.88 L 867.33 104.62 L 869.80 105.56 L 872.27 106.72 L 874.73 108.12 L 877.20 109.77 L 879.67 111.68 L 882.13 113.86 L 884.60 116.31 L 887.07 119.04 L 889.53 122.05 L 892.00 125.34 L 894.47 128.92 L 896.93 132.78 L 899.40 136.92 L 901.87 141.33 L 904.33 146.02 L 906.80 150.96 L 909.27 156.15 L 911.73 161.60 L 914.20 167.27 L 916.67 173.17 L 919.13 179.29 L 921.60 185.61 L 924.07 192.11 L 926.53 198.80 L 929.00 205.65 L 931.47 212.65 L 933.93 219.78 L 936.40 227.05 L 938.87 234.42 L 941.33 241.89 L 943.80 249.45 L 946.27 257.08 L 948.73 264.77 L 951.20 272.51 L 953.67 280.28 L 956.13 288.08 L 958.60 295.90 L 961.07 303.73 L 963.53 311.55 L 966.00 319.37 L 966.00 352.85 L 963.53 345.03 L 961.07 337.21 L 958.60 329.38 L 956.13 321.56 L 953.67 313.76 L 951.20 305.99 L 948.73 298.25 L 946.27 290.56 L 943.80 282.93 L 941.33 275.37 L 938.87 267.90 L 936.40 260.53 L 933.93 253.26 L 931.47 246.13 L 929.00 239.13 L 926.53 232.28 L 924.07 225.59 L 921.60 219.09 L 919.13 212.77 L 916.67 206.65 L 914.20 200.75 L 911.73 195.08 L 909.27 189.63 L 906.80 184.44 L 904.33 179.50 L 901.87 174.81 L 899.40 170.40 L 896.93 166.26 L 894.47 162.40 L 892.00 158.82 L 889.53 155.53 L 887.07 152.52 L 884.60 149.79 L 882.13 147.34 L 879.67 145.16 L 877.20 143.25 L 874.73 141.60 L 872.27 140.20 L 869.80 139.04 L 867.33 138.10 L 864.87 137.36 L 862.40 136.81 L 859.93 136.41 L 857.47 136.16 L 855.00 136.02 L 852.53 135.95 L 850.07 135.94 Z" fill="#dc2626" fill-opacity="0.10" stroke="none" data-confidence="95"/>
<path d="M 850.07 119.20 L 852.53 119.21 L 855.00 119.28 L 857.47 119.42 L 859.93 119.67 L 862.40 120.07 L 864.87 120.62 L 867.33 121.36 L 869.80 122.30 L 872.27 123.46 L 874.73 124.86 L 877.20 126.51 L 879.67 128.42 L 882.13 130.60 L 884.60 133.05 L 887.07 135.78 L 889.53 138.79 L 892.00 142.08 L 894.47 145.66 L 896.93 149.52 L 899.40 153.66 L 901.87 158.07 L 904.33 162.76 L 906.80 167.70 L 909.27 172.89 L 911.73 178.34 L 914.20 184.01 L 916.67 189.91 L 919.13 196.03 L 921.60 202.35 L 924.07 208.85 L 926.53 215.54 L 929.00 222.39 L 931.47 229.39 L 933.93 236.52 L 936.40 243.79 L 938.87 251.16 L 941.33 258.63 L 943.80 266.19 L 946.27 273.82 L 948.73 281.51 L 951.20 289.25 L 953.67 297.02 L 956.13 304.82 L 958.60 312.64 L 961.07 320.47 L 963.53 328.29 L 966.00 336.11" fill="none" stroke="#dc2626" stroke-width="2.5" stroke-opacity="0.70" stroke-dasharray="6 4" stroke-linecap="round" stroke-linejoin="round"/>
<rect x="78" y="520" width="888" height="82" fill="#f9fafb" stroke="#d1d5db"/>
<line x1="78" y1="561.00" x2="966" y2="561.00" stroke="#9ca3af"/>
<text x="78" y="512" font-family="Arial, sans-serif" font-size="13" font-weight="700" fill="#111827">Velocity (in/deg)</text>
<text x="66" y="532" text-anchor="end" font-family="Arial, sans-serif" font-size="10" fill="#374151">0.00629</text>
<text x="66" y="602" text-anchor="end" font-family="Arial, sans-serif" font-size="10" fill="#374151">-0.00629</text>
<path d="M 78.00 533.03 L 80.47 532.94 L 82.93 532.85 L 85.40 532.78 L 87.87 532.71 L 90.33 532.67 L 92.80 532.65 L 95.27 532.66 L 97.73 532.70 L 100.20 532.78 L 102.67 532.90 L 105.13 533.06 L 107.60 533.26 L 110.07 533.51 L 112.53 533.81 L 115.00 534.16 L 117.47 534.56 L 119.93 535.01 L 122.40 535.52 L 124.87 536.07 L 127.33 536.68 L 129.80 537.34 L 132.27 538.04 L 134.73 538.80 L 137.20 539.59 L 139.67 540.44 L 142.13 541.32 L 144.60 542.24 L 147.07 543.19 L 149.53 544.17 L 152.00 545.18 L 154.47 546.21 L 156.93 547.26 L 159.40 548.31 L 161.87 549.37 L 164.33 550.43 L 166.80 551.49 L 169.27 552.53 L 171.73 553.55 L 174.20 554.54 L 176.67 555.49 L 179.13 556.40 L 181.60 557.25 L 184.07 558.04 L 186.53 558.76 L 189.00 559.40 L 191.47 559.95 L 193.93 560.39 L 196.40 560.72 L 198.87 560.93" fill="none" stroke="#2563eb" stroke-width="1.7" stroke-opacity="0.70" stroke-dasharray="6 4" stroke-linecap="round" stroke-linejoin="round"/>
<path d="M 201.33 561.00 L 203.80 561.00 L 206.27 561.00 L 208.73 561.00 L 211.20 561.00 L 213.67 561.00 L 216.13 561.00 L 218.60 561.00 L 221.07 561.00 L 223.53 561.00" fill="none" stroke="#2563eb" stroke-width="1.7" stroke-opacity="0.45" stroke-dasharray="12 7" stroke-linecap="round" stroke-linejoin="round"/>
<path d="M 226.00 561.02 L 228.47 561.16 L 230.93 561.43 L 233.40 561.82 L 235.87 562.31 L 238.33 562.91 L 240.80 563.59 L 243.27 564.34 L 245.73 565.17 L 248.20 566.05 L 250.67 566.98 L 253.13 567.95 L 255.60 568.96 L 258.07 569.99 L 260.53 571.04 L 263.00 572.10 L 265.47 573.16 L 267.93 574.22 L 270.40 575.27 L 272.87 576.31 L 275.33 577.33 L 277.80 578.32 L 280.27 579.29 L 282.73 580.23 L 285.20 581.13 L 287.67 581.99 L 290.13 582.81 L 292.60 583.59 L 295.07 584.32 L 297.53 585.00 L 300.00 585.63 L 302.47 586.21 L 304.93 586.74 L 307.40 587.22 L 309.87 587.64 L 312.33 588.02 L 314.80 588.34 L 317.27 588.62 L 319.73 588.85 L 322.20 589.03 L 324.67 589.17 L 327.13 589.27 L 329.60 589.33 L 332.07 589.35 L 334.53 589.34 L 337.00 589.31 L 339.47 589.26 L 341.93 589.19 L 344.40 589.10 L 346.87 589.01 L 349.33 588.92 L 351.80 588.84 L 354.27 588.77 L 356.73 588.71 L 359.20 588.69" fill="none" stroke="#2563eb" stroke-width="1.7" stroke-opacity="0.70" stroke-dasharray="6 4" stroke-linecap="round" stroke-linejoin="round"/>
<path d="M 361.67 592.28 L 364.13 600.05 L 366.60 601.20 L 369.07 591.71 L 371.53 574.97 L 374.00 561.78 L 376.47 561.00 L 378.93 561.00 L 381.40 561.00 L 383.87 561.00 L 386.33 561.00 L 388.80 561.00 L 391.27 561.00 L 393.73 561.00 L 396.20 561.00 L 398.67 561.00 L 401.13 561.00 L 403.60 561.00 L 406.07 561.00 L 408.53 561.00 L 411.00 561.00 L 413.47 561.00 L 415.93 561.00 L 418.40 561.00 L 420.87 561.00 L 423.33 561.00 L 425.80 561.00 L 428.27 561.00 L 430.73 561.00 L 433.20 561.00 L 435.67 561.00 L 438.13 561.00 L 440.60 561.00 L 443.07 561.00 L 445.53 561.00 L 448.00 561.00 L 450.47 561.00 L 452.93 561.00 L 455.40 561.00 L 457.87 561.00 L 460.33 561.00 L 462.80 561.00 L 465.27 561.00 L 467.73 561.00 L 470.20 561.00 L 472.67 561.00 L 475.13 561.00 L 477.60 561.00 L 480.07 561.00 L 482.53 561.00 L 485.00 561.00 L 487.47 561.00 L 489.93 561.00 L 492.40 561.00 L 494.87 561.00 L 497.33 561.00 L 499.80 561.00 L 502.27 561.00 L 504.73 561.00 L 507.20 561.00 L 509.67 561.00 L 512.13 561.00 L 514.60 561.00 L 517.07 561.00 L 519.53 561.00 L 522.00 561.00 L 524.47 561.00 L 526.93 561.00 L 529.40 561.00 L 531.87 561.00 L 534.33 561.00 L 536.80 561.00 L 539.27 561.00 L 541.73 561.00 L 544.20 561.00 L 546.67 561.00 L 549.13 561.00 L 551.60 561.00 L 554.07 561.00 L 556.53 561.00 L 559.00 561.00 L 561.47 561.00 L 563.93 561.00 L 566.40 561.00 L 568.87 561.00 L 571.33 561.00 L 573.80 561.00 L 576.27 561.00 L 578.73 561.00 L 581.20 561.00 L 583.67 561.00 L 586.13 561.00 L 588.60 561.00 L 591.07 561.00 L 593.53 561.00 L 596.00 561.00 L 598.47 561.00 L 600.93 561.00 L 603.40 561.00 L 605.87 561.00 L 608.33 561.00 L 610.80 561.00 L 613.27 561.00 L 615.73 561.00 L 618.20 561.00 L 620.67 561.00 L 623.13 561.00 L 625.60 561.00 L 628.07 561.00 L 630.53 561.00 L 633.00 561.00 L 635.47 561.00 L 637.93 561.00 L 640.40 561.00 L 642.87 561.00 L 645.33 561.00 L 647.80 561.00 L 650.27 561.00 L 652.73 561.00 L 655.20 561.00 L 657.67 561.00 L 660.13 561.00 L 662.60 561.00 L 665.07 561.00 L 667.53 561.00 L 670.00 561.00 L 672.47 561.00 L 674.93 561.00 L 677.40 561.00 L 679.87 561.00 L 682.33 561.00 L 684.80 561.00 L 687.27 561.00 L 689.73 561.00 L 692.20 561.00 L 694.67 561.00 L 697.13 561.00 L 699.60 561.00 L 702.07 561.00 L 704.53 561.00 L 707.00 561.00 L 709.47 561.00 L 711.93 561.00 L 714.40 561.00 L 716.87 561.00 L 719.33 561.00 L 721.80 561.00 L 724.27 561.00 L 726.73 561.00 L 729.20 561.00 L 731.67 561.00 L 734.13 561.00 L 736.60 561.00 L 739.07 561.00 L 741.53 561.00 L 744.00 561.00 L 746.47 561.00 L 748.93 561.00 L 751.40 561.00 L 753.87 561.00 L 756.33 561.00 L 758.80 561.00 L 761.27 561.00 L 763.73 561.00 L 766.20 561.00 L 768.67 561.00 L 771.13 561.00 L 773.60 561.00 L 776.07 561.00 L 778.53 561.00 L 781.00 561.00 L 783.47 561.00 L 785.93 561.00 L 788.40 561.00 L 790.87 561.00 L 793.33 561.00 L 795.80 561.00 L 798.27 561.00 L 800.73 561.00 L 803.20 561.00 L 805.67 561.00 L 808.13 561.00 L 810.60 561.00 L 813.07 561.00 L 815.53 561.00 L 818.00 561.00 L 820.47 561.00 L 822.93 561.00 L 825.40 561.00 L 827.87 561.00 L 830.33 561.00 L 832.80 561.00 L 835.27 561.00 L 837.73 561.00 L 840.20 561.00 L 842.67 561.00 L 845.13 561.00 L 847.60 561.00 L 850.07 561.00 L 852.53 561.00 L 855.00 561.00 L 857.47 561.00 L 859.93 561.00 L 862.40 561.00 L 864.87 561.00 L 867.33 561.00 L 869.80 561.00 L 872.27 561.00 L 874.73 561.00 L 877.20 561.00 L 879.67 561.00 L 882.13 561.00 L 884.60 561.00 L 887.07 561.00 L 889.53 561.00 L 892.00 561.00 L 894.47 561.00 L 896.93 561.00 L 899.40 561.00 L 901.87 561.00 L 904.33 561.00 L 906.80 561.00 L 909.27 561.00 L 911.73 561.00 L 914.20 561.00 L 916.67 561.00 L 919.13 561.00 L 921.60 561.00 L 924.07 561.00 L 926.53 561.00 L 929.00 561.00 L 931.47 561.00 L 933.93 561.00 L 936.40 561.00 L 938.87 561.00 L 941.33 555.03 L 943.80 538.26 L 946.27 524.26 L 948.73 520.13 L 951.20 525.55 L 953.67 532.82" fill="none" stroke="#2563eb" stroke-width="1.7" stroke-opacity="0.45" stroke-dasharray="12 7" stroke-linecap="round" stroke-linejoin="round"/>
<path d="M 956.13 533.30 L 958.60 533.26 L 961.07 533.20 L 963.53 533.12 L 966.00 533.03" fill="none" stroke="#2563eb" stroke-width="1.7" stroke-opacity="0.70" stroke-dasharray="6 4" stroke-linecap="round" stroke-linejoin="round"/>
<path d="M 78.00 588.38 L 80.47 588.32 L 82.93 588.25 L 85.40 588.17 L 87.87 588.09 L 90.33 588.00 L 92.80 587.92 L 95.27 587.86 L 97.73 587.81 L 100.20 587.79" fill="none" stroke="#dc2626" stroke-width="1.7" stroke-opacity="0.70" stroke-dasharray="6 4" stroke-linecap="round" stroke-linejoin="round"/>
<path d="M 102.67 591.58 L 105.13 599.91 L 107.60 601.52 L 110.07 592.16 L 112.53 575.24 L 115.00 561.79 L 117.47 561.00 L 119.93 561.00 L 122.40 561.00 L 124.87 561.00 L 127.33 561.00 L 129.80 561.00 L 132.27 561.00 L 134.73 561.00 L 137.20 561.00 L 139.67 561.00 L 142.13 561.00 L 144.60 561.00 L 147.07 561.00 L 149.53 561.00 L 152.00 561.00 L 154.47 561.00 L 156.93 561.00 L 159.40 561.00 L 161.87 561.00 L 164.33 561.00 L 166.80 561.00 L 169.27 561.00 L 171.73 561.00 L 174.20 561.00 L 176.67 561.00 L 179.13 561.00 L 181.60 561.00 L 184.07 561.00 L 186.53 561.00 L 189.00 561.00 L 191.47 561.00 L 193.93 561.00 L 196.40 561.00 L 198.87 561.00 L 201.33 561.00 L 203.80 561.00 L 206.27 561.00 L 208.73 561.00 L 211.20 561.00 L 213.67 561.00 L 216.13 561.00 L 218.60 561.00 L 221.07 561.00 L 223.53 561.00 L 226.00 561.00 L 228.47 561.00 L 230.93 561.00 L 233.40 561.00 L 235.87 561.00 L 238.33 561.00 L 240.80 561.00 L 243.27 561.00 L 245.73 561.00 L 248.20 561.00 L 250.67 561.00 L 253.13 561.00 L 255.60 561.00 L 258.07 561.00 L 260.53 561.00 L 263.00 561.00 L 265.47 561.00 L 267.93 561.00 L 270.40 561.00 L 272.87 561.00 L 275.33 561.00 L 277.80 561.00 L 280.27 561.00 L 282.73 561.00 L 285.20 561.00 L 287.67 561.00 L 290.13 561.00 L 292.60 561.00 L 295.07 561.00 L 297.53 561.00 L 300.00 561.00 L 302.47 561.00 L 304.93 561.00 L 307.40 561.00 L 309.87 561.00 L 312.33 561.00 L 314.80 561.00 L 317.27 561.00 L 319.73 561.00 L 322.20 561.00 L 324.67 561.00 L 327.13 561.00 L 329.60 561.00 L 332.07 561.00 L 334.53 561.00 L 337.00 561.00 L 339.47 561.00 L 341.93 561.00 L 344.40 561.00 L 346.87 561.00 L 349.33 561.00 L 351.80 561.00 L 354.27 561.00 L 356.73 561.00 L 359.20 561.00 L 361.67 561.00 L 364.13 561.00 L 366.60 561.00 L 369.07 561.00 L 371.53 561.00 L 374.00 561.00 L 376.47 561.00 L 378.93 561.00 L 381.40 561.00 L 383.87 561.00 L 386.33 561.00 L 388.80 561.00 L 391.27 561.00 L 393.73 561.00 L 396.20 561.00 L 398.67 561.00 L 401.13 561.00 L 403.60 561.00 L 406.07 561.00 L 408.53 561.00 L 411.00 561.00 L 413.47 561.00 L 415.93 561.00 L 418.40 561.00 L 420.87 561.00 L 423.33 561.00 L 425.80 561.00 L 428.27 561.00 L 430.73 561.00 L 433.20 561.00 L 435.67 561.00 L 438.13 561.00 L 440.60 561.00 L 443.07 561.00 L 445.53 561.00 L 448.00 561.00 L 450.47 561.00 L 452.93 561.00 L 455.40 561.00 L 457.87 561.00 L 460.33 561.00 L 462.80 561.00 L 465.27 561.00 L 467.73 561.00 L 470.20 561.00 L 472.67 561.00 L 475.13 561.00 L 477.60 561.00 L 480.07 561.00 L 482.53 561.00 L 485.00 561.00 L 487.47 561.00 L 489.93 561.00 L 492.40 561.00 L 494.87 561.00 L 497.33 561.00 L 499.80 561.00 L 502.27 561.00 L 504.73 561.00 L 507.20 561.00 L 509.67 561.00 L 512.13 561.00 L 514.60 561.00 L 517.07 561.00 L 519.53 561.00 L 522.00 561.00 L 524.47 561.00 L 526.93 561.00 L 529.40 561.00 L 531.87 561.00 L 534.33 561.00 L 536.80 561.00 L 539.27 561.00 L 541.73 561.00 L 544.20 561.00 L 546.67 561.00 L 549.13 561.00 L 551.60 561.00 L 554.07 561.00 L 556.53 561.00 L 559.00 561.00 L 561.47 561.00 L 563.93 561.00 L 566.40 561.00 L 568.87 561.00 L 571.33 561.00 L 573.80 561.00 L 576.27 561.00 L 578.73 561.00 L 581.20 561.00 L 583.67 561.00 L 586.13 561.00 L 588.60 561.00 L 591.07 561.00 L 593.53 561.00 L 596.00 561.00 L 598.47 561.00 L 600.93 561.00 L 603.40 561.00 L 605.87 561.00 L 608.33 561.00 L 610.80 561.00 L 613.27 561.00 L 615.73 561.00 L 618.20 561.00 L 620.67 561.00 L 623.13 561.00 L 625.60 561.00 L 628.07 561.00 L 630.53 561.00 L 633.00 561.00 L 635.47 561.00 L 637.93 561.00 L 640.40 561.00 L 642.87 561.00 L 645.33 561.00 L 647.80 561.00 L 650.27 561.00 L 652.73 561.00 L 655.20 561.00 L 657.67 561.00 L 660.13 561.00 L 662.60 561.00 L 665.07 561.00 L 667.53 561.00 L 670.00 561.00 L 672.47 554.91 L 674.93 537.86 L 677.40 523.82 L 679.87 520.00 L 682.33 525.98 L 684.80 533.69" fill="none" stroke="#dc2626" stroke-width="1.7" stroke-opacity="0.45" stroke-dasharray="12 7" stroke-linecap="round" stroke-linejoin="round"/>
<path d="M 687.27 534.20 L 689.73 534.17 L 692.20 534.11 L 694.67 534.04 L 697.13 533.96 L 699.60 533.87 L 702.07 533.79 L 704.53 533.71 L 707.00 533.65 L 709.47 533.60 L 711.93 533.57 L 714.40 533.57 L 716.87 533.60 L 719.33 533.66 L 721.80 533.75 L 724.27 533.88 L 726.73 534.05 L 729.20 534.26 L 731.67 534.51 L 734.13 534.81 L 736.60 535.16 L 739.07 535.54 L 741.53 535.98 L 744.00 536.46 L 746.47 537.00 L 748.93 537.57 L 751.40 538.19 L 753.87 538.86 L 756.33 539.57 L 758.80 540.32 L 761.27 541.10 L 763.73 541.93 L 766.20 542.79 L 768.67 543.68 L 771.13 544.59 L 773.60 545.53 L 776.07 546.49 L 778.53 547.47 L 781.00 548.46 L 783.47 549.45 L 785.93 550.44 L 788.40 551.43 L 790.87 552.41 L 793.33 553.37 L 795.80 554.31 L 798.27 555.22 L 800.73 556.10 L 803.20 556.92 L 805.67 557.70 L 808.13 558.41 L 810.60 559.06 L 813.07 559.63 L 815.53 560.11 L 818.00 560.50 L 820.47 560.79 L 822.93 560.95" fill="none" stroke="#dc2626" stroke-width="1.7" stroke-opacity="0.70" stroke-dasharray="6 4" stroke-linecap="round" stroke-linejoin="round"/>
<path d="M 825.40 561.00 L 827.87 561.00 L 830.33 561.00 L 832.80 561.00 L 835.27 561.00 L 837.73 561.00 L 840.20 561.00 L 842.67 561.00 L 845.13 561.00 L 847.60 561.00" fill="none" stroke="#dc2626" stroke-width="1.7" stroke-opacity="0.45" stroke-dasharray="12 7" stroke-linecap="round" stroke-linejoin="round"/>
<path d="M 850.07 561.01 L 852.53 561.11 L 855.00 561.34 L 857.47 561.68 L 859.93 562.12 L 862.40 562.64 L 864.87 563.25 L 867.33 563.94 L 869.80 564.68 L 872.27 565.48 L 874.73 566.34 L 877.20 567.23 L 879.67 568.15 L 882.13 569.10 L 884.60 570.07 L 887.07 571.06 L 889.53 572.05 L 892.00 573.05 L 894.47 574.04 L 896.93 575.02 L 899.40 575.99 L 901.87 576.94 L 904.33 577.87 L 906.80 578.77 L 909.27 579.65 L 911.73 580.49 L 914.20 581.29 L 916.67 582.06 L 919.13 582.79 L 921.60 583.48 L 924.07 584.12 L 926.53 584.72 L 929.00 585.28 L 931.47 585.78 L 933.93 586.24 L 936.40 586.66 L 938.87 587.02 L 941.33 587.34 L 943.80 587.62 L 946.27 587.85 L 948.73 588.04 L 951.20 588.19 L 953.67 588.30 L 956.13 588.38 L 958.60 588.42 L 961.07 588.43 L 963.53 588.42 L 966.00 588.38" fill="none" stroke="#dc2626" stroke-width="1.7" stroke-opacity="0.70" stroke-dasharray="6 4" stroke-linecap="round" stroke-linejoin="round"/>
<rect x="78" y="632" width="888" height="82" fill="#f9fafb" stroke="#d1d5db"/>
<line x1="78" y1="673.00" x2="966" y2="673.00" stroke="#9ca3af"/>
<text x="78" y="624" font-family="Arial, sans-serif" font-size="13" font-weight="700" fill="#111827">Acceleration (in/deg^2)</text>
<text x="66" y="644" text-anchor="end" font-family="Arial, sans-serif" font-size="10" fill="#374151">0.00135</text>
<text x="66" y="714" text-anchor="end" font-family="Arial, sans-serif" font-size="10" fill="#374151">-0.00135</text>
<path d="M 78.00 672.79 L 80.47 672.79 L 82.93 672.81 L 85.40 672.83 L 87.87 672.87 L 90.33 672.92 L 92.80 672.99 L 95.27 673.06 L 97.73 673.14 L 100.20 673.23 L 102.67 673.32 L 105.13 673.42 L 107.60 673.53 L 110.07 673.64 L 112.53 673.75 L 115.00 673.87 L 117.47 673.99 L 119.93 674.11 L 122.40 674.23 L 124.87 674.35 L 127.33 674.47 L 129.80 674.58 L 132.27 674.69 L 134.73 674.80 L 137.20 674.90 L 139.67 675.00 L 142.13 675.09 L 144.60 675.17 L 147.07 675.25 L 149.53 675.31 L 152.00 675.37 L 154.47 675.41 L 156.93 675.44 L 159.40 675.46 L 161.87 675.47 L 164.33 675.46 L 166.80 675.43 L 169.27 675.39 L 171.73 675.33 L 174.20 675.26 L 176.67 675.16 L 179.13 675.05 L 181.60 674.91 L 184.07 674.76 L 186.53 674.58 L 189.00 674.38 L 191.47 674.15 L 193.93 673.90 L 196.40 673.63 L 198.87 673.33 L 201.33 673.00 L 203.80 673.00 L 206.27 673.00 L 208.73 673.00 L 211.20 673.00 L 213.67 673.00 L 216.13 673.00 L 218.60 673.00 L 221.07 673.00 L 223.53 673.00 L 226.00 673.16 L 228.47 673.48 L 230.93 673.77 L 233.40 674.03 L 235.87 674.27 L 238.33 674.48 L 240.80 674.67 L 243.27 674.84 L 245.73 674.98 L 248.20 675.11 L 250.67 675.21 L 253.13 675.30 L 255.60 675.36 L 258.07 675.41 L 260.53 675.45 L 263.00 675.46 L 265.47 675.47 L 267.93 675.45 L 270.40 675.43 L 272.87 675.39 L 275.33 675.34 L 277.80 675.28 L 280.27 675.21 L 282.73 675.13 L 285.20 675.05 L 287.67 674.95 L 290.13 674.85 L 292.60 674.75 L 295.07 674.64 L 297.53 674.52 L 300.00 674.41 L 302.47 674.29 L 304.93 674.17 L 307.40 674.05 L 309.87 673.93 L 312.33 673.81 L 314.80 673.70 L 317.27 673.58 L 319.73 673.47 L 322.20 673.37 L 324.67 673.27 L 327.13 673.18 L 329.60 673.10 L 332.07 673.02 L 334.53 672.95 L 337.00 672.90 L 339.47 672.85 L 341.93 672.82 L 344.40 672.80 L 346.87 672.79 L 349.33 672.79 L 351.80 672.82 L 354.27 672.85 L 356.73 672.91 L 359.20 672.98 L 361.67 691.33 L 364.13 686.33 L 366.60 663.44 L 369.07 639.83 L 371.53 632.66 L 374.00 659.12 L 376.47 673.00 L 378.93 673.00 L 381.40 673.00 L 383.87 673.00 L 386.33 673.00 L 388.80 673.00 L 391.27 673.00 L 393.73 673.00 L 396.20 673.00 L 398.67 673.00 L 401.13 673.00 L 403.60 673.00 L 406.07 673.00 L 408.53 673.00 L 411.00 673.00 L 413.47 673.00 L 415.93 673.00 L 418.40 673.00 L 420.87 673.00 L 423.33 673.00 L 425.80 673.00 L 428.27 673.00 L 430.73 673.00 L 433.20 673.00 L 435.67 673.00 L 438.13 673.00 L 440.60 673.00 L 443.07 673.00 L 445.53 673.00 L 448.00 673.00 L 450.47 673.00 L 452.93 673.00 L 455.40 673.00 L 457.87 673.00 L 460.33 673.00 L 462.80 673.00 L 465.27 673.00 L 467.73 673.00 L 470.20 673.00 L 472.67 673.00 L 475.13 673.00 L 477.60 673.00 L 480.07 673.00 L 482.53 673.00 L 485.00 673.00 L 487.47 673.00 L 489.93 673.00 L 492.40 673.00 L 494.87 673.00 L 497.33 673.00 L 499.80 673.00 L 502.27 673.00 L 504.73 673.00 L 507.20 673.00 L 509.67 673.00 L 512.13 673.00 L 514.60 673.00 L 517.07 673.00 L 519.53 673.00 L 522.00 673.00 L 524.47 673.00 L 526.93 673.00 L 529.40 673.00 L 531.87 673.00 L 534.33 673.00 L 536.80 673.00 L 539.27 673.00 L 541.73 673.00 L 544.20 673.00 L 546.67 673.00 L 549.13 673.00 L 551.60 673.00 L 554.07 673.00 L 556.53 673.00 L 559.00 673.00 L 561.47 673.00 L 563.93 673.00 L 566.40 673.00 L 568.87 673.00 L 571.33 673.00 L 573.80 673.00 L 576.27 673.00 L 578.73 673.00 L 581.20 673.00 L 583.67 673.00 L 586.13 673.00 L 588.60 673.00 L 591.07 673.00 L 593.53 673.00 L 596.00 673.00 L 598.47 673.00 L 600.93 673.00 L 603.40 673.00 L 605.87 673.00 L 608.33 673.00 L 610.80 673.00 L 613.27 673.00 L 615.73 673.00 L 618.20 673.00 L 620.67 673.00 L 623.13 673.00 L 625.60 673.00 L 628.07 673.00 L 630.53 673.00 L 633.00 673.00 L 635.47 673.00 L 637.93 673.00 L 640.40 673.00 L 642.87 673.00 L 645.33 673.00 L 647.80 673.00 L 650.27 673.00 L 652.73 673.00 L 655.20 673.00 L 657.67 673.00 L 660.13 673.00 L 662.60 673.00 L 665.07 673.00 L 667.53 673.00 L 670.00 673.00 L 672.47 673.00 L 674.93 673.00 L 677.40 673.00 L 679.87 673.00 L 682.33 673.00 L 684.80 673.00 L 687.27 673.00 L 689.73 673.00 L 692.20 673.00 L 694.67 673.00 L 697.13 673.00 L 699.60 673.00 L 702.07 673.00 L 704.53 673.00 L 707.00 673.00 L 709.47 673.00 L 711.93 673.00 L 714.40 673.00 L 716.87 673.00 L 719.33 673.00 L 721.80 673.00 L 724.27 673.00 L 726.73 673.00 L 729.20 673.00 L 731.67 673.00 L 734.13 673.00 L 736.60 673.00 L 739.07 673.00 L 741.53 673.00 L 744.00 673.00 L 746.47 673.00 L 748.93 673.00 L 751.40 673.00 L 753.87 673.00 L 756.33 673.00 L 758.80 673.00 L 761.27 673.00 L 763.73 673.00 L 766.20 673.00 L 768.67 673.00 L 771.13 673.00 L 773.60 673.00 L 776.07 673.00 L 778.53 673.00 L 781.00 673.00 L 783.47 673.00 L 785.93 673.00 L 788.40 673.00 L 790.87 673.00 L 793.33 673.00 L 795.80 673.00 L 798.27 673.00 L 800.73 673.00 L 803.20 673.00 L 805.67 673.00 L 808.13 673.00 L 810.60 673.00 L 813.07 673.00 L 815.53 673.00 L 818.00 673.00 L 820.47 673.00 L 822.93 673.00 L 825.40 673.00 L 827.87 673.00 L 830.33 673.00 L 832.80 673.00 L 835.27 673.00 L 837.73 673.00 L 840.20 673.00 L 842.67 673.00 L 845.13 673.00 L 847.60 673.00 L 850.07 673.00 L 852.53 673.00 L 855.00 673.00 L 857.47 673.00 L 859.93 673.00 L 862.40 673.00 L 864.87 673.00 L 867.33 673.00 L 869.80 673.00 L 872.27 673.00 L 874.73 673.00 L 877.20 673.00 L 879.67 673.00 L 882.13 673.00 L 884.60 673.00 L 887.07 673.00 L 889.53 673.00 L 892.00 673.00 L 894.47 673.00 L 896.93 673.00 L 899.40 673.00 L 901.87 673.00 L 904.33 673.00 L 906.80 673.00 L 909.27 673.00 L 911.73 673.00 L 914.20 673.00 L 916.67 673.00 L 919.13 673.00 L 921.60 673.00 L 924.07 673.00 L 926.53 673.00 L 929.00 673.00 L 931.47 673.00 L 933.93 673.00 L 936.40 673.00 L 938.87 673.00 L 941.33 640.61 L 943.80 633.11 L 946.27 650.65 L 948.73 676.05 L 951.20 692.14 L 953.67 681.75 L 956.13 672.94 L 958.60 672.88 L 961.07 672.83 L 963.53 672.80 L 966.00 672.79" fill="none" stroke="#2563eb" stroke-width="1.7" stroke-opacity="0.45" stroke-dasharray="12 7" stroke-linecap="round" stroke-linejoin="round"/>
<path d="M 78.00 672.89 L 80.47 672.85 L 82.93 672.82 L 85.40 672.81 L 87.87 672.80 L 90.33 672.81 L 92.80 672.83 L 95.27 672.87 L 97.73 672.92 L 100.20 672.98 L 102.67 692.41 L 105.13 687.66 L 107.60 664.18 L 110.07 639.70 L 112.53 632.00 L 115.00 658.82 L 117.47 673.00 L 119.93 673.00 L 122.40 673.00 L 124.87 673.00 L 127.33 673.00 L 129.80 673.00 L 132.27 673.00 L 134.73 673.00 L 137.20 673.00 L 139.67 673.00 L 142.13 673.00 L 144.60 673.00 L 147.07 673.00 L 149.53 673.00 L 152.00 673.00 L 154.47 673.00 L 156.93 673.00 L 159.40 673.00 L 161.87 673.00 L 164.33 673.00 L 166.80 673.00 L 169.27 673.00 L 171.73 673.00 L 174.20 673.00 L 176.67 673.00 L 179.13 673.00 L 181.60 673.00 L 184.07 673.00 L 186.53 673.00 L 189.00 673.00 L 191.47 673.00 L 193.93 673.00 L 196.40 673.00 L 198.87 673.00 L 201.33 673.00 L 203.80 673.00 L 206.27 673.00 L 208.73 673.00 L 211.20 673.00 L 213.67 673.00 L 216.13 673.00 L 218.60 673.00 L 221.07 673.00 L 223.53 673.00 L 226.00 673.00 L 228.47 673.00 L 230.93 673.00 L 233.40 673.00 L 235.87 673.00 L 238.33 673.00 L 240.80 673.00 L 243.27 673.00 L 245.73 673.00 L 248.20 673.00 L 250.67 673.00 L 253.13 673.00 L 255.60 673.00 L 258.07 673.00 L 260.53 673.00 L 263.00 673.00 L 265.47 673.00 L 267.93 673.00 L 270.40 673.00 L 272.87 673.00 L 275.33 673.00 L 277.80 673.00 L 280.27 673.00 L 282.73 673.00 L 285.20 673.00 L 287.67 673.00 L 290.13 673.00 L 292.60 673.00 L 295.07 673.00 L 297.53 673.00 L 300.00 673.00 L 302.47 673.00 L 304.93 673.00 L 307.40 673.00 L 309.87 673.00 L 312.33 673.00 L 314.80 673.00 L 317.27 673.00 L 319.73 673.00 L 322.20 673.00 L 324.67 673.00 L 327.13 673.00 L 329.60 673.00 L 332.07 673.00 L 334.53 673.00 L 337.00 673.00 L 339.47 673.00 L 341.93 673.00 L 344.40 673.00 L 346.87 673.00 L 349.33 673.00 L 351.80 673.00 L 354.27 673.00 L 356.73 673.00 L 359.20 673.00 L 361.67 673.00 L 364.13 673.00 L 366.60 673.00 L 369.07 673.00 L 371.53 673.00 L 374.00 673.00 L 376.47 673.00 L 378.93 673.00 L 381.40 673.00 L 383.87 673.00 L 386.33 673.00 L 388.80 673.00 L 391.27 673.00 L 393.73 673.00 L 396.20 673.00 L 398.67 673.00 L 401.13 673.00 L 403.60 673.00 L 406.07 673.00 L 408.53 673.00 L 411.00 673.00 L 413.47 673.00 L 415.93 673.00 L 418.40 673.00 L 420.87 673.00 L 423.33 673.00 L 425.80 673.00 L 428.27 673.00 L 430.73 673.00 L 433.20 673.00 L 435.67 673.00 L 438.13 673.00 L 440.60 673.00 L 443.07 673.00 L 445.53 673.00 L 448.00 673.00 L 450.47 673.00 L 452.93 673.00 L 455.40 673.00 L 457.87 673.00 L 460.33 673.00 L 462.80 673.00 L 465.27 673.00 L 467.73 673.00 L 470.20 673.00 L 472.67 673.00 L 475.13 673.00 L 477.60 673.00 L 480.07 673.00 L 482.53 673.00 L 485.00 673.00 L 487.47 673.00 L 489.93 673.00 L 492.40 673.00 L 494.87 673.00 L 497.33 673.00 L 499.80 673.00 L 502.27 673.00 L 504.73 673.00 L 507.20 673.00 L 509.67 673.00 L 512.13 673.00 L 514.60 673.00 L 517.07 673.00 L 519.53 673.00 L 522.00 673.00 L 524.47 673.00 L 526.93 673.00 L 529.40 673.00 L 531.87 673.00 L 534.33 673.00 L 536.80 673.00 L 539.27 673.00 L 541.73 673.00 L 544.20 673.00 L 546.67 673.00 L 549.13 673.00 L 551.60 673.00 L 554.07 673.00 L 556.53 673.00 L 559.00 673.00 L 561.47 673.00 L 563.93 673.00 L 566.40 673.00 L 568.87 673.00 L 571.33 673.00 L 573.80 673.00 L 576.27 673.00 L 578.73 673.00 L 581.20 673.00 L 583.67 673.00 L 586.13 673.00 L 588.60 673.00 L 591.07 673.00 L 593.53 673.00 L 596.00 673.00 L 598.47 673.00 L 600.93 673.00 L 603.40 673.00 L 605.87 673.00 L 608.33 673.00 L 610.80 673.00 L 613.27 673.00 L 615.73 673.00 L 618.20 673.00 L 620.67 673.00 L 623.13 673.00 L 625.60 673.00 L 628.07 673.00 L 630.53 673.00 L 633.00 673.00 L 635.47 673.00 L 637.93 673.00 L 640.40 673.00 L 642.87 673.00 L 645.33 673.00 L 647.80 673.00 L 650.27 673.00 L 652.73 673.00 L 655.20 673.00 L 657.67 673.00 L 660.13 673.00 L 662.60 673.00 L 665.07 673.00 L 667.53 673.00 L 670.00 673.00 L 672.47 639.99 L 674.93 632.65 L 677.40 650.95 L 679.87 677.15 L 682.33 693.49 L 684.80 682.21 L 687.27 672.95 L 689.73 672.89 L 692.20 672.85 L 694.67 672.82 L 697.13 672.80 L 699.60 672.80 L 702.07 672.81 L 704.53 672.84 L 707.00 672.87 L 709.47 672.91 L 711.93 672.97 L 714.40 673.03 L 716.87 673.10 L 719.33 673.17 L 721.80 673.26 L 724.27 673.35 L 726.73 673.44 L 729.20 673.54 L 731.67 673.64 L 734.13 673.74 L 736.60 673.85 L 739.07 673.96 L 741.53 674.07 L 744.00 674.18 L 746.47 674.28 L 748.93 674.39 L 751.40 674.49 L 753.87 674.60 L 756.33 674.69 L 758.80 674.79 L 761.27 674.87 L 763.73 674.95 L 766.20 675.03 L 768.67 675.10 L 771.13 675.16 L 773.60 675.21 L 776.07 675.25 L 778.53 675.28 L 781.00 675.30 L 783.47 675.31 L 785.93 675.30 L 788.40 675.29 L 790.87 675.26 L 793.33 675.21 L 795.80 675.15 L 798.27 675.07 L 800.73 674.98 L 803.20 674.86 L 805.67 674.73 L 808.13 674.58 L 810.60 674.42 L 813.07 674.23 L 815.53 674.02 L 818.00 673.78 L 820.47 673.53 L 822.93 673.25 L 825.40 673.00 L 827.87 673.00 L 830.33 673.00 L 832.80 673.00 L 835.27 673.00 L 837.73 673.00 L 840.20 673.00 L 842.67 673.00 L 845.13 673.00 L 847.60 673.00 L 850.07 673.10 L 852.53 673.39 L 855.00 673.66 L 857.47 673.90 L 859.93 674.12 L 862.40 674.32 L 864.87 674.50 L 867.33 674.66 L 869.80 674.80 L 872.27 674.92 L 874.73 675.03 L 877.20 675.11 L 879.67 675.18 L 882.13 675.23 L 884.60 675.27 L 887.07 675.30 L 889.53 675.31 L 892.00 675.31 L 894.47 675.29 L 896.93 675.27 L 899.40 675.23 L 901.87 675.18 L 904.33 675.13 L 906.80 675.06 L 909.27 674.99 L 911.73 674.91 L 914.20 674.83 L 916.67 674.74 L 919.13 674.64 L 921.60 674.55 L 924.07 674.44 L 926.53 674.34 L 929.00 674.23 L 931.47 674.12 L 933.93 674.01 L 936.40 673.90 L 938.87 673.80 L 941.33 673.69 L 943.80 673.59 L 946.27 673.49 L 948.73 673.39 L 951.20 673.30 L 953.67 673.21 L 956.13 673.13 L 958.60 673.06 L 961.07 673.00 L 963.53 672.94 L 966.00 672.89" fill="none" stroke="#dc2626" stroke-width="1.7" stroke-opacity="0.45" stroke-dasharray="12 7" stroke-linecap="round" stroke-linejoin="round"/>
<rect x="78" y="744" width="888" height="82" fill="#f9fafb" stroke="#d1d5db"/>
<line x1="78" y1="785.00" x2="966" y2="785.00" stroke="#9ca3af"/>
<text x="78" y="736" font-family="Arial, sans-serif" font-size="13" font-weight="700" fill="#111827">Jerk (in/deg^3)</text>
<text x="66" y="756" text-anchor="end" font-family="Arial, sans-serif" font-size="10" fill="#374151">0.00083</text>
<text x="66" y="826" text-anchor="end" font-family="Arial, sans-serif" font-size="10" fill="#374151">-0.00083</text>
<path d="M 78.00 784.99 L 80.47 785.01 L 82.93 785.02 L 85.40 785.03 L 87.87 785.04 L 90.33 785.05 L 92.80 785.05 L 95.27 785.06 L 97.73 785.07 L 100.20 785.08 L 102.67 785.08 L 105.13 785.09 L 107.60 785.09 L 110.07 785.09 L 112.53 785.09 L 115.00 785.10 L 117.47 785.10 L 119.93 785.10 L 122.40 785.10 L 124.87 785.10 L 127.33 785.10 L 129.80 785.09 L 132.27 785.09 L 134.73 785.09 L 137.20 785.08 L 139.67 785.08 L 142.13 785.07 L 144.60 785.06 L 147.07 785.06 L 149.53 785.05 L 152.00 785.04 L 154.47 785.03 L 156.93 785.02 L 159.40 785.01 L 161.87 785.00 L 164.33 784.99 L 166.80 784.97 L 169.27 784.96 L 171.73 784.95 L 174.20 784.93 L 176.67 784.91 L 179.13 784.90 L 181.60 784.88 L 184.07 784.86 L 186.53 784.84 L 189.00 784.83 L 191.47 784.81 L 193.93 784.78 L 196.40 784.76 L 198.87 784.74 L 201.33 785.00 L 203.80 785.00 L 206.27 785.00 L 208.73 785.00 L 211.20 785.00 L 213.67 785.00 L 216.13 785.00 L 218.60 785.00 L 221.07 785.00 L 223.53 785.00 L 226.00 785.27 L 228.47 785.25 L 230.93 785.23 L 233.40 785.20 L 235.87 785.18 L 238.33 785.17 L 240.80 785.15 L 243.27 785.13 L 245.73 785.11 L 248.20 785.09 L 250.67 785.08 L 253.13 785.06 L 255.60 785.05 L 258.07 785.03 L 260.53 785.02 L 263.00 785.01 L 265.47 785.00 L 267.93 784.98 L 270.40 784.97 L 272.87 784.96 L 275.33 784.96 L 277.80 784.95 L 280.27 784.94 L 282.73 784.93 L 285.20 784.93 L 287.67 784.92 L 290.13 784.92 L 292.60 784.91 L 295.07 784.91 L 297.53 784.91 L 300.00 784.90 L 302.47 784.90 L 304.93 784.90 L 307.40 784.90 L 309.87 784.90 L 312.33 784.90 L 314.80 784.91 L 317.27 784.91 L 319.73 784.91 L 322.20 784.92 L 324.67 784.92 L 327.13 784.93 L 329.60 784.93 L 332.07 784.94 L 334.53 784.95 L 337.00 784.96 L 339.47 784.97 L 341.93 784.98 L 344.40 784.99 L 346.87 785.00 L 349.33 785.01 L 351.80 785.02 L 354.27 785.04 L 356.73 785.05 L 359.20 785.07 L 361.67 792.93 L 364.13 771.22 L 366.60 763.58 L 369.07 770.03 L 371.53 790.56 L 374.00 825.18 L 376.47 785.00 L 378.93 785.00 L 381.40 785.00 L 383.87 785.00 L 386.33 785.00 L 388.80 785.00 L 391.27 785.00 L 393.73 785.00 L 396.20 785.00 L 398.67 785.00 L 401.13 785.00 L 403.60 785.00 L 406.07 785.00 L 408.53 785.00 L 411.00 785.00 L 413.47 785.00 L 415.93 785.00 L 418.40 785.00 L 420.87 785.00 L 423.33 785.00 L 425.80 785.00 L 428.27 785.00 L 430.73 785.00 L 433.20 785.00 L 435.67 785.00 L 438.13 785.00 L 440.60 785.00 L 443.07 785.00 L 445.53 785.00 L 448.00 785.00 L 450.47 785.00 L 452.93 785.00 L 455.40 785.00 L 457.87 785.00 L 460.33 785.00 L 462.80 785.00 L 465.27 785.00 L 467.73 785.00 L 470.20 785.00 L 472.67 785.00 L 475.13 785.00 L 477.60 785.00 L 480.07 785.00 L 482.53 785.00 L 485.00 785.00 L 487.47 785.00 L 489.93 785.00 L 492.40 785.00 L 494.87 785.00 L 497.33 785.00 L 499.80 785.00 L 502.27 785.00 L 504.73 785.00 L 507.20 785.00 L 509.67 785.00 L 512.13 785.00 L 514.60 785.00 L 517.07 785.00 L 519.53 785.00 L 522.00 785.00 L 524.47 785.00 L 526.93 785.00 L 529.40 785.00 L 531.87 785.00 L 534.33 785.00 L 536.80 785.00 L 539.27 785.00 L 541.73 785.00 L 544.20 785.00 L 546.67 785.00 L 549.13 785.00 L 551.60 785.00 L 554.07 785.00 L 556.53 785.00 L 559.00 785.00 L 561.47 785.00 L 563.93 785.00 L 566.40 785.00 L 568.87 785.00 L 571.33 785.00 L 573.80 785.00 L 576.27 785.00 L 578.73 785.00 L 581.20 785.00 L 583.67 785.00 L 586.13 785.00 L 588.60 785.00 L 591.07 785.00 L 593.53 785.00 L 596.00 785.00 L 598.47 785.00 L 600.93 785.00 L 603.40 785.00 L 605.87 785.00 L 608.33 785.00 L 610.80 785.00 L 613.27 785.00 L 615.73 785.00 L 618.20 785.00 L 620.67 785.00 L 623.13 785.00 L 625.60 785.00 L 628.07 785.00 L 630.53 785.00 L 633.00 785.00 L 635.47 785.00 L 637.93 785.00 L 640.40 785.00 L 642.87 785.00 L 645.33 785.00 L 647.80 785.00 L 650.27 785.00 L 652.73 785.00 L 655.20 785.00 L 657.67 785.00 L 660.13 785.00 L 662.60 785.00 L 665.07 785.00 L 667.53 785.00 L 670.00 785.00 L 672.47 785.00 L 674.93 785.00 L 677.40 785.00 L 679.87 785.00 L 682.33 785.00 L 684.80 785.00 L 687.27 785.00 L 689.73 785.00 L 692.20 785.00 L 694.67 785.00 L 697.13 785.00 L 699.60 785.00 L 702.07 785.00 L 704.53 785.00 L 707.00 785.00 L 709.47 785.00 L 711.93 785.00 L 714.40 785.00 L 716.87 785.00 L 719.33 785.00 L 721.80 785.00 L 724.27 785.00 L 726.73 785.00 L 729.20 785.00 L 731.67 785.00 L 734.13 785.00 L 736.60 785.00 L 739.07 785.00 L 741.53 785.00 L 744.00 785.00 L 746.47 785.00 L 748.93 785.00 L 751.40 785.00 L 753.87 785.00 L 756.33 785.00 L 758.80 785.00 L 761.27 785.00 L 763.73 785.00 L 766.20 785.00 L 768.67 785.00 L 771.13 785.00 L 773.60 785.00 L 776.07 785.00 L 778.53 785.00 L 781.00 785.00 L 783.47 785.00 L 785.93 785.00 L 788.40 785.00 L 790.87 785.00 L 793.33 785.00 L 795.80 785.00 L 798.27 785.00 L 800.73 785.00 L 803.20 785.00 L 805.67 785.00 L 808.13 785.00 L 810.60 785.00 L 813.07 785.00 L 815.53 785.00 L 818.00 785.00 L 820.47 785.00 L 822.93 785.00 L 825.40 785.00 L 827.87 785.00 L 830.33 785.00 L 832.80 785.00 L 835.27 785.00 L 837.73 785.00 L 840.20 785.00 L 842.67 785.00 L 845.13 785.00 L 847.60 785.00 L 850.07 785.00 L 852.53 785.00 L 855.00 785.00 L 857.47 785.00 L 859.93 785.00 L 862.40 785.00 L 864.87 785.00 L 867.33 785.00 L 869.80 785.00 L 872.27 785.00 L 874.73 785.00 L 877.20 785.00 L 879.67 785.00 L 882.13 785.00 L 884.60 785.00 L 887.07 785.00 L 889.53 785.00 L 892.00 785.00 L 894.47 785.00 L 896.93 785.00 L 899.40 785.00 L 901.87 785.00 L 904.33 785.00 L 906.80 785.00 L 909.27 785.00 L 911.73 785.00 L 914.20 785.00 L 916.67 785.00 L 919.13 785.00 L 921.60 785.00 L 924.07 785.00 L 926.53 785.00 L 929.00 785.00 L 931.47 785.00 L 933.93 785.00 L 936.40 785.00 L 938.87 785.00 L 941.33 763.89 L 943.80 791.46 L 946.27 804.95 L 948.73 804.36 L 951.20 789.68 L 953.67 760.93 L 956.13 784.94 L 958.60 784.96 L 961.07 784.97 L 963.53 784.98 L 966.00 784.99" fill="none" stroke="#2563eb" stroke-width="1.7" stroke-opacity="0.45" stroke-dasharray="12 7" stroke-linecap="round" stroke-linejoin="round"/>
<path d="M 78.00 784.96 L 80.47 784.97 L 82.93 784.98 L 85.40 784.99 L 87.87 785.00 L 90.33 785.01 L 92.80 785.02 L 95.27 785.03 L 97.73 785.05 L 100.20 785.06 L 102.67 793.64 L 105.13 771.00 L 107.60 762.91 L 110.07 769.38 L 112.53 790.41 L 115.00 826.00 L 117.47 785.00 L 119.93 785.00 L 122.40 785.00 L 124.87 785.00 L 127.33 785.00 L 129.80 785.00 L 132.27 785.00 L 134.73 785.00 L 137.20 785.00 L 139.67 785.00 L 142.13 785.00 L 144.60 785.00 L 147.07 785.00 L 149.53 785.00 L 152.00 785.00 L 154.47 785.00 L 156.93 785.00 L 159.40 785.00 L 161.87 785.00 L 164.33 785.00 L 166.80 785.00 L 169.27 785.00 L 171.73 785.00 L 174.20 785.00 L 176.67 785.00 L 179.13 785.00 L 181.60 785.00 L 184.07 785.00 L 186.53 785.00 L 189.00 785.00 L 191.47 785.00 L 193.93 785.00 L 196.40 785.00 L 198.87 785.00 L 201.33 785.00 L 203.80 785.00 L 206.27 785.00 L 208.73 785.00 L 211.20 785.00 L 213.67 785.00 L 216.13 785.00 L 218.60 785.00 L 221.07 785.00 L 223.53 785.00 L 226.00 785.00 L 228.47 785.00 L 230.93 785.00 L 233.40 785.00 L 235.87 785.00 L 238.33 785.00 L 240.80 785.00 L 243.27 785.00 L 245.73 785.00 L 248.20 785.00 L 250.67 785.00 L 253.13 785.00 L 255.60 785.00 L 258.07 785.00 L 260.53 785.00 L 263.00 785.00 L 265.47 785.00 L 267.93 785.00 L 270.40 785.00 L 272.87 785.00 L 275.33 785.00 L 277.80 785.00 L 280.27 785.00 L 282.73 785.00 L 285.20 785.00 L 287.67 785.00 L 290.13 785.00 L 292.60 785.00 L 295.07 785.00 L 297.53 785.00 L 300.00 785.00 L 302.47 785.00 L 304.93 785.00 L 307.40 785.00 L 309.87 785.00 L 312.33 785.00 L 314.80 785.00 L 317.27 785.00 L 319.73 785.00 L 322.20 785.00 L 324.67 785.00 L 327.13 785.00 L 329.60 785.00 L 332.07 785.00 L 334.53 785.00 L 337.00 785.00 L 339.47 785.00 L 341.93 785.00 L 344.40 785.00 L 346.87 785.00 L 349.33 785.00 L 351.80 785.00 L 354.27 785.00 L 356.73 785.00 L 359.20 785.00 L 361.67 785.00 L 364.13 785.00 L 366.60 785.00 L 369.07 785.00 L 371.53 785.00 L 374.00 785.00 L 376.47 785.00 L 378.93 785.00 L 381.40 785.00 L 383.87 785.00 L 386.33 785.00 L 388.80 785.00 L 391.27 785.00 L 393.73 785.00 L 396.20 785.00 L 398.67 785.00 L 401.13 785.00 L 403.60 785.00 L 406.07 785.00 L 408.53 785.00 L 411.00 785.00 L 413.47 785.00 L 415.93 785.00 L 418.40 785.00 L 420.87 785.00 L 423.33 785.00 L 425.80 785.00 L 428.27 785.00 L 430.73 785.00 L 433.20 785.00 L 435.67 785.00 L 438.13 785.00 L 440.60 785.00 L 443.07 785.00 L 445.53 785.00 L 448.00 785.00 L 450.47 785.00 L 452.93 785.00 L 455.40 785.00 L 457.87 785.00 L 460.33 785.00 L 462.80 785.00 L 465.27 785.00 L 467.73 785.00 L 470.20 785.00 L 472.67 785.00 L 475.13 785.00 L 477.60 785.00 L 480.07 785.00 L 482.53 785.00 L 485.00 785.00 L 487.47 785.00 L 489.93 785.00 L 492.40 785.00 L 494.87 785.00 L 497.33 785.00 L 499.80 785.00 L 502.27 785.00 L 504.73 785.00 L 507.20 785.00 L 509.67 785.00 L 512.13 785.00 L 514.60 785.00 L 517.07 785.00 L 519.53 785.00 L 522.00 785.00 L 524.47 785.00 L 526.93 785.00 L 529.40 785.00 L 531.87 785.00 L 534.33 785.00 L 536.80 785.00 L 539.27 785.00 L 541.73 785.00 L 544.20 785.00 L 546.67 785.00 L 549.13 785.00 L 551.60 785.00 L 554.07 785.00 L 556.53 785.00 L 559.00 785.00 L 561.47 785.00 L 563.93 785.00 L 566.40 785.00 L 568.87 785.00 L 571.33 785.00 L 573.80 785.00 L 576.27 785.00 L 578.73 785.00 L 581.20 785.00 L 583.67 785.00 L 586.13 785.00 L 588.60 785.00 L 591.07 785.00 L 593.53 785.00 L 596.00 785.00 L 598.47 785.00 L 600.93 785.00 L 603.40 785.00 L 605.87 785.00 L 608.33 785.00 L 610.80 785.00 L 613.27 785.00 L 615.73 785.00 L 618.20 785.00 L 620.67 785.00 L 623.13 785.00 L 625.60 785.00 L 628.07 785.00 L 630.53 785.00 L 633.00 785.00 L 635.47 785.00 L 637.93 785.00 L 640.40 785.00 L 642.87 785.00 L 645.33 785.00 L 647.80 785.00 L 650.27 785.00 L 652.73 785.00 L 655.20 785.00 L 657.67 785.00 L 660.13 785.00 L 662.60 785.00 L 665.07 785.00 L 667.53 785.00 L 670.00 785.00 L 672.47 763.61 L 674.93 791.92 L 677.40 805.67 L 679.87 804.87 L 682.33 789.50 L 684.80 759.58 L 687.27 784.95 L 689.73 784.96 L 692.20 784.97 L 694.67 784.98 L 697.13 784.99 L 699.60 785.00 L 702.07 785.01 L 704.53 785.02 L 707.00 785.03 L 709.47 785.04 L 711.93 785.05 L 714.40 785.05 L 716.87 785.06 L 719.33 785.07 L 721.80 785.07 L 724.27 785.08 L 726.73 785.08 L 729.20 785.08 L 731.67 785.08 L 734.13 785.09 L 736.60 785.09 L 739.07 785.09 L 741.53 785.09 L 744.00 785.09 L 746.47 785.09 L 748.93 785.09 L 751.40 785.08 L 753.87 785.08 L 756.33 785.08 L 758.80 785.07 L 761.27 785.07 L 763.73 785.06 L 766.20 785.06 L 768.67 785.05 L 771.13 785.05 L 773.60 785.04 L 776.07 785.03 L 778.53 785.02 L 781.00 785.01 L 783.47 785.00 L 785.93 784.99 L 788.40 784.98 L 790.87 784.97 L 793.33 784.96 L 795.80 784.94 L 798.27 784.93 L 800.73 784.92 L 803.20 784.90 L 805.67 784.89 L 808.13 784.87 L 810.60 784.85 L 813.07 784.84 L 815.53 784.82 L 818.00 784.80 L 820.47 784.78 L 822.93 784.76 L 825.40 785.00 L 827.87 785.00 L 830.33 785.00 L 832.80 785.00 L 835.27 785.00 L 837.73 785.00 L 840.20 785.00 L 842.67 785.00 L 845.13 785.00 L 847.60 785.00 L 850.07 785.25 L 852.53 785.23 L 855.00 785.21 L 857.47 785.19 L 859.93 785.17 L 862.40 785.16 L 864.87 785.14 L 867.33 785.12 L 869.80 785.11 L 872.27 785.09 L 874.73 785.08 L 877.20 785.06 L 879.67 785.05 L 882.13 785.04 L 884.60 785.03 L 887.07 785.01 L 889.53 785.00 L 892.00 784.99 L 894.47 784.98 L 896.93 784.97 L 899.40 784.97 L 901.87 784.96 L 904.33 784.95 L 906.80 784.94 L 909.27 784.94 L 911.73 784.93 L 914.20 784.93 L 916.67 784.92 L 919.13 784.92 L 921.60 784.92 L 924.07 784.91 L 926.53 784.91 L 929.00 784.91 L 931.47 784.91 L 933.93 784.91 L 936.40 784.91 L 938.87 784.91 L 941.33 784.91 L 943.80 784.92 L 946.27 784.92 L 948.73 784.92 L 951.20 784.93 L 953.67 784.93 L 956.13 784.94 L 958.60 784.94 L 961.07 784.95 L 963.53 784.96 L 966.00 784.96" fill="none" stroke="#dc2626" stroke-width="1.7" stroke-opacity="0.45" stroke-dasharray="12 7" stroke-linecap="round" stroke-linejoin="round"/>
<text x="78" y="872" font-family="Arial, sans-serif" font-size="13" font-weight="700" fill="#111827">Profiles</text>
<line x1="78" y1="894" x2="106" y2="894" stroke="#2563eb" stroke-width="3"/>
<text x="116" y="898" font-family="Arial, sans-serif" font-size="12" fill="#111827">Intake</text>
<line x1="78" y1="914" x2="106" y2="914" stroke="#dc2626" stroke-width="3"/>
<text x="116" y="918" font-family="Arial, sans-serif" font-size="12" fill="#111827">Exhaust</text>
<text x="398" y="872" font-family="Arial, sans-serif" font-size="13" font-weight="700" fill="#111827">Provenance</text>
<line x1="398" y1="894" x2="434" y2="894" stroke="#111827" stroke-width="2.5" stroke-opacity="1.00" stroke-dasharray=""/>
<text x="446" y="898" font-family="Arial, sans-serif" font-size="12" fill="#111827">MEASURED</text>
<line x1="398" y1="912" x2="434" y2="912" stroke="#111827" stroke-width="2.5" stroke-opacity="0.70" stroke-dasharray="6 4"/>
<text x="446" y="916" font-family="Arial, sans-serif" font-size="12" fill="#111827">INFERRED</text>
<line x1="398" y1="930" x2="434" y2="930" stroke="#111827" stroke-width="2.5" stroke-opacity="0.45" stroke-dasharray="12 7"/>
<text x="446" y="934" font-family="Arial, sans-serif" font-size="12" fill="#111827">EXTRAPOLATED</text>
<rect x="398" y="941" width="36" height="10" fill="none" stroke="#111827"/>
<text x="446" y="952" font-family="Arial, sans-serif" font-size="12" fill="#111827">UNDECIDABLE</text>
<text x="78" y="992" font-family="Arial, sans-serif" font-size="11" fill="#4b5563">Projection: cam_analyzer.visualization_projection.v1. Renderer draws only sampled boundary answers and does not recompute source facts.</text>
</svg>
