<svg xmlns="http://www.w3.org/2000/svg" viewBox="0 0 1536 1024" role="img" aria-labelledby="chart-title chart-desc">
<title id="chart-title">WR250R reference (Web Cam 81-651)</title>
<desc id="chart-desc">Overlap-centered SVAJ stack with hard cam-card events, lift thresholds, confidence bands, and source-blind profile quality.</desc>
<rect x="0" y="0" width="1536" height="1024" fill="#ffffff"/>
<text x="24" y="38" font-family="Arial, sans-serif" font-size="28" font-weight="700" fill="#0f172a">WR250R reference (Web Cam 81-651)</text>
<text x="24" y="64" font-family="Arial, sans-serif" font-size="14" fill="#475569">Primary engineering view: 0-360 crank-degree overlap window; 180 = TDC overlap</text>
<rect x="96" y="92" width="1024" height="300" fill="#ffffff" stroke="#cbd5e1"/>
<line x1="608.00" y1="92" x2="608.00" y2="392" stroke="#64748b" stroke-width="1.2"/>
<text x="32" y="112" font-family="Arial, sans-serif" font-size="13" font-weight="700" fill="#0f172a">Lift (in)</text>
<text x="608.00" y="110" text-anchor="middle" font-family="Arial, sans-serif" font-size="11" font-weight="700" fill="#334155">180 TDC</text>
<rect x="568.18" y="92" width="79.64" height="300" fill="#e2e8f0" fill-opacity="0.55" stroke="none"/>
<text x="608.00" y="124" text-anchor="middle" font-family="Arial, sans-serif" font-size="12" font-weight="700" fill="#0f172a">OVERLAP @ 0.050 in</text>
<text x="608.00" y="144" text-anchor="middle" font-family="Arial, sans-serif" font-size="20" font-weight="700" fill="#0f172a">28.0 deg</text>
<line x1="96" y1="391.25" x2="1120" y2="391.25" stroke="#9ca3af" stroke-dasharray="5 4" stroke-opacity="0.62"/>
<line x1="1054.00" y1="391.25" x2="1072.00" y2="380.00" stroke="#9ca3af" stroke-opacity="0.45"/>
<text x="1110" y="384.00" text-anchor="end" font-family="Arial, sans-serif" font-size="11" fill="#9ca3af">0.001</text>
<line x1="96" y1="387.50" x2="1120" y2="387.50" stroke="#64748b" stroke-dasharray="5 4" stroke-opacity="0.62"/>
<line x1="1054.00" y1="387.50" x2="1072.00" y2="366.00" stroke="#64748b" stroke-opacity="0.45"/>
<text x="1110" y="370.00" text-anchor="end" font-family="Arial, sans-serif" font-size="11" fill="#64748b">0.006</text>
<line x1="96" y1="377.00" x2="1120" y2="377.00" stroke="#60a5fa" stroke-dasharray="5 4" stroke-opacity="0.62"/>
<line x1="1054.00" y1="377.00" x2="1072.00" y2="352.00" stroke="#60a5fa" stroke-opacity="0.45"/>
<text x="1110" y="356.00" text-anchor="end" font-family="Arial, sans-serif" font-size="11" fill="#60a5fa">0.020</text>
<line x1="96" y1="354.50" x2="1120" y2="354.50" stroke="#16a34a" stroke-dasharray="5 4" stroke-opacity="0.62"/>
<line x1="1054.00" y1="354.50" x2="1072.00" y2="338.00" stroke="#16a34a" stroke-opacity="0.45"/>
<text x="1110" y="342.00" text-anchor="end" font-family="Arial, sans-serif" font-size="11" fill="#16a34a">0.050</text>
<line x1="96" y1="317.00" x2="1120" y2="317.00" stroke="#f97316" stroke-dasharray="5 4" stroke-opacity="0.62"/>
<text x="1110" y="321.00" text-anchor="end" font-family="Arial, sans-serif" font-size="11" fill="#f97316">0.100</text>
<line x1="96" y1="242.00" x2="1120" y2="242.00" stroke="#7c3aed" stroke-dasharray="5 4" stroke-opacity="0.62"/>
<text x="1110" y="246.00" text-anchor="end" font-family="Arial, sans-serif" font-size="11" fill="#7c3aed">0.200</text>
<line x1="96.00" y1="92" x2="96.00" y2="392" stroke="#cbd5e1"/>
<text x="96.00" y="412" text-anchor="middle" font-family="Arial, sans-serif" font-size="11" fill="#334155">0</text>
<line x1="224.00" y1="92" x2="224.00" y2="392" stroke="#e2e8f0"/>
<text x="224.00" y="412" text-anchor="middle" font-family="Arial, sans-serif" font-size="11" fill="#334155">45</text>
<line x1="352.00" y1="92" x2="352.00" y2="392" stroke="#cbd5e1"/>
<text x="352.00" y="412" text-anchor="middle" font-family="Arial, sans-serif" font-size="11" fill="#334155">90</text>
<line x1="480.00" y1="92" x2="480.00" y2="392" stroke="#e2e8f0"/>
<text x="480.00" y="412" text-anchor="middle" font-family="Arial, sans-serif" font-size="11" fill="#334155">135</text>
<line x1="608.00" y1="92" x2="608.00" y2="392" stroke="#cbd5e1"/>
<text x="608.00" y="412" text-anchor="middle" font-family="Arial, sans-serif" font-size="11" fill="#334155">180 TDC</text>
<line x1="736.00" y1="92" x2="736.00" y2="392" stroke="#e2e8f0"/>
<text x="736.00" y="412" text-anchor="middle" font-family="Arial, sans-serif" font-size="11" fill="#334155">225</text>
<line x1="864.00" y1="92" x2="864.00" y2="392" stroke="#cbd5e1"/>
<text x="864.00" y="412" text-anchor="middle" font-family="Arial, sans-serif" font-size="11" fill="#334155">270</text>
<line x1="992.00" y1="92" x2="992.00" y2="392" stroke="#e2e8f0"/>
<text x="992.00" y="412" text-anchor="middle" font-family="Arial, sans-serif" font-size="11" fill="#334155">315</text>
<line x1="1120.00" y1="92" x2="1120.00" y2="392" stroke="#cbd5e1"/>
<text x="1120.00" y="412" text-anchor="middle" font-family="Arial, sans-serif" font-size="11" fill="#334155">360</text>
<line x1="96" y1="392.00" x2="1120" y2="392.00" stroke="#e2e8f0"/>
<text x="82" y="396.00" text-anchor="end" font-family="Arial, sans-serif" font-size="10" fill="#334155">0.000</text>
<line x1="96" y1="242.00" x2="1120" y2="242.00" stroke="#e2e8f0"/>
<text x="82" y="246.00" text-anchor="end" font-family="Arial, sans-serif" font-size="10" fill="#334155">0.200</text>
<line x1="96" y1="92.00" x2="1120" y2="92.00" stroke="#e2e8f0"/>
<text x="82" y="96.00" text-anchor="end" font-family="Arial, sans-serif" font-size="10" fill="#334155">0.400</text>
<path d="M 608.00 310.62 L 613.69 304.18 L 619.38 297.71 L 625.07 291.23 L 630.76 284.72 L 636.44 278.21 L 642.13 271.69 L 647.82 265.16 L 653.51 258.65 L 659.20 252.14 L 660.62 250.52 L 664.89 245.66 L 670.58 239.21 L 676.27 232.80 L 681.96 226.45 L 687.64 220.16 L 693.33 213.94 L 699.02 207.81 L 704.71 201.78 L 710.40 195.85 L 716.09 190.05 L 721.78 184.39 L 727.47 178.87 L 733.16 173.50 L 738.84 168.30 L 744.53 163.29 L 750.22 158.46 L 755.91 153.82 L 761.60 149.40 L 767.29 145.19 L 772.98 141.21 L 778.67 137.45 L 784.36 133.93 L 790.04 130.64 L 795.73 127.60 L 801.42 124.80 L 807.11 122.25 L 812.80 119.94 L 818.49 117.87 L 824.18 116.04 L 829.87 114.44 L 835.56 113.06 L 841.24 111.90 L 846.93 110.94 L 852.62 110.17 L 858.31 109.57 L 864.00 109.13 L 869.69 108.83 L 875.38 108.64 L 881.07 108.54 L 886.76 108.51 L 886.76 135.51 L 881.07 135.54 L 875.38 135.64 L 869.69 135.83 L 864.00 136.13 L 858.31 136.57 L 852.62 137.17 L 846.93 137.94 L 841.24 138.90 L 835.56 140.06 L 829.87 141.44 L 824.18 143.04 L 818.49 144.87 L 812.80 146.94 L 807.11 149.25 L 801.42 151.80 L 795.73 154.60 L 790.04 157.64 L 784.36 160.93 L 778.67 164.45 L 772.98 168.21 L 767.29 172.19 L 761.60 176.40 L 755.91 180.82 L 750.22 185.46 L 744.53 190.29 L 738.84 195.30 L 733.16 200.50 L 727.47 205.87 L 721.78 211.39 L 716.09 217.05 L 710.40 222.85 L 704.71 228.78 L 699.02 234.81 L 693.33 240.94 L 687.64 247.16 L 681.96 253.45 L 676.27 259.80 L 670.58 266.21 L 664.89 272.66 L 660.62 277.52 L 659.20 279.14 L 653.51 285.65 L 647.82 292.16 L 642.13 298.69 L 636.44 305.21 L 630.76 311.72 L 625.07 318.23 L 619.38 324.71 L 613.69 331.18 L 608.00 337.62 Z" fill="#2563eb" fill-opacity="0.10" stroke="none" data-confidence="p95"/>
<path d="M 892.44 92.00 L 898.13 92.00 L 903.82 92.00 L 909.51 92.00 L 915.20 92.00 L 920.89 92.00 L 926.58 92.00 L 932.27 92.00 L 937.96 92.00 L 943.64 92.00 L 943.64 170.60 L 937.96 170.60 L 932.27 170.60 L 926.58 170.60 L 920.89 170.60 L 915.20 170.60 L 909.51 170.60 L 903.82 170.60 L 898.13 170.60 L 892.44 170.60 Z" fill="#2563eb" fill-opacity="0.10" stroke="none" data-confidence="p95"/>
<path d="M 949.33 108.50 L 955.02 108.52 L 960.71 108.58 L 966.40 108.72 L 972.09 108.97 L 977.78 109.34 L 983.47 109.85 L 989.16 110.53 L 994.84 111.40 L 1000.53 112.46 L 1006.22 113.72 L 1011.91 115.21 L 1017.60 116.93 L 1023.29 118.88 L 1028.98 121.07 L 1034.67 123.50 L 1040.36 126.17 L 1046.04 129.09 L 1051.73 132.25 L 1057.42 135.66 L 1063.11 139.30 L 1068.80 143.17 L 1074.49 147.27 L 1080.18 151.59 L 1085.87 156.11 L 1091.56 160.85 L 1097.24 165.77 L 1102.93 170.88 L 1108.62 176.16 L 1114.31 181.61 L 1120.00 187.20 L 1120.00 214.20 L 1114.31 208.61 L 1108.62 203.16 L 1102.93 197.88 L 1097.24 192.77 L 1091.56 187.85 L 1085.87 183.11 L 1080.18 178.59 L 1074.49 174.27 L 1068.80 170.17 L 1063.11 166.30 L 1057.42 162.66 L 1051.73 159.25 L 1046.04 156.09 L 1040.36 153.17 L 1034.67 150.50 L 1028.98 148.07 L 1023.29 145.88 L 1017.60 143.93 L 1011.91 142.21 L 1006.22 140.72 L 1000.53 139.46 L 994.84 138.40 L 989.16 137.53 L 983.47 136.85 L 977.78 136.34 L 972.09 135.97 L 966.40 135.72 L 960.71 135.58 L 955.02 135.52 L 949.33 135.50 Z" fill="#2563eb" fill-opacity="0.10" stroke="none" data-confidence="p95"/>
<path d="M 96.00 343.40 L 101.69 343.40 L 107.38 343.40 L 113.07 343.40 L 118.76 343.40 L 124.44 343.40 L 130.13 343.40 L 135.82 343.40 L 141.51 343.40 L 147.20 343.40 L 152.89 343.40 L 158.58 343.40 L 164.27 343.40 L 169.96 343.40 L 175.64 343.40 L 181.33 343.40 L 187.02 343.40 L 192.71 343.40 L 198.40 343.40 L 204.09 343.40 L 209.78 343.40 L 215.47 343.40 L 221.16 343.40 L 226.84 343.40 L 232.53 343.40 L 238.22 343.40 L 243.91 343.40 L 249.60 343.40 L 255.29 343.40 L 260.98 343.40 L 266.67 343.40 L 272.36 343.40 L 278.04 343.40 L 283.73 343.40 L 289.42 343.40 L 295.11 343.40 L 300.80 343.40 L 306.49 343.40 L 312.18 343.40 L 317.87 343.40 L 323.56 343.40 L 329.24 343.40 L 334.93 343.40 L 340.62 343.40 L 346.31 343.40 L 352.00 343.40 L 357.69 343.40 L 363.38 343.40 L 369.07 343.40 L 374.76 343.40 L 380.44 343.40 L 386.13 343.40 L 391.82 343.40 L 397.51 343.40 L 403.20 343.40 L 408.89 343.40 L 414.58 343.40 L 420.27 343.40 L 425.96 343.40 L 431.64 343.40 L 437.33 343.40 L 443.02 343.40 L 448.71 343.40 L 454.40 343.40 L 460.09 343.40 L 465.78 343.40 L 471.47 343.40 L 477.16 343.40 L 482.84 343.40 L 488.53 343.40 L 494.22 343.40 L 499.91 343.40 L 505.60 343.40 L 511.29 343.40 L 516.98 343.40 L 522.67 343.40 L 528.36 343.40 L 534.04 343.40 L 539.73 343.40 L 545.42 343.40 L 551.11 343.03 L 556.80 339.79 L 562.49 332.80 L 568.18 323.66 L 573.87 314.74 L 579.56 307.50 L 579.56 392.00 L 573.87 392.00 L 568.18 392.00 L 562.49 392.00 L 556.80 392.00 L 551.11 392.00 L 545.42 392.00 L 539.73 392.00 L 534.04 392.00 L 528.36 392.00 L 522.67 392.00 L 516.98 392.00 L 511.29 392.00 L 505.60 392.00 L 499.91 392.00 L 494.22 392.00 L 488.53 392.00 L 482.84 392.00 L 477.16 392.00 L 471.47 392.00 L 465.78 392.00 L 460.09 392.00 L 454.40 392.00 L 448.71 392.00 L 443.02 392.00 L 437.33 392.00 L 431.64 392.00 L 425.96 392.00 L 420.27 392.00 L 414.58 392.00 L 408.89 392.00 L 403.20 392.00 L 397.51 392.00 L 391.82 392.00 L 386.13 392.00 L 380.44 392.00 L 374.76 392.00 L 369.07 392.00 L 363.38 392.00 L 357.69 392.00 L 352.00 392.00 L 346.31 392.00 L 340.62 392.00 L 334.93 392.00 L 329.24 392.00 L 323.56 392.00 L 317.87 392.00 L 312.18 392.00 L 306.49 392.00 L 300.80 392.00 L 295.11 392.00 L 289.42 392.00 L 283.73 392.00 L 278.04 392.00 L 272.36 392.00 L 266.67 392.00 L 260.98 392.00 L 255.29 392.00 L 249.60 392.00 L 243.91 392.00 L 238.22 392.00 L 232.53 392.00 L 226.84 392.00 L 221.16 392.00 L 215.47 392.00 L 209.78 392.00 L 204.09 392.00 L 198.40 392.00 L 192.71 392.00 L 187.02 392.00 L 181.33 392.00 L 175.64 392.00 L 169.96 392.00 L 164.27 392.00 L 158.58 392.00 L 152.89 392.00 L 147.20 392.00 L 141.51 392.00 L 135.82 392.00 L 130.13 392.00 L 124.44 392.00 L 118.76 392.00 L 113.07 392.00 L 107.38 392.00 L 101.69 392.00 L 96.00 392.00 Z" fill="#2563eb" fill-opacity="0.10" stroke="none" data-confidence="p95"/>
<path d="M 580.98 341.00 L 585.24 336.22 L 590.93 329.84 L 596.62 323.45 L 602.31 317.05 L 608.00 310.62 L 608.00 337.62 L 602.31 344.05 L 596.62 350.45 L 590.93 356.84 L 585.24 363.22 L 580.98 368.00 Z" fill="#2563eb" fill-opacity="0.10" stroke="none" data-confidence="p95"/>
<path d="M 608.00 320.07 L 613.69 313.63 L 619.38 307.16 L 625.07 300.68 L 630.76 294.17 L 636.44 287.66 L 642.13 281.14 L 647.82 274.61 L 653.51 268.10 L 659.20 261.59 L 660.62 259.97 L 664.89 255.11 L 670.58 248.66 L 676.27 242.25 L 681.96 235.90 L 687.64 229.61 L 693.33 223.39 L 699.02 217.26 L 704.71 211.23 L 710.40 205.30 L 716.09 199.50 L 721.78 193.84 L 727.47 188.32 L 733.16 182.95 L 738.84 177.75 L 744.53 172.74 L 750.22 167.91 L 755.91 163.27 L 761.60 158.85 L 767.29 154.64 L 772.98 150.66 L 778.67 146.90 L 784.36 143.38 L 790.04 140.09 L 795.73 137.05 L 801.42 134.25 L 807.11 131.70 L 812.80 129.39 L 818.49 127.32 L 824.18 125.49 L 829.87 123.89 L 835.56 122.51 L 841.24 121.35 L 846.93 120.39 L 852.62 119.62 L 858.31 119.02 L 864.00 118.58 L 869.69 118.28 L 875.38 118.09 L 881.07 117.99 L 886.76 117.96 L 886.76 126.06 L 881.07 126.09 L 875.38 126.19 L 869.69 126.38 L 864.00 126.68 L 858.31 127.12 L 852.62 127.72 L 846.93 128.49 L 841.24 129.45 L 835.56 130.61 L 829.87 131.99 L 824.18 133.59 L 818.49 135.42 L 812.80 137.49 L 807.11 139.80 L 801.42 142.35 L 795.73 145.15 L 790.04 148.19 L 784.36 151.48 L 778.67 155.00 L 772.98 158.76 L 767.29 162.74 L 761.60 166.95 L 755.91 171.37 L 750.22 176.01 L 744.53 180.84 L 738.84 185.85 L 733.16 191.05 L 727.47 196.42 L 721.78 201.94 L 716.09 207.60 L 710.40 213.40 L 704.71 219.33 L 699.02 225.36 L 693.33 231.49 L 687.64 237.71 L 681.96 244.00 L 676.27 250.35 L 670.58 256.76 L 664.89 263.21 L 660.62 268.07 L 659.20 269.69 L 653.51 276.20 L 647.82 282.71 L 642.13 289.24 L 636.44 295.76 L 630.76 302.27 L 625.07 308.78 L 619.38 315.26 L 613.69 321.73 L 608.00 328.17 Z" fill="#2563eb" fill-opacity="0.05" stroke="none" data-confidence="p50"/>
<path d="M 892.44 108.50 L 898.13 108.50 L 903.82 108.50 L 909.51 108.50 L 915.20 108.50 L 920.89 108.50 L 926.58 108.50 L 932.27 108.50 L 937.96 108.50 L 943.64 108.50 L 943.64 135.50 L 937.96 135.50 L 932.27 135.50 L 926.58 135.50 L 920.89 135.50 L 915.20 135.50 L 909.51 135.50 L 903.82 135.50 L 898.13 135.50 L 892.44 135.50 Z" fill="#2563eb" fill-opacity="0.05" stroke="none" data-confidence="p50"/>
<path d="M 949.33 117.95 L 955.02 117.97 L 960.71 118.03 L 966.40 118.17 L 972.09 118.42 L 977.78 118.79 L 983.47 119.30 L 989.16 119.98 L 994.84 120.85 L 1000.53 121.91 L 1006.22 123.17 L 1011.91 124.66 L 1017.60 126.38 L 1023.29 128.33 L 1028.98 130.52 L 1034.67 132.95 L 1040.36 135.62 L 1046.04 138.54 L 1051.73 141.70 L 1057.42 145.11 L 1063.11 148.75 L 1068.80 152.62 L 1074.49 156.72 L 1080.18 161.04 L 1085.87 165.56 L 1091.56 170.30 L 1097.24 175.22 L 1102.93 180.33 L 1108.62 185.61 L 1114.31 191.06 L 1120.00 196.65 L 1120.00 204.75 L 1114.31 199.16 L 1108.62 193.71 L 1102.93 188.43 L 1097.24 183.32 L 1091.56 178.40 L 1085.87 173.66 L 1080.18 169.14 L 1074.49 164.82 L 1068.80 160.72 L 1063.11 156.85 L 1057.42 153.21 L 1051.73 149.80 L 1046.04 146.64 L 1040.36 143.72 L 1034.67 141.05 L 1028.98 138.62 L 1023.29 136.43 L 1017.60 134.48 L 1011.91 132.76 L 1006.22 131.27 L 1000.53 130.01 L 994.84 128.95 L 989.16 128.08 L 983.47 127.40 L 977.78 126.89 L 972.09 126.52 L 966.40 126.27 L 960.71 126.13 L 955.02 126.07 L 949.33 126.05 Z" fill="#2563eb" fill-opacity="0.05" stroke="none" data-confidence="p50"/>
<path d="M 96.00 378.50 L 101.69 378.50 L 107.38 378.50 L 113.07 378.50 L 118.76 378.50 L 124.44 378.50 L 130.13 378.50 L 135.82 378.50 L 141.51 378.50 L 147.20 378.50 L 152.89 378.50 L 158.58 378.50 L 164.27 378.50 L 169.96 378.50 L 175.64 378.50 L 181.33 378.50 L 187.02 378.50 L 192.71 378.50 L 198.40 378.50 L 204.09 378.50 L 209.78 378.50 L 215.47 378.50 L 221.16 378.50 L 226.84 378.50 L 232.53 378.50 L 238.22 378.50 L 243.91 378.50 L 249.60 378.50 L 255.29 378.50 L 260.98 378.50 L 266.67 378.50 L 272.36 378.50 L 278.04 378.50 L 283.73 378.50 L 289.42 378.50 L 295.11 378.50 L 300.80 378.50 L 306.49 378.50 L 312.18 378.50 L 317.87 378.50 L 323.56 378.50 L 329.24 378.50 L 334.93 378.50 L 340.62 378.50 L 346.31 378.50 L 352.00 378.50 L 357.69 378.50 L 363.38 378.50 L 369.07 378.50 L 374.76 378.50 L 380.44 378.50 L 386.13 378.50 L 391.82 378.50 L 397.51 378.50 L 403.20 378.50 L 408.89 378.50 L 414.58 378.50 L 420.27 378.50 L 425.96 378.50 L 431.64 378.50 L 437.33 378.50 L 443.02 378.50 L 448.71 378.50 L 454.40 378.50 L 460.09 378.50 L 465.78 378.50 L 471.47 378.50 L 477.16 378.50 L 482.84 378.50 L 488.53 378.50 L 494.22 378.50 L 499.91 378.50 L 505.60 378.50 L 511.29 378.50 L 516.98 378.50 L 522.67 378.50 L 528.36 378.50 L 534.04 378.50 L 539.73 378.50 L 545.42 378.50 L 551.11 378.13 L 556.80 374.89 L 562.49 367.90 L 568.18 358.76 L 573.87 349.84 L 579.56 342.60 L 579.56 369.60 L 573.87 376.84 L 568.18 385.76 L 562.49 392.00 L 556.80 392.00 L 551.11 392.00 L 545.42 392.00 L 539.73 392.00 L 534.04 392.00 L 528.36 392.00 L 522.67 392.00 L 516.98 392.00 L 511.29 392.00 L 505.60 392.00 L 499.91 392.00 L 494.22 392.00 L 488.53 392.00 L 482.84 392.00 L 477.16 392.00 L 471.47 392.00 L 465.78 392.00 L 460.09 392.00 L 454.40 392.00 L 448.71 392.00 L 443.02 392.00 L 437.33 392.00 L 431.64 392.00 L 425.96 392.00 L 420.27 392.00 L 414.58 392.00 L 408.89 392.00 L 403.20 392.00 L 397.51 392.00 L 391.82 392.00 L 386.13 392.00 L 380.44 392.00 L 374.76 392.00 L 369.07 392.00 L 363.38 392.00 L 357.69 392.00 L 352.00 392.00 L 346.31 392.00 L 340.62 392.00 L 334.93 392.00 L 329.24 392.00 L 323.56 392.00 L 317.87 392.00 L 312.18 392.00 L 306.49 392.00 L 300.80 392.00 L 295.11 392.00 L 289.42 392.00 L 283.73 392.00 L 278.04 392.00 L 272.36 392.00 L 266.67 392.00 L 260.98 392.00 L 255.29 392.00 L 249.60 392.00 L 243.91 392.00 L 238.22 392.00 L 232.53 392.00 L 226.84 392.00 L 221.16 392.00 L 215.47 392.00 L 209.78 392.00 L 204.09 392.00 L 198.40 392.00 L 192.71 392.00 L 187.02 392.00 L 181.33 392.00 L 175.64 392.00 L 169.96 392.00 L 164.27 392.00 L 158.58 392.00 L 152.89 392.00 L 147.20 392.00 L 141.51 392.00 L 135.82 392.00 L 130.13 392.00 L 124.44 392.00 L 118.76 392.00 L 113.07 392.00 L 107.38 392.00 L 101.69 392.00 L 96.00 392.00 Z" fill="#2563eb" fill-opacity="0.05" stroke="none" data-confidence="p50"/>
<path d="M 580.98 350.45 L 585.24 345.67 L 590.93 339.29 L 596.62 332.90 L 602.31 326.50 L 608.00 320.07 L 608.00 328.17 L 602.31 334.60 L 596.62 341.00 L 590.93 347.39 L 585.24 353.77 L 580.98 358.55 Z" fill="#2563eb" fill-opacity="0.05" stroke="none" data-confidence="p50"/>
<path d="M 608.00 283.43 L 613.69 289.72 L 619.38 296.00 L 625.07 302.26 L 630.76 308.50 L 636.44 314.73 L 642.13 320.93 L 647.82 327.12 L 653.51 333.29 L 659.20 339.46 L 660.62 341.00 L 660.62 368.00 L 659.20 366.46 L 653.51 360.29 L 647.82 354.12 L 642.13 347.93 L 636.44 341.73 L 630.76 335.50 L 625.07 329.26 L 619.38 323.00 L 613.69 316.72 L 608.00 310.43 Z" fill="#dc2626" fill-opacity="0.10" stroke="none" data-confidence="p95"/>
<path d="M 664.89 310.76 L 670.58 318.80 L 676.27 328.13 L 681.96 336.58 L 687.64 341.87 L 693.33 343.38 L 699.02 343.40 L 704.71 343.40 L 710.40 343.40 L 716.09 343.40 L 721.78 343.40 L 727.47 343.40 L 733.16 343.40 L 738.84 343.40 L 744.53 343.40 L 750.22 343.40 L 755.91 343.40 L 761.60 343.40 L 767.29 343.40 L 772.98 343.40 L 778.67 343.40 L 784.36 343.40 L 790.04 343.40 L 795.73 343.40 L 801.42 343.40 L 807.11 343.40 L 812.80 343.40 L 818.49 343.40 L 824.18 343.40 L 829.87 343.40 L 835.56 343.40 L 841.24 343.40 L 846.93 343.40 L 852.62 343.40 L 858.31 343.40 L 864.00 343.40 L 869.69 343.40 L 875.38 343.40 L 881.07 343.40 L 886.76 343.40 L 892.44 343.40 L 898.13 343.40 L 903.82 343.40 L 909.51 343.40 L 915.20 343.40 L 920.89 343.40 L 926.58 343.40 L 932.27 343.40 L 937.96 343.40 L 943.64 343.40 L 949.33 343.40 L 955.02 343.40 L 960.71 343.40 L 966.40 343.40 L 972.09 343.40 L 977.78 343.40 L 983.47 343.40 L 989.16 343.40 L 994.84 343.40 L 1000.53 343.40 L 1006.22 343.40 L 1011.91 343.40 L 1017.60 343.40 L 1023.29 343.40 L 1028.98 343.40 L 1034.67 343.40 L 1040.36 343.40 L 1046.04 343.40 L 1051.73 343.40 L 1057.42 343.40 L 1063.11 343.40 L 1068.80 343.40 L 1074.49 343.40 L 1080.18 343.40 L 1085.87 343.40 L 1091.56 343.40 L 1097.24 343.40 L 1102.93 343.40 L 1108.62 343.40 L 1114.31 343.40 L 1120.00 343.40 L 1120.00 392.00 L 1114.31 392.00 L 1108.62 392.00 L 1102.93 392.00 L 1097.24 392.00 L 1091.56 392.00 L 1085.87 392.00 L 1080.18 392.00 L 1074.49 392.00 L 1068.80 392.00 L 1063.11 392.00 L 1057.42 392.00 L 1051.73 392.00 L 1046.04 392.00 L 1040.36 392.00 L 1034.67 392.00 L 1028.98 392.00 L 1023.29 392.00 L 1017.60 392.00 L 1011.91 392.00 L 1006.22 392.00 L 1000.53 392.00 L 994.84 392.00 L 989.16 392.00 L 983.47 392.00 L 977.78 392.00 L 972.09 392.00 L 966.40 392.00 L 960.71 392.00 L 955.02 392.00 L 949.33 392.00 L 943.64 392.00 L 937.96 392.00 L 932.27 392.00 L 926.58 392.00 L 920.89 392.00 L 915.20 392.00 L 909.51 392.00 L 903.82 392.00 L 898.13 392.00 L 892.44 392.00 L 886.76 392.00 L 881.07 392.00 L 875.38 392.00 L 869.69 392.00 L 864.00 392.00 L 858.31 392.00 L 852.62 392.00 L 846.93 392.00 L 841.24 392.00 L 835.56 392.00 L 829.87 392.00 L 824.18 392.00 L 818.49 392.00 L 812.80 392.00 L 807.11 392.00 L 801.42 392.00 L 795.73 392.00 L 790.04 392.00 L 784.36 392.00 L 778.67 392.00 L 772.98 392.00 L 767.29 392.00 L 761.60 392.00 L 755.91 392.00 L 750.22 392.00 L 744.53 392.00 L 738.84 392.00 L 733.16 392.00 L 727.47 392.00 L 721.78 392.00 L 716.09 392.00 L 710.40 392.00 L 704.71 392.00 L 699.02 392.00 L 693.33 392.00 L 687.64 392.00 L 681.96 392.00 L 676.27 392.00 L 670.58 392.00 L 664.89 392.00 Z" fill="#dc2626" fill-opacity="0.10" stroke="none" data-confidence="p95"/>
<path d="M 96.00 194.52 L 101.69 188.94 L 107.38 183.48 L 113.07 178.16 L 118.76 172.99 L 124.44 167.97 L 130.13 163.13 L 135.82 158.46 L 141.51 153.97 L 147.20 149.68 L 152.89 145.59 L 158.58 141.71 L 164.27 138.04 L 169.96 134.60 L 175.64 131.37 L 181.33 128.37 L 187.02 125.60 L 192.71 123.05 L 198.40 120.74 L 204.09 118.65 L 209.78 116.79 L 215.47 115.14 L 221.16 113.71 L 226.84 112.48 L 232.53 111.45 L 238.22 110.60 L 243.91 109.92 L 249.60 109.40 L 255.29 109.02 L 260.98 108.77 L 266.67 108.61 L 272.36 108.53 L 278.04 108.50 L 278.04 135.50 L 272.36 135.53 L 266.67 135.61 L 260.98 135.77 L 255.29 136.02 L 249.60 136.40 L 243.91 136.92 L 238.22 137.60 L 232.53 138.45 L 226.84 139.48 L 221.16 140.71 L 215.47 142.14 L 209.78 143.79 L 204.09 145.65 L 198.40 147.74 L 192.71 150.05 L 187.02 152.60 L 181.33 155.37 L 175.64 158.37 L 169.96 161.60 L 164.27 165.04 L 158.58 168.71 L 152.89 172.59 L 147.20 176.68 L 141.51 180.97 L 135.82 185.46 L 130.13 190.13 L 124.44 194.97 L 118.76 199.99 L 113.07 205.16 L 107.38 210.48 L 101.69 215.94 L 96.00 221.52 Z" fill="#dc2626" fill-opacity="0.10" stroke="none" data-confidence="p95"/>
<path d="M 283.73 92.00 L 289.42 92.00 L 295.11 92.00 L 300.80 92.00 L 306.49 92.00 L 312.18 92.00 L 317.87 92.00 L 323.56 92.00 L 329.24 92.00 L 334.93 92.00 L 334.93 170.60 L 329.24 170.60 L 323.56 170.60 L 317.87 170.60 L 312.18 170.60 L 306.49 170.60 L 300.80 170.60 L 295.11 170.60 L 289.42 170.60 L 283.73 170.60 Z" fill="#dc2626" fill-opacity="0.10" stroke="none" data-confidence="p95"/>
<path d="M 340.62 108.50 L 346.31 108.51 L 352.00 108.56 L 357.69 108.68 L 363.38 108.88 L 369.07 109.20 L 374.76 109.64 L 380.44 110.24 L 386.13 111.00 L 391.82 111.94 L 397.51 113.07 L 403.20 114.40 L 408.89 115.94 L 414.58 117.69 L 420.27 119.67 L 425.96 121.87 L 431.64 124.30 L 437.33 126.96 L 443.02 129.84 L 448.71 132.95 L 454.40 136.29 L 460.09 139.85 L 465.78 143.63 L 471.47 147.61 L 477.16 151.80 L 482.84 156.19 L 488.53 160.77 L 494.22 165.53 L 499.91 170.46 L 505.60 175.55 L 511.29 180.80 L 516.98 186.19 L 522.67 191.71 L 528.36 197.36 L 534.04 203.12 L 539.73 208.97 L 545.42 214.92 L 551.11 220.95 L 556.80 227.04 L 562.49 233.19 L 568.18 239.39 L 573.87 245.63 L 579.56 251.90 L 580.98 253.48 L 585.24 258.20 L 590.93 264.50 L 596.62 270.81 L 602.31 277.12 L 608.00 283.43 L 608.00 310.43 L 602.31 304.12 L 596.62 297.81 L 590.93 291.50 L 585.24 285.20 L 580.98 280.48 L 579.56 278.90 L 573.87 272.63 L 568.18 266.39 L 562.49 260.19 L 556.80 254.04 L 551.11 247.95 L 545.42 241.92 L 539.73 235.97 L 534.04 230.12 L 528.36 224.36 L 522.67 218.71 L 516.98 213.19 L 511.29 207.80 L 505.60 202.55 L 499.91 197.46 L 494.22 192.53 L 488.53 187.77 L 482.84 183.19 L 477.16 178.80 L 471.47 174.61 L 465.78 170.63 L 460.09 166.85 L 454.40 163.29 L 448.71 159.95 L 443.02 156.84 L 437.33 153.96 L 431.64 151.30 L 425.96 148.87 L 420.27 146.67 L 414.58 144.69 L 408.89 142.94 L 403.20 141.40 L 397.51 140.07 L 391.82 138.94 L 386.13 138.00 L 380.44 137.24 L 374.76 136.64 L 369.07 136.20 L 363.38 135.88 L 357.69 135.68 L 352.00 135.56 L 346.31 135.51 L 340.62 135.50 Z" fill="#dc2626" fill-opacity="0.10" stroke="none" data-confidence="p95"/>
<path d="M 608.00 292.88 L 613.69 299.17 L 619.38 305.45 L 625.07 311.71 L 630.76 317.95 L 636.44 324.18 L 642.13 330.38 L 647.82 336.57 L 653.51 342.74 L 659.20 348.91 L 660.62 350.45 L 660.62 358.55 L 659.20 357.01 L 653.51 350.84 L 647.82 344.67 L 642.13 338.48 L 636.44 332.28 L 630.76 326.05 L 625.07 319.81 L 619.38 313.55 L 613.69 307.27 L 608.00 300.98 Z" fill="#dc2626" fill-opacity="0.05" stroke="none" data-confidence="p50"/>
<path d="M 664.89 345.86 L 670.58 353.90 L 676.27 363.23 L 681.96 371.68 L 687.64 376.97 L 693.33 378.48 L 699.02 378.50 L 704.71 378.50 L 710.40 378.50 L 716.09 378.50 L 721.78 378.50 L 727.47 378.50 L 733.16 378.50 L 738.84 378.50 L 744.53 378.50 L 750.22 378.50 L 755.91 378.50 L 761.60 378.50 L 767.29 378.50 L 772.98 378.50 L 778.67 378.50 L 784.36 378.50 L 790.04 378.50 L 795.73 378.50 L 801.42 378.50 L 807.11 378.50 L 812.80 378.50 L 818.49 378.50 L 824.18 378.50 L 829.87 378.50 L 835.56 378.50 L 841.24 378.50 L 846.93 378.50 L 852.62 378.50 L 858.31 378.50 L 864.00 378.50 L 869.69 378.50 L 875.38 378.50 L 881.07 378.50 L 886.76 378.50 L 892.44 378.50 L 898.13 378.50 L 903.82 378.50 L 909.51 378.50 L 915.20 378.50 L 920.89 378.50 L 926.58 378.50 L 932.27 378.50 L 937.96 378.50 L 943.64 378.50 L 949.33 378.50 L 955.02 378.50 L 960.71 378.50 L 966.40 378.50 L 972.09 378.50 L 977.78 378.50 L 983.47 378.50 L 989.16 378.50 L 994.84 378.50 L 1000.53 378.50 L 1006.22 378.50 L 1011.91 378.50 L 1017.60 378.50 L 1023.29 378.50 L 1028.98 378.50 L 1034.67 378.50 L 1040.36 378.50 L 1046.04 378.50 L 1051.73 378.50 L 1057.42 378.50 L 1063.11 378.50 L 1068.80 378.50 L 1074.49 378.50 L 1080.18 378.50 L 1085.87 378.50 L 1091.56 378.50 L 1097.24 378.50 L 1102.93 378.50 L 1108.62 378.50 L 1114.31 378.50 L 1120.00 378.50 L 1120.00 392.00 L 1114.31 392.00 L 1108.62 392.00 L 1102.93 392.00 L 1097.24 392.00 L 1091.56 392.00 L 1085.87 392.00 L 1080.18 392.00 L 1074.49 392.00 L 1068.80 392.00 L 1063.11 392.00 L 1057.42 392.00 L 1051.73 392.00 L 1046.04 392.00 L 1040.36 392.00 L 1034.67 392.00 L 1028.98 392.00 L 1023.29 392.00 L 1017.60 392.00 L 1011.91 392.00 L 1006.22 392.00 L 1000.53 392.00 L 994.84 392.00 L 989.16 392.00 L 983.47 392.00 L 977.78 392.00 L 972.09 392.00 L 966.40 392.00 L 960.71 392.00 L 955.02 392.00 L 949.33 392.00 L 943.64 392.00 L 937.96 392.00 L 932.27 392.00 L 926.58 392.00 L 920.89 392.00 L 915.20 392.00 L 909.51 392.00 L 903.82 392.00 L 898.13 392.00 L 892.44 392.00 L 886.76 392.00 L 881.07 392.00 L 875.38 392.00 L 869.69 392.00 L 864.00 392.00 L 858.31 392.00 L 852.62 392.00 L 846.93 392.00 L 841.24 392.00 L 835.56 392.00 L 829.87 392.00 L 824.18 392.00 L 818.49 392.00 L 812.80 392.00 L 807.11 392.00 L 801.42 392.00 L 795.73 392.00 L 790.04 392.00 L 784.36 392.00 L 778.67 392.00 L 772.98 392.00 L 767.29 392.00 L 761.60 392.00 L 755.91 392.00 L 750.22 392.00 L 744.53 392.00 L 738.84 392.00 L 733.16 392.00 L 727.47 392.00 L 721.78 392.00 L 716.09 392.00 L 710.40 392.00 L 704.71 392.00 L 699.02 392.00 L 693.33 392.00 L 687.64 392.00 L 681.96 392.00 L 676.27 390.23 L 670.58 380.90 L 664.89 372.86 Z" fill="#dc2626" fill-opacity="0.05" stroke="none" data-confidence="p50"/>
<path d="M 96.00 203.97 L 101.69 198.39 L 107.38 192.93 L 113.07 187.61 L 118.76 182.44 L 124.44 177.42 L 130.13 172.58 L 135.82 167.91 L 141.51 163.42 L 147.20 159.13 L 152.89 155.04 L 158.58 151.16 L 164.27 147.49 L 169.96 144.05 L 175.64 140.82 L 181.33 137.82 L 187.02 135.05 L 192.71 132.50 L 198.40 130.19 L 204.09 128.10 L 209.78 126.24 L 215.47 124.59 L 221.16 123.16 L 226.84 121.93 L 232.53 120.90 L 238.22 120.05 L 243.91 119.37 L 249.60 118.85 L 255.29 118.47 L 260.98 118.22 L 266.67 118.06 L 272.36 117.98 L 278.04 117.95 L 278.04 126.05 L 272.36 126.08 L 266.67 126.16 L 260.98 126.32 L 255.29 126.57 L 249.60 126.95 L 243.91 127.47 L 238.22 128.15 L 232.53 129.00 L 226.84 130.03 L 221.16 131.26 L 215.47 132.69 L 209.78 134.34 L 204.09 136.20 L 198.40 138.29 L 192.71 140.60 L 187.02 143.15 L 181.33 145.92 L 175.64 148.92 L 169.96 152.15 L 164.27 155.59 L 158.58 159.26 L 152.89 163.14 L 147.20 167.23 L 141.51 171.52 L 135.82 176.01 L 130.13 180.68 L 124.44 185.52 L 118.76 190.54 L 113.07 195.71 L 107.38 201.03 L 101.69 206.49 L 96.00 212.07 Z" fill="#dc2626" fill-opacity="0.05" stroke="none" data-confidence="p50"/>
<path d="M 283.73 108.50 L 289.42 108.50 L 295.11 108.50 L 300.80 108.50 L 306.49 108.50 L 312.18 108.50 L 317.87 108.50 L 323.56 108.50 L 329.24 108.50 L 334.93 108.50 L 334.93 135.50 L 329.24 135.50 L 323.56 135.50 L 317.87 135.50 L 312.18 135.50 L 306.49 135.50 L 300.80 135.50 L 295.11 135.50 L 289.42 135.50 L 283.73 135.50 Z" fill="#dc2626" fill-opacity="0.05" stroke="none" data-confidence="p50"/>
<path d="M 340.62 117.95 L 346.31 117.96 L 352.00 118.01 L 357.69 118.13 L 363.38 118.33 L 369.07 118.65 L 374.76 119.09 L 380.44 119.69 L 386.13 120.45 L 391.82 121.39 L 397.51 122.52 L 403.20 123.85 L 408.89 125.39 L 414.58 127.14 L 420.27 129.12 L 425.96 131.32 L 431.64 133.75 L 437.33 136.41 L 443.02 139.29 L 448.71 142.40 L 454.40 145.74 L 460.09 149.30 L 465.78 153.08 L 471.47 157.06 L 477.16 161.25 L 482.84 165.64 L 488.53 170.22 L 494.22 174.98 L 499.91 179.91 L 505.60 185.00 L 511.29 190.25 L 516.98 195.64 L 522.67 201.16 L 528.36 206.81 L 534.04 212.57 L 539.73 218.42 L 545.42 224.37 L 551.11 230.40 L 556.80 236.49 L 562.49 242.64 L 568.18 248.84 L 573.87 255.08 L 579.56 261.35 L 580.98 262.93 L 585.24 267.65 L 590.93 273.95 L 596.62 280.26 L 602.31 286.57 L 608.00 292.88 L 608.00 300.98 L 602.31 294.67 L 596.62 288.36 L 590.93 282.05 L 585.24 275.75 L 580.98 271.03 L 579.56 269.45 L 573.87 263.18 L 568.18 256.94 L 562.49 250.74 L 556.80 244.59 L 551.11 238.50 L 545.42 232.47 L 539.73 226.52 L 534.04 220.67 L 528.36 214.91 L 522.67 209.26 L 516.98 203.74 L 511.29 198.35 L 505.60 193.10 L 499.91 188.01 L 494.22 183.08 L 488.53 178.32 L 482.84 173.74 L 477.16 169.35 L 471.47 165.16 L 465.78 161.18 L 460.09 157.40 L 454.40 153.84 L 448.71 150.50 L 443.02 147.39 L 437.33 144.51 L 431.64 141.85 L 425.96 139.42 L 420.27 137.22 L 414.58 135.24 L 408.89 133.49 L 403.20 131.95 L 397.51 130.62 L 391.82 129.49 L 386.13 128.55 L 380.44 127.79 L 374.76 127.19 L 369.07 126.75 L 363.38 126.43 L 357.69 126.23 L 352.00 126.11 L 346.31 126.06 L 340.62 126.05 Z" fill="#dc2626" fill-opacity="0.05" stroke="none" data-confidence="p50"/>
<path d="M 608.00 324.12 L 613.69 317.68 L 619.38 311.21 L 625.07 304.73 L 630.76 298.22 L 636.44 291.71 L 642.13 285.19 L 647.82 278.66 L 653.51 272.15 L 659.20 265.64 L 660.62 264.02 L 664.89 259.16 L 670.58 252.71 L 676.27 246.30 L 681.96 239.95 L 687.64 233.66 L 693.33 227.44 L 699.02 221.31 L 704.71 215.28 L 710.40 209.35 L 716.09 203.55 L 721.78 197.89 L 727.47 192.37 L 733.16 187.00 L 738.84 181.80 L 744.53 176.79 L 750.22 171.96 L 755.91 167.32 L 761.60 162.90 L 767.29 158.69 L 772.98 154.71 L 778.67 150.95 L 784.36 147.43 L 790.04 144.14 L 795.73 141.10 L 801.42 138.30 L 807.11 135.75 L 812.80 133.44 L 818.49 131.37 L 824.18 129.54 L 829.87 127.94 L 835.56 126.56 L 841.24 125.40 L 846.93 124.44 L 852.62 123.67 L 858.31 123.07 L 864.00 122.63 L 869.69 122.33 L 875.38 122.14 L 881.07 122.04 L 886.76 122.01" fill="none" stroke="#2563eb" stroke-width="2.8" stroke-opacity="0.70" stroke-dasharray="7 5" stroke-linecap="round" stroke-linejoin="round"/>
<path d="M 892.44 122.00 L 898.13 122.00 L 903.82 122.00 L 909.51 122.00 L 915.20 122.00 L 920.89 122.00 L 926.58 122.00 L 932.27 122.00 L 937.96 122.00 L 943.64 122.00" fill="none" stroke="#2563eb" stroke-width="2.8" stroke-opacity="0.45" stroke-dasharray="1 6" stroke-linecap="round" stroke-linejoin="round"/>
<path d="M 949.33 122.00 L 955.02 122.02 L 960.71 122.08 L 966.40 122.22 L 972.09 122.47 L 977.78 122.84 L 983.47 123.35 L 989.16 124.03 L 994.84 124.90 L 1000.53 125.96 L 1006.22 127.22 L 1011.91 128.71 L 1017.60 130.43 L 1023.29 132.38 L 1028.98 134.57 L 1034.67 137.00 L 1040.36 139.67 L 1046.04 142.59 L 1051.73 145.75 L 1057.42 149.16 L 1063.11 152.80 L 1068.80 156.67 L 1074.49 160.77 L 1080.18 165.09 L 1085.87 169.61 L 1091.56 174.35 L 1097.24 179.27 L 1102.93 184.38 L 1108.62 189.66 L 1114.31 195.11 L 1120.00 200.70" fill="none" stroke="#2563eb" stroke-width="2.8" stroke-opacity="0.70" stroke-dasharray="7 5" stroke-linecap="round" stroke-linejoin="round"/>
<path d="M 96.00 392.00 L 101.69 392.00 L 107.38 392.00 L 113.07 392.00 L 118.76 392.00 L 124.44 392.00 L 130.13 392.00 L 135.82 392.00 L 141.51 392.00 L 147.20 392.00 L 152.89 392.00 L 158.58 392.00 L 164.27 392.00 L 169.96 392.00 L 175.64 392.00 L 181.33 392.00 L 187.02 392.00 L 192.71 392.00 L 198.40 392.00 L 204.09 392.00 L 209.78 392.00 L 215.47 392.00 L 221.16 392.00 L 226.84 392.00 L 232.53 392.00 L 238.22 392.00 L 243.91 392.00 L 249.60 392.00 L 255.29 392.00 L 260.98 392.00 L 266.67 392.00 L 272.36 392.00 L 278.04 392.00 L 283.73 392.00 L 289.42 392.00 L 295.11 392.00 L 300.80 392.00 L 306.49 392.00 L 312.18 392.00 L 317.87 392.00 L 323.56 392.00 L 329.24 392.00 L 334.93 392.00 L 340.62 392.00 L 346.31 392.00 L 352.00 392.00 L 357.69 392.00 L 363.38 392.00 L 369.07 392.00 L 374.76 392.00 L 380.44 392.00 L 386.13 392.00 L 391.82 392.00 L 397.51 392.00 L 403.20 392.00 L 408.89 392.00 L 414.58 392.00 L 420.27 392.00 L 425.96 392.00 L 431.64 392.00 L 437.33 392.00 L 443.02 392.00 L 448.71 392.00 L 454.40 392.00 L 460.09 392.00 L 465.78 392.00 L 471.47 392.00 L 477.16 392.00 L 482.84 392.00 L 488.53 392.00 L 494.22 392.00 L 499.91 392.00 L 505.60 392.00 L 511.29 392.00 L 516.98 392.00 L 522.67 392.00 L 528.36 392.00 L 534.04 392.00 L 539.73 392.00 L 545.42 392.00 L 551.11 391.63 L 556.80 388.39 L 562.49 381.40 L 568.18 372.26 L 573.87 363.34 L 579.56 356.10" fill="none" stroke="#2563eb" stroke-width="2.8" stroke-opacity="0.45" stroke-dasharray="1 6" stroke-linecap="round" stroke-linejoin="round"/>
<path d="M 580.98 354.50 L 585.24 349.72 L 590.93 343.34 L 596.62 336.95 L 602.31 330.55 L 608.00 324.12" fill="none" stroke="#2563eb" stroke-width="2.8" stroke-opacity="0.70" stroke-dasharray="7 5" stroke-linecap="round" stroke-linejoin="round"/>
<path d="M 608.00 296.93 L 613.69 303.22 L 619.38 309.50 L 625.07 315.76 L 630.76 322.00 L 636.44 328.23 L 642.13 334.43 L 647.82 340.62 L 653.51 346.79 L 659.20 352.96 L 660.62 354.50" fill="none" stroke="#dc2626" stroke-width="2.8" stroke-opacity="0.70" stroke-dasharray="7 5" stroke-linecap="round" stroke-linejoin="round"/>
<path d="M 664.89 359.36 L 670.58 367.40 L 676.27 376.73 L 681.96 385.18 L 687.64 390.47 L 693.33 391.98 L 699.02 392.00 L 704.71 392.00 L 710.40 392.00 L 716.09 392.00 L 721.78 392.00 L 727.47 392.00 L 733.16 392.00 L 738.84 392.00 L 744.53 392.00 L 750.22 392.00 L 755.91 392.00 L 761.60 392.00 L 767.29 392.00 L 772.98 392.00 L 778.67 392.00 L 784.36 392.00 L 790.04 392.00 L 795.73 392.00 L 801.42 392.00 L 807.11 392.00 L 812.80 392.00 L 818.49 392.00 L 824.18 392.00 L 829.87 392.00 L 835.56 392.00 L 841.24 392.00 L 846.93 392.00 L 852.62 392.00 L 858.31 392.00 L 864.00 392.00 L 869.69 392.00 L 875.38 392.00 L 881.07 392.00 L 886.76 392.00 L 892.44 392.00 L 898.13 392.00 L 903.82 392.00 L 909.51 392.00 L 915.20 392.00 L 920.89 392.00 L 926.58 392.00 L 932.27 392.00 L 937.96 392.00 L 943.64 392.00 L 949.33 392.00 L 955.02 392.00 L 960.71 392.00 L 966.40 392.00 L 972.09 392.00 L 977.78 392.00 L 983.47 392.00 L 989.16 392.00 L 994.84 392.00 L 1000.53 392.00 L 1006.22 392.00 L 1011.91 392.00 L 1017.60 392.00 L 1023.29 392.00 L 1028.98 392.00 L 1034.67 392.00 L 1040.36 392.00 L 1046.04 392.00 L 1051.73 392.00 L 1057.42 392.00 L 1063.11 392.00 L 1068.80 392.00 L 1074.49 392.00 L 1080.18 392.00 L 1085.87 392.00 L 1091.56 392.00 L 1097.24 392.00 L 1102.93 392.00 L 1108.62 392.00 L 1114.31 392.00 L 1120.00 392.00" fill="none" stroke="#dc2626" stroke-width="2.8" stroke-opacity="0.45" stroke-dasharray="1 6" stroke-linecap="round" stroke-linejoin="round"/>
<path d="M 96.00 208.02 L 101.69 202.44 L 107.38 196.98 L 113.07 191.66 L 118.76 186.49 L 124.44 181.47 L 130.13 176.63 L 135.82 171.96 L 141.51 167.47 L 147.20 163.18 L 152.89 159.09 L 158.58 155.21 L 164.27 151.54 L 169.96 148.10 L 175.64 144.87 L 181.33 141.87 L 187.02 139.10 L 192.71 136.55 L 198.40 134.24 L 204.09 132.15 L 209.78 130.29 L 215.47 128.64 L 221.16 127.21 L 226.84 125.98 L 232.53 124.95 L 238.22 124.10 L 243.91 123.42 L 249.60 122.90 L 255.29 122.52 L 260.98 122.27 L 266.67 122.11 L 272.36 122.03 L 278.04 122.00" fill="none" stroke="#dc2626" stroke-width="2.8" stroke-opacity="0.70" stroke-dasharray="7 5" stroke-linecap="round" stroke-linejoin="round"/>
<path d="M 283.73 122.00 L 289.42 122.00 L 295.11 122.00 L 300.80 122.00 L 306.49 122.00 L 312.18 122.00 L 317.87 122.00 L 323.56 122.00 L 329.24 122.00 L 334.93 122.00" fill="none" stroke="#dc2626" stroke-width="2.8" stroke-opacity="0.45" stroke-dasharray="1 6" stroke-linecap="round" stroke-linejoin="round"/>
<path d="M 340.62 122.00 L 346.31 122.01 L 352.00 122.06 L 357.69 122.18 L 363.38 122.38 L 369.07 122.70 L 374.76 123.14 L 380.44 123.74 L 386.13 124.50 L 391.82 125.44 L 397.51 126.57 L 403.20 127.90 L 408.89 129.44 L 414.58 131.19 L 420.27 133.17 L 425.96 135.37 L 431.64 137.80 L 437.33 140.46 L 443.02 143.34 L 448.71 146.45 L 454.40 149.79 L 460.09 153.35 L 465.78 157.13 L 471.47 161.11 L 477.16 165.30 L 482.84 169.69 L 488.53 174.27 L 494.22 179.03 L 499.91 183.96 L 505.60 189.05 L 511.29 194.30 L 516.98 199.69 L 522.67 205.21 L 528.36 210.86 L 534.04 216.62 L 539.73 222.47 L 545.42 228.42 L 551.11 234.45 L 556.80 240.54 L 562.49 246.69 L 568.18 252.89 L 573.87 259.13 L 579.56 265.40 L 580.98 266.98 L 585.24 271.70 L 590.93 278.00 L 596.62 284.31 L 602.31 290.62 L 608.00 296.93" fill="none" stroke="#dc2626" stroke-width="2.8" stroke-opacity="0.70" stroke-dasharray="7 5" stroke-linecap="round" stroke-linejoin="round"/>
<line x1="580.98" y1="92" x2="580.98" y2="392" stroke="#2563eb" stroke-width="1.3" stroke-dasharray="5 5"/>
<text x="584.98" y="180" font-family="Arial, sans-serif" font-size="11" font-weight="700" fill="#2563eb">IO @ 0.050 in 170.5 deg</text>
<line x1="660.62" y1="92" x2="660.62" y2="392" stroke="#dc2626" stroke-width="1.3" stroke-dasharray="5 5"/>
<text x="664.62" y="374" font-family="Arial, sans-serif" font-size="11" font-weight="700" fill="#dc2626">EC @ 0.050 in 198.5 deg</text>
<text x="608" y="434" text-anchor="middle" font-family="Arial, sans-serif" font-size="13" fill="#0f172a">Overlap-centered crank window (deg; 180 = TDC overlap)</text>
<rect x="96" y="444" width="1024" height="86" fill="#ffffff" stroke="#cbd5e1"/>
<line x1="608.00" y1="444" x2="608.00" y2="530" stroke="#64748b" stroke-width="1.2"/>
<text x="32" y="464" font-family="Arial, sans-serif" font-size="13" font-weight="700" fill="#0f172a">Velocity (in/deg)</text>
<line x1="96.00" y1="444" x2="96.00" y2="530" stroke="#cbd5e1"/>
<line x1="224.00" y1="444" x2="224.00" y2="530" stroke="#e2e8f0"/>
<line x1="352.00" y1="444" x2="352.00" y2="530" stroke="#cbd5e1"/>
<line x1="480.00" y1="444" x2="480.00" y2="530" stroke="#e2e8f0"/>
<line x1="608.00" y1="444" x2="608.00" y2="530" stroke="#cbd5e1"/>
<line x1="736.00" y1="444" x2="736.00" y2="530" stroke="#e2e8f0"/>
<line x1="864.00" y1="444" x2="864.00" y2="530" stroke="#cbd5e1"/>
<line x1="992.00" y1="444" x2="992.00" y2="530" stroke="#e2e8f0"/>
<line x1="1120.00" y1="444" x2="1120.00" y2="530" stroke="#cbd5e1"/>
<line x1="96" y1="487.00" x2="1120" y2="487.00" stroke="#94a3b8"/>
<line x1="96" y1="530.00" x2="1120" y2="530.00" stroke="#e2e8f0"/>
<text x="82" y="534.00" text-anchor="end" font-family="Arial, sans-serif" font-size="10" fill="#334155">-0.0063</text>
<line x1="96" y1="487.00" x2="1120" y2="487.00" stroke="#e2e8f0"/>
<text x="82" y="491.00" text-anchor="end" font-family="Arial, sans-serif" font-size="10" fill="#334155">0.0000</text>
<line x1="96" y1="444.00" x2="1120" y2="444.00" stroke="#e2e8f0"/>
<text x="82" y="448.00" text-anchor="end" font-family="Arial, sans-serif" font-size="10" fill="#334155">0.0063</text>
<path d="M 608.00 457.67 L 613.69 457.57 L 619.38 457.48 L 625.07 457.40 L 630.76 457.33 L 636.44 457.29 L 642.13 457.27 L 647.82 457.28 L 653.51 457.32 L 659.20 457.40 L 660.62 457.43 L 664.89 457.52 L 670.58 457.69 L 676.27 457.91 L 681.96 458.17 L 687.64 458.49 L 693.33 458.85 L 699.02 459.27 L 704.71 459.75 L 710.40 460.28 L 716.09 460.86 L 721.78 461.49 L 727.47 462.18 L 733.16 462.92 L 738.84 463.71 L 744.53 464.55 L 750.22 465.43 L 755.91 466.36 L 761.60 467.32 L 767.29 468.32 L 772.98 469.35 L 778.67 470.41 L 784.36 471.49 L 790.04 472.58 L 795.73 473.69 L 801.42 474.81 L 807.11 475.92 L 812.80 477.02 L 818.49 478.11 L 824.18 479.18 L 829.87 480.22 L 835.56 481.22 L 841.24 482.17 L 846.93 483.07 L 852.62 483.90 L 858.31 484.65 L 864.00 485.32 L 869.69 485.90 L 875.38 486.36 L 881.07 486.71 L 886.76 486.93" fill="none" stroke="#2563eb" stroke-width="1.7" stroke-opacity="0.70" stroke-dasharray="7 5" stroke-linecap="round" stroke-linejoin="round"/>
<path d="M 892.44 487.00 L 898.13 487.00 L 903.82 487.00 L 909.51 487.00 L 915.20 487.00 L 920.89 487.00 L 926.58 487.00 L 932.27 487.00 L 937.96 487.00 L 943.64 487.00" fill="none" stroke="#2563eb" stroke-width="1.7" stroke-opacity="0.45" stroke-dasharray="1 6" stroke-linecap="round" stroke-linejoin="round"/>
<path d="M 949.33 487.02 L 955.02 487.17 L 960.71 487.45 L 966.40 487.86 L 972.09 488.38 L 977.78 489.00 L 983.47 489.71 L 989.16 490.51 L 994.84 491.37 L 1000.53 492.30 L 1006.22 493.27 L 1011.91 494.29 L 1017.60 495.35 L 1023.29 496.43 L 1028.98 497.53 L 1034.67 498.64 L 1040.36 499.75 L 1046.04 500.86 L 1051.73 501.97 L 1057.42 503.05 L 1063.11 504.12 L 1068.80 505.17 L 1074.49 506.18 L 1080.18 507.17 L 1085.87 508.11 L 1091.56 509.01 L 1097.24 509.87 L 1102.93 510.69 L 1108.62 511.45 L 1114.31 512.17 L 1120.00 512.83" fill="none" stroke="#2563eb" stroke-width="1.7" stroke-opacity="0.70" stroke-dasharray="7 5" stroke-linecap="round" stroke-linejoin="round"/>
<path d="M 96.00 487.00 L 101.69 487.00 L 107.38 487.00 L 113.07 487.00 L 118.76 487.00 L 124.44 487.00 L 130.13 487.00 L 135.82 487.00 L 141.51 487.00 L 147.20 487.00 L 152.89 487.00 L 158.58 487.00 L 164.27 487.00 L 169.96 487.00 L 175.64 487.00 L 181.33 487.00 L 187.02 487.00 L 192.71 487.00 L 198.40 487.00 L 204.09 487.00 L 209.78 487.00 L 215.47 487.00 L 221.16 487.00 L 226.84 487.00 L 232.53 487.00 L 238.22 487.00 L 243.91 487.00 L 249.60 487.00 L 255.29 487.00 L 260.98 487.00 L 266.67 487.00 L 272.36 487.00 L 278.04 487.00 L 283.73 487.00 L 289.42 487.00 L 295.11 487.00 L 300.80 487.00 L 306.49 487.00 L 312.18 487.00 L 317.87 487.00 L 323.56 487.00 L 329.24 487.00 L 334.93 487.00 L 340.62 487.00 L 346.31 487.00 L 352.00 487.00 L 357.69 487.00 L 363.38 487.00 L 369.07 487.00 L 374.76 487.00 L 380.44 487.00 L 386.13 487.00 L 391.82 487.00 L 397.51 487.00 L 403.20 487.00 L 408.89 487.00 L 414.58 487.00 L 420.27 487.00 L 425.96 487.00 L 431.64 487.00 L 437.33 487.00 L 443.02 487.00 L 448.71 487.00 L 454.40 487.00 L 460.09 487.00 L 465.78 487.00 L 471.47 487.00 L 477.16 487.00 L 482.84 487.00 L 488.53 487.00 L 494.22 487.00 L 499.91 487.00 L 505.60 487.00 L 511.29 487.00 L 516.98 487.00 L 522.67 487.00 L 528.36 487.00 L 534.04 487.00 L 539.73 487.00 L 545.42 487.00 L 551.11 480.74 L 556.80 463.15 L 562.49 448.47 L 568.18 444.13 L 573.87 449.82 L 579.56 457.44" fill="none" stroke="#2563eb" stroke-width="1.7" stroke-opacity="0.45" stroke-dasharray="1 6" stroke-linecap="round" stroke-linejoin="round"/>
<path d="M 580.98 457.96 L 585.24 457.95 L 590.93 457.91 L 596.62 457.84 L 602.31 457.76 L 608.00 457.67" fill="none" stroke="#2563eb" stroke-width="1.7" stroke-opacity="0.70" stroke-dasharray="7 5" stroke-linecap="round" stroke-linejoin="round"/>
<path d="M 608.00 515.71 L 613.69 515.65 L 619.38 515.58 L 625.07 515.50 L 630.76 515.41 L 636.44 515.32 L 642.13 515.24 L 647.82 515.17 L 653.51 515.12 L 659.20 515.09 L 660.62 515.09" fill="none" stroke="#dc2626" stroke-width="1.7" stroke-opacity="0.70" stroke-dasharray="7 5" stroke-linecap="round" stroke-linejoin="round"/>
<path d="M 664.89 519.07 L 670.58 527.81 L 676.27 529.50 L 681.96 519.68 L 687.64 501.93 L 693.33 487.83 L 699.02 487.00 L 704.71 487.00 L 710.40 487.00 L 716.09 487.00 L 721.78 487.00 L 727.47 487.00 L 733.16 487.00 L 738.84 487.00 L 744.53 487.00 L 750.22 487.00 L 755.91 487.00 L 761.60 487.00 L 767.29 487.00 L 772.98 487.00 L 778.67 487.00 L 784.36 487.00 L 790.04 487.00 L 795.73 487.00 L 801.42 487.00 L 807.11 487.00 L 812.80 487.00 L 818.49 487.00 L 824.18 487.00 L 829.87 487.00 L 835.56 487.00 L 841.24 487.00 L 846.93 487.00 L 852.62 487.00 L 858.31 487.00 L 864.00 487.00 L 869.69 487.00 L 875.38 487.00 L 881.07 487.00 L 886.76 487.00 L 892.44 487.00 L 898.13 487.00 L 903.82 487.00 L 909.51 487.00 L 915.20 487.00 L 920.89 487.00 L 926.58 487.00 L 932.27 487.00 L 937.96 487.00 L 943.64 487.00 L 949.33 487.00 L 955.02 487.00 L 960.71 487.00 L 966.40 487.00 L 972.09 487.00 L 977.78 487.00 L 983.47 487.00 L 989.16 487.00 L 994.84 487.00 L 1000.53 487.00 L 1006.22 487.00 L 1011.91 487.00 L 1017.60 487.00 L 1023.29 487.00 L 1028.98 487.00 L 1034.67 487.00 L 1040.36 487.00 L 1046.04 487.00 L 1051.73 487.00 L 1057.42 487.00 L 1063.11 487.00 L 1068.80 487.00 L 1074.49 487.00 L 1080.18 487.00 L 1085.87 487.00 L 1091.56 487.00 L 1097.24 487.00 L 1102.93 487.00 L 1108.62 487.00 L 1114.31 487.00 L 1120.00 487.00" fill="none" stroke="#dc2626" stroke-width="1.7" stroke-opacity="0.45" stroke-dasharray="1 6" stroke-linecap="round" stroke-linejoin="round"/>
<path d="M 96.00 461.27 L 101.69 461.82 L 107.38 462.43 L 113.07 463.08 L 118.76 463.78 L 124.44 464.52 L 130.13 465.31 L 135.82 466.13 L 141.51 467.00 L 147.20 467.90 L 152.89 468.83 L 158.58 469.79 L 164.27 470.78 L 169.96 471.79 L 175.64 472.81 L 181.33 473.85 L 187.02 474.89 L 192.71 475.93 L 198.40 476.97 L 204.09 477.99 L 209.78 479.00 L 215.47 479.99 L 221.16 480.94 L 226.84 481.86 L 232.53 482.72 L 238.22 483.54 L 243.91 484.29 L 249.60 484.97 L 255.29 485.56 L 260.98 486.07 L 266.67 486.48 L 272.36 486.78 L 278.04 486.95" fill="none" stroke="#dc2626" stroke-width="1.7" stroke-opacity="0.70" stroke-dasharray="7 5" stroke-linecap="round" stroke-linejoin="round"/>
<path d="M 283.73 487.00 L 289.42 487.00 L 295.11 487.00 L 300.80 487.00 L 306.49 487.00 L 312.18 487.00 L 317.87 487.00 L 323.56 487.00 L 329.24 487.00 L 334.93 487.00" fill="none" stroke="#dc2626" stroke-width="1.7" stroke-opacity="0.45" stroke-dasharray="1 6" stroke-linecap="round" stroke-linejoin="round"/>
<path d="M 340.62 487.01 L 346.31 487.12 L 352.00 487.36 L 357.69 487.71 L 363.38 488.17 L 369.07 488.72 L 374.76 489.36 L 380.44 490.08 L 386.13 490.86 L 391.82 491.70 L 397.51 492.60 L 403.20 493.53 L 408.89 494.50 L 414.58 495.50 L 420.27 496.52 L 425.96 497.55 L 431.64 498.59 L 437.33 499.63 L 443.02 500.67 L 448.71 501.70 L 454.40 502.72 L 460.09 503.72 L 465.78 504.69 L 471.47 505.64 L 477.16 506.56 L 482.84 507.44 L 488.53 508.28 L 494.22 509.09 L 499.91 509.86 L 505.60 510.58 L 511.29 511.25 L 516.98 511.88 L 522.67 512.46 L 528.36 512.99 L 534.04 513.47 L 539.73 513.91 L 545.42 514.29 L 551.11 514.63 L 556.80 514.92 L 562.49 515.16 L 568.18 515.36 L 573.87 515.52 L 579.56 515.63 L 580.98 515.66 L 585.24 515.71 L 590.93 515.75 L 596.62 515.77 L 602.31 515.75 L 608.00 515.71" fill="none" stroke="#dc2626" stroke-width="1.7" stroke-opacity="0.70" stroke-dasharray="7 5" stroke-linecap="round" stroke-linejoin="round"/>
<rect x="96" y="552" width="1024" height="86" fill="#ffffff" stroke="#cbd5e1"/>
<line x1="608.00" y1="552" x2="608.00" y2="638" stroke="#64748b" stroke-width="1.2"/>
<text x="32" y="572" font-family="Arial, sans-serif" font-size="13" font-weight="700" fill="#0f172a">Acceleration (in/deg^2)</text>
<line x1="96.00" y1="552" x2="96.00" y2="638" stroke="#cbd5e1"/>
<line x1="224.00" y1="552" x2="224.00" y2="638" stroke="#e2e8f0"/>
<line x1="352.00" y1="552" x2="352.00" y2="638" stroke="#cbd5e1"/>
<line x1="480.00" y1="552" x2="480.00" y2="638" stroke="#e2e8f0"/>
<line x1="608.00" y1="552" x2="608.00" y2="638" stroke="#cbd5e1"/>
<line x1="736.00" y1="552" x2="736.00" y2="638" stroke="#e2e8f0"/>
<line x1="864.00" y1="552" x2="864.00" y2="638" stroke="#cbd5e1"/>
<line x1="992.00" y1="552" x2="992.00" y2="638" stroke="#e2e8f0"/>
<line x1="1120.00" y1="552" x2="1120.00" y2="638" stroke="#cbd5e1"/>
<line x1="96" y1="595.00" x2="1120" y2="595.00" stroke="#94a3b8"/>
<line x1="96" y1="638.00" x2="1120" y2="638.00" stroke="#e2e8f0"/>
<text x="82" y="642.00" text-anchor="end" font-family="Arial, sans-serif" font-size="10" fill="#334155">-0.0014</text>
<line x1="96" y1="595.00" x2="1120" y2="595.00" stroke="#e2e8f0"/>
<text x="82" y="599.00" text-anchor="end" font-family="Arial, sans-serif" font-size="10" fill="#334155">0.0000</text>
<line x1="96" y1="552.00" x2="1120" y2="552.00" stroke="#e2e8f0"/>
<text x="82" y="556.00" text-anchor="end" font-family="Arial, sans-serif" font-size="10" fill="#334155">0.0014</text>
<path d="M 96.00 595.00 L 101.69 595.00 L 107.38 595.00 L 113.07 595.00 L 118.76 595.00 L 124.44 595.00 L 130.13 595.00 L 135.82 595.00 L 141.51 595.00 L 147.20 595.00 L 152.89 595.00 L 158.58 595.00 L 164.27 595.00 L 169.96 595.00 L 175.64 595.00 L 181.33 595.00 L 187.02 595.00 L 192.71 595.00 L 198.40 595.00 L 204.09 595.00 L 209.78 595.00 L 215.47 595.00 L 221.16 595.00 L 226.84 595.00 L 232.53 595.00 L 238.22 595.00 L 243.91 595.00 L 249.60 595.00 L 255.29 595.00 L 260.98 595.00 L 266.67 595.00 L 272.36 595.00 L 278.04 595.00 L 283.73 595.00 L 289.42 595.00 L 295.11 595.00 L 300.80 595.00 L 306.49 595.00 L 312.18 595.00 L 317.87 595.00 L 323.56 595.00 L 329.24 595.00 L 334.93 595.00 L 340.62 595.00 L 346.31 595.00 L 352.00 595.00 L 357.69 595.00 L 363.38 595.00 L 369.07 595.00 L 374.76 595.00 L 380.44 595.00 L 386.13 595.00 L 391.82 595.00 L 397.51 595.00 L 403.20 595.00 L 408.89 595.00 L 414.58 595.00 L 420.27 595.00 L 425.96 595.00 L 431.64 595.00 L 437.33 595.00 L 443.02 595.00 L 448.71 595.00 L 454.40 595.00 L 460.09 595.00 L 465.78 595.00 L 471.47 595.00 L 477.16 595.00 L 482.84 595.00 L 488.53 595.00 L 494.22 595.00 L 499.91 595.00 L 505.60 595.00 L 511.29 595.00 L 516.98 595.00 L 522.67 595.00 L 528.36 595.00 L 534.04 595.00 L 539.73 595.00 L 545.42 595.00 L 551.11 561.03 L 556.80 553.17 L 562.49 571.56 L 568.18 598.20 L 573.87 615.07 L 579.56 604.18 L 580.98 595.00 L 585.24 594.94 L 590.93 594.87 L 596.62 594.82 L 602.31 594.79 L 608.00 594.78 L 608.00 594.78 L 613.69 594.78 L 619.38 594.80 L 625.07 594.83 L 630.76 594.87 L 636.44 594.92 L 642.13 594.99 L 647.82 595.06 L 653.51 595.14 L 659.20 595.24 L 660.62 595.26 L 664.89 595.34 L 670.58 595.44 L 676.27 595.55 L 681.96 595.67 L 687.64 595.79 L 693.33 595.91 L 699.02 596.04 L 704.71 596.16 L 710.40 596.29 L 716.09 596.41 L 721.78 596.54 L 727.47 596.66 L 733.16 596.78 L 738.84 596.89 L 744.53 597.00 L 750.22 597.10 L 755.91 597.19 L 761.60 597.28 L 767.29 597.36 L 772.98 597.43 L 778.67 597.48 L 784.36 597.53 L 790.04 597.56 L 795.73 597.58 L 801.42 597.59 L 807.11 597.58 L 812.80 597.55 L 818.49 597.51 L 824.18 597.45 L 829.87 597.37 L 835.56 597.27 L 841.24 597.15 L 846.93 597.01 L 852.62 596.84 L 858.31 596.66 L 864.00 596.45 L 869.69 596.21 L 875.38 595.95 L 881.07 595.66 L 886.76 595.34 L 892.44 595.00 L 898.13 595.00 L 903.82 595.00 L 909.51 595.00 L 915.20 595.00 L 920.89 595.00 L 926.58 595.00 L 932.27 595.00 L 937.96 595.00 L 943.64 595.00 L 949.33 595.17 L 955.02 595.50 L 960.71 595.81 L 966.40 596.08 L 972.09 596.33 L 977.78 596.55 L 983.47 596.75 L 989.16 596.93 L 994.84 597.08 L 1000.53 597.21 L 1006.22 597.32 L 1011.91 597.41 L 1017.60 597.48 L 1023.29 597.53 L 1028.98 597.57 L 1034.67 597.58 L 1040.36 597.59 L 1046.04 597.57 L 1051.73 597.55 L 1057.42 597.51 L 1063.11 597.46 L 1068.80 597.39 L 1074.49 597.32 L 1080.18 597.24 L 1085.87 597.15 L 1091.56 597.05 L 1097.24 596.94 L 1102.93 596.83 L 1108.62 596.72 L 1114.31 596.60 L 1120.00 596.48" fill="none" stroke="#2563eb" stroke-width="1.7" stroke-opacity="0.45" stroke-dasharray="1 6" stroke-linecap="round" stroke-linejoin="round"/>
<path d="M 96.00 596.23 L 101.69 596.35 L 107.38 596.46 L 113.07 596.57 L 118.76 596.67 L 124.44 596.78 L 130.13 596.87 L 135.82 596.96 L 141.51 597.05 L 147.20 597.13 L 152.89 597.20 L 158.58 597.26 L 164.27 597.32 L 169.96 597.36 L 175.64 597.39 L 181.33 597.41 L 187.02 597.42 L 192.71 597.42 L 198.40 597.40 L 204.09 597.37 L 209.78 597.32 L 215.47 597.25 L 221.16 597.17 L 226.84 597.07 L 232.53 596.95 L 238.22 596.82 L 243.91 596.66 L 249.60 596.48 L 255.29 596.29 L 260.98 596.07 L 266.67 595.82 L 272.36 595.55 L 278.04 595.26 L 283.73 595.00 L 289.42 595.00 L 295.11 595.00 L 300.80 595.00 L 306.49 595.00 L 312.18 595.00 L 317.87 595.00 L 323.56 595.00 L 329.24 595.00 L 334.93 595.00 L 340.62 595.11 L 346.31 595.41 L 352.00 595.69 L 357.69 595.95 L 363.38 596.18 L 369.07 596.39 L 374.76 596.58 L 380.44 596.74 L 386.13 596.89 L 391.82 597.02 L 397.51 597.12 L 403.20 597.21 L 408.89 597.29 L 414.58 597.34 L 420.27 597.38 L 425.96 597.41 L 431.64 597.42 L 437.33 597.42 L 443.02 597.40 L 448.71 597.38 L 454.40 597.34 L 460.09 597.29 L 465.78 597.23 L 471.47 597.17 L 477.16 597.09 L 482.84 597.01 L 488.53 596.92 L 494.22 596.82 L 499.91 596.72 L 505.60 596.62 L 511.29 596.51 L 516.98 596.40 L 522.67 596.29 L 528.36 596.18 L 534.04 596.06 L 539.73 595.95 L 545.42 595.84 L 551.11 595.73 L 556.80 595.62 L 562.49 595.51 L 568.18 595.41 L 573.87 595.32 L 579.56 595.23 L 580.98 595.20 L 585.24 595.14 L 590.93 595.06 L 596.62 595.00 L 602.31 594.94 L 608.00 594.88 L 608.00 594.88 L 613.69 594.84 L 619.38 594.81 L 625.07 594.80 L 630.76 594.79 L 636.44 594.80 L 642.13 594.82 L 647.82 594.86 L 653.51 594.91 L 659.20 594.98 L 660.62 595.00 L 664.89 615.36 L 670.58 610.38 L 676.27 585.75 L 681.96 560.08 L 687.64 552.00 L 693.33 580.13 L 699.02 595.00 L 704.71 595.00 L 710.40 595.00 L 716.09 595.00 L 721.78 595.00 L 727.47 595.00 L 733.16 595.00 L 738.84 595.00 L 744.53 595.00 L 750.22 595.00 L 755.91 595.00 L 761.60 595.00 L 767.29 595.00 L 772.98 595.00 L 778.67 595.00 L 784.36 595.00 L 790.04 595.00 L 795.73 595.00 L 801.42 595.00 L 807.11 595.00 L 812.80 595.00 L 818.49 595.00 L 824.18 595.00 L 829.87 595.00 L 835.56 595.00 L 841.24 595.00 L 846.93 595.00 L 852.62 595.00 L 858.31 595.00 L 864.00 595.00 L 869.69 595.00 L 875.38 595.00 L 881.07 595.00 L 886.76 595.00 L 892.44 595.00 L 898.13 595.00 L 903.82 595.00 L 909.51 595.00 L 915.20 595.00 L 920.89 595.00 L 926.58 595.00 L 932.27 595.00 L 937.96 595.00 L 943.64 595.00 L 949.33 595.00 L 955.02 595.00 L 960.71 595.00 L 966.40 595.00 L 972.09 595.00 L 977.78 595.00 L 983.47 595.00 L 989.16 595.00 L 994.84 595.00 L 1000.53 595.00 L 1006.22 595.00 L 1011.91 595.00 L 1017.60 595.00 L 1023.29 595.00 L 1028.98 595.00 L 1034.67 595.00 L 1040.36 595.00 L 1046.04 595.00 L 1051.73 595.00 L 1057.42 595.00 L 1063.11 595.00 L 1068.80 595.00 L 1074.49 595.00 L 1080.18 595.00 L 1085.87 595.00 L 1091.56 595.00 L 1097.24 595.00 L 1102.93 595.00 L 1108.62 595.00 L 1114.31 595.00 L 1120.00 595.00" fill="none" stroke="#dc2626" stroke-width="1.7" stroke-opacity="0.45" stroke-dasharray="1 6" stroke-linecap="round" stroke-linejoin="round"/>
<rect x="96" y="660" width="1024" height="86" fill="#ffffff" stroke="#cbd5e1"/>
<line x1="608.00" y1="660" x2="608.00" y2="746" stroke="#64748b" stroke-width="1.2"/>
<text x="32" y="680" font-family="Arial, sans-serif" font-size="13" font-weight="700" fill="#0f172a">Jerk (in/deg^3)</text>
<line x1="96.00" y1="660" x2="96.00" y2="746" stroke="#cbd5e1"/>
<line x1="224.00" y1="660" x2="224.00" y2="746" stroke="#e2e8f0"/>
<line x1="352.00" y1="660" x2="352.00" y2="746" stroke="#cbd5e1"/>
<line x1="480.00" y1="660" x2="480.00" y2="746" stroke="#e2e8f0"/>
<line x1="608.00" y1="660" x2="608.00" y2="746" stroke="#cbd5e1"/>
<line x1="736.00" y1="660" x2="736.00" y2="746" stroke="#e2e8f0"/>
<line x1="864.00" y1="660" x2="864.00" y2="746" stroke="#cbd5e1"/>
<line x1="992.00" y1="660" x2="992.00" y2="746" stroke="#e2e8f0"/>
<line x1="1120.00" y1="660" x2="1120.00" y2="746" stroke="#cbd5e1"/>
<line x1="96" y1="703.00" x2="1120" y2="703.00" stroke="#94a3b8"/>
<line x1="96" y1="746.00" x2="1120" y2="746.00" stroke="#e2e8f0"/>
<text x="82" y="750.00" text-anchor="end" font-family="Arial, sans-serif" font-size="10" fill="#334155">-0.0008</text>
<line x1="96" y1="703.00" x2="1120" y2="703.00" stroke="#e2e8f0"/>
<text x="82" y="707.00" text-anchor="end" font-family="Arial, sans-serif" font-size="10" fill="#334155">0.0000</text>
<line x1="96" y1="660.00" x2="1120" y2="660.00" stroke="#e2e8f0"/>
<text x="82" y="664.00" text-anchor="end" font-family="Arial, sans-serif" font-size="10" fill="#334155">0.0008</text>
<path d="M 96.00 703.00 L 101.69 703.00 L 107.38 703.00 L 113.07 703.00 L 118.76 703.00 L 124.44 703.00 L 130.13 703.00 L 135.82 703.00 L 141.51 703.00 L 147.20 703.00 L 152.89 703.00 L 158.58 703.00 L 164.27 703.00 L 169.96 703.00 L 175.64 703.00 L 181.33 703.00 L 187.02 703.00 L 192.71 703.00 L 198.40 703.00 L 204.09 703.00 L 209.78 703.00 L 215.47 703.00 L 221.16 703.00 L 226.84 703.00 L 232.53 703.00 L 238.22 703.00 L 243.91 703.00 L 249.60 703.00 L 255.29 703.00 L 260.98 703.00 L 266.67 703.00 L 272.36 703.00 L 278.04 703.00 L 283.73 703.00 L 289.42 703.00 L 295.11 703.00 L 300.80 703.00 L 306.49 703.00 L 312.18 703.00 L 317.87 703.00 L 323.56 703.00 L 329.24 703.00 L 334.93 703.00 L 340.62 703.00 L 346.31 703.00 L 352.00 703.00 L 357.69 703.00 L 363.38 703.00 L 369.07 703.00 L 374.76 703.00 L 380.44 703.00 L 386.13 703.00 L 391.82 703.00 L 397.51 703.00 L 403.20 703.00 L 408.89 703.00 L 414.58 703.00 L 420.27 703.00 L 425.96 703.00 L 431.64 703.00 L 437.33 703.00 L 443.02 703.00 L 448.71 703.00 L 454.40 703.00 L 460.09 703.00 L 465.78 703.00 L 471.47 703.00 L 477.16 703.00 L 482.84 703.00 L 488.53 703.00 L 494.22 703.00 L 499.91 703.00 L 505.60 703.00 L 511.29 703.00 L 516.98 703.00 L 522.67 703.00 L 528.36 703.00 L 534.04 703.00 L 539.73 703.00 L 545.42 703.00 L 551.11 680.86 L 556.80 709.78 L 562.49 723.92 L 568.18 723.30 L 573.87 707.91 L 579.56 677.75 L 580.98 667.90 L 585.24 702.94 L 590.93 702.95 L 596.62 702.97 L 602.31 702.98 L 608.00 702.99 L 608.00 702.99 L 613.69 703.01 L 619.38 703.02 L 625.07 703.03 L 630.76 703.04 L 636.44 703.05 L 642.13 703.06 L 647.82 703.07 L 653.51 703.07 L 659.20 703.08 L 660.62 703.08 L 664.89 703.08 L 670.58 703.09 L 676.27 703.09 L 681.96 703.10 L 687.64 703.10 L 693.33 703.10 L 699.02 703.10 L 704.71 703.10 L 710.40 703.10 L 716.09 703.10 L 721.78 703.10 L 727.47 703.10 L 733.16 703.09 L 738.84 703.09 L 744.53 703.09 L 750.22 703.08 L 755.91 703.07 L 761.60 703.07 L 767.29 703.06 L 772.98 703.05 L 778.67 703.04 L 784.36 703.03 L 790.04 703.02 L 795.73 703.01 L 801.42 703.00 L 807.11 702.99 L 812.80 702.97 L 818.49 702.96 L 824.18 702.94 L 829.87 702.93 L 835.56 702.91 L 841.24 702.89 L 846.93 702.88 L 852.62 702.86 L 858.31 702.84 L 864.00 702.82 L 869.69 702.80 L 875.38 702.77 L 881.07 702.75 L 886.76 702.73 L 892.44 703.00 L 898.13 703.00 L 903.82 703.00 L 909.51 703.00 L 915.20 703.00 L 920.89 703.00 L 926.58 703.00 L 932.27 703.00 L 937.96 703.00 L 943.64 703.00 L 949.33 703.28 L 955.02 703.26 L 960.71 703.24 L 966.40 703.21 L 972.09 703.19 L 977.78 703.17 L 983.47 703.15 L 989.16 703.13 L 994.84 703.12 L 1000.53 703.10 L 1006.22 703.08 L 1011.91 703.07 L 1017.60 703.05 L 1023.29 703.04 L 1028.98 703.02 L 1034.67 703.01 L 1040.36 703.00 L 1046.04 702.98 L 1051.73 702.97 L 1057.42 702.96 L 1063.11 702.95 L 1068.80 702.94 L 1074.49 702.94 L 1080.18 702.93 L 1085.87 702.92 L 1091.56 702.92 L 1097.24 702.91 L 1102.93 702.91 L 1108.62 702.90 L 1114.31 702.90 L 1120.00 702.90" fill="none" stroke="#2563eb" stroke-width="1.7" stroke-opacity="0.45" stroke-dasharray="1 6" stroke-linecap="round" stroke-linejoin="round"/>
<path d="M 96.00 703.09 L 101.69 703.09 L 107.38 703.09 L 113.07 703.09 L 118.76 703.09 L 124.44 703.08 L 130.13 703.08 L 135.82 703.07 L 141.51 703.07 L 147.20 703.06 L 152.89 703.05 L 158.58 703.05 L 164.27 703.04 L 169.96 703.03 L 175.64 703.02 L 181.33 703.01 L 187.02 703.00 L 192.71 702.99 L 198.40 702.98 L 204.09 702.97 L 209.78 702.95 L 215.47 702.94 L 221.16 702.93 L 226.84 702.91 L 232.53 702.90 L 238.22 702.88 L 243.91 702.86 L 249.60 702.85 L 255.29 702.83 L 260.98 702.81 L 266.67 702.79 L 272.36 702.77 L 278.04 702.75 L 283.73 703.00 L 289.42 703.00 L 295.11 703.00 L 300.80 703.00 L 306.49 703.00 L 312.18 703.00 L 317.87 703.00 L 323.56 703.00 L 329.24 703.00 L 334.93 703.00 L 340.62 703.26 L 346.31 703.24 L 352.00 703.22 L 357.69 703.20 L 363.38 703.18 L 369.07 703.16 L 374.76 703.15 L 380.44 703.13 L 386.13 703.11 L 391.82 703.10 L 397.51 703.08 L 403.20 703.07 L 408.89 703.05 L 414.58 703.04 L 420.27 703.03 L 425.96 703.01 L 431.64 703.00 L 437.33 702.99 L 443.02 702.98 L 448.71 702.97 L 454.40 702.96 L 460.09 702.96 L 465.78 702.95 L 471.47 702.94 L 477.16 702.94 L 482.84 702.93 L 488.53 702.92 L 494.22 702.92 L 499.91 702.92 L 505.60 702.91 L 511.29 702.91 L 516.98 702.91 L 522.67 702.91 L 528.36 702.91 L 534.04 702.91 L 539.73 702.91 L 545.42 702.91 L 551.11 702.91 L 556.80 702.91 L 562.49 702.92 L 568.18 702.92 L 573.87 702.92 L 579.56 702.93 L 580.98 702.93 L 585.24 702.93 L 590.93 702.94 L 596.62 702.95 L 602.31 702.95 L 608.00 702.96 L 608.00 702.96 L 613.69 702.97 L 619.38 702.98 L 625.07 702.99 L 630.76 703.00 L 636.44 703.01 L 642.13 703.02 L 647.82 703.04 L 653.51 703.05 L 659.20 703.06 L 660.62 703.07 L 664.89 712.06 L 670.58 688.31 L 676.27 679.83 L 681.96 686.62 L 687.64 708.68 L 693.33 746.00 L 699.02 703.00 L 704.71 703.00 L 710.40 703.00 L 716.09 703.00 L 721.78 703.00 L 727.47 703.00 L 733.16 703.00 L 738.84 703.00 L 744.53 703.00 L 750.22 703.00 L 755.91 703.00 L 761.60 703.00 L 767.29 703.00 L 772.98 703.00 L 778.67 703.00 L 784.36 703.00 L 790.04 703.00 L 795.73 703.00 L 801.42 703.00 L 807.11 703.00 L 812.80 703.00 L 818.49 703.00 L 824.18 703.00 L 829.87 703.00 L 835.56 703.00 L 841.24 703.00 L 846.93 703.00 L 852.62 703.00 L 858.31 703.00 L 864.00 703.00 L 869.69 703.00 L 875.38 703.00 L 881.07 703.00 L 886.76 703.00 L 892.44 703.00 L 898.13 703.00 L 903.82 703.00 L 909.51 703.00 L 915.20 703.00 L 920.89 703.00 L 926.58 703.00 L 932.27 703.00 L 937.96 703.00 L 943.64 703.00 L 949.33 703.00 L 955.02 703.00 L 960.71 703.00 L 966.40 703.00 L 972.09 703.00 L 977.78 703.00 L 983.47 703.00 L 989.16 703.00 L 994.84 703.00 L 1000.53 703.00 L 1006.22 703.00 L 1011.91 703.00 L 1017.60 703.00 L 1023.29 703.00 L 1028.98 703.00 L 1034.67 703.00 L 1040.36 703.00 L 1046.04 703.00 L 1051.73 703.00 L 1057.42 703.00 L 1063.11 703.00 L 1068.80 703.00 L 1074.49 703.00 L 1080.18 703.00 L 1085.87 703.00 L 1091.56 703.00 L 1097.24 703.00 L 1102.93 703.00 L 1108.62 703.00 L 1114.31 703.00 L 1120.00 703.00" fill="none" stroke="#dc2626" stroke-width="1.7" stroke-opacity="0.45" stroke-dasharray="1 6" stroke-linecap="round" stroke-linejoin="round"/>

<text x="96" y="776" font-family="Arial, sans-serif" font-size="13" font-weight="700" fill="#0f172a">Secondary 720 deg overview</text>
<rect x="96" y="786" width="1024" height="54" fill="#f8fafc" stroke="#cbd5e1"/>
<rect x="96.00" y="786" width="256.00" height="54" fill="#e2e8f0" fill-opacity="0.35"/>
<rect x="864.00" y="786" width="256.00" height="54" fill="#e2e8f0" fill-opacity="0.35"/>
<line x1="96.00" y1="786" x2="96.00" y2="840" stroke="#e2e8f0"/>
<text x="96.00" y="854" text-anchor="middle" font-family="Arial, sans-serif" font-size="10" fill="#475569">0</text>
<line x1="352.00" y1="786" x2="352.00" y2="840" stroke="#e2e8f0"/>
<text x="352.00" y="854" text-anchor="middle" font-family="Arial, sans-serif" font-size="10" fill="#475569">180</text>
<line x1="608.00" y1="786" x2="608.00" y2="840" stroke="#e2e8f0"/>
<text x="608.00" y="854" text-anchor="middle" font-family="Arial, sans-serif" font-size="10" fill="#475569">360</text>
<line x1="864.00" y1="786" x2="864.00" y2="840" stroke="#e2e8f0"/>
<text x="864.00" y="854" text-anchor="middle" font-family="Arial, sans-serif" font-size="10" fill="#475569">540</text>
<line x1="1120.00" y1="786" x2="1120.00" y2="840" stroke="#e2e8f0"/>
<text x="1120.00" y="854" text-anchor="middle" font-family="Arial, sans-serif" font-size="10" fill="#475569">720</text>
<path d="M 96.00 827.78 L 98.84 826.62 L 101.69 825.46 L 104.53 824.29 L 107.38 823.12 L 110.22 821.95 L 113.07 820.77 L 115.91 819.60 L 118.76 818.43 L 121.60 817.26 L 122.31 816.96 L 124.44 816.09 L 127.29 814.93 L 130.13 813.77 L 132.98 812.63 L 135.82 811.50 L 138.67 810.38 L 141.51 809.28 L 144.36 808.19 L 147.20 807.12 L 150.04 806.08 L 152.89 805.06 L 155.73 804.07 L 158.58 803.10 L 161.42 802.16 L 164.27 801.26 L 167.11 800.39 L 169.96 799.56 L 172.80 798.76 L 175.64 798.00 L 178.49 797.29 L 181.33 796.61 L 184.18 795.98 L 187.02 795.39 L 189.87 794.84 L 192.71 794.33 L 195.56 793.88 L 198.40 793.46 L 201.24 793.09 L 204.09 792.76 L 206.93 792.47 L 209.78 792.22 L 212.62 792.01 L 215.47 791.84 L 218.31 791.70 L 221.16 791.59 L 224.00 791.51 L 226.84 791.46 L 229.69 791.43 L 232.53 791.41 L 235.38 791.40" fill="none" stroke="#2563eb" stroke-width="1.3" stroke-opacity="0.70" stroke-linecap="round" stroke-linejoin="round"/>
<path d="M 238.22 791.40 L 241.07 791.40 L 243.91 791.40 L 246.76 791.40 L 249.60 791.40 L 252.44 791.40 L 255.29 791.40 L 258.13 791.40 L 260.98 791.40 L 263.82 791.40" fill="none" stroke="#2563eb" stroke-width="1.3" stroke-opacity="0.70" stroke-linecap="round" stroke-linejoin="round"/>
<path d="M 266.67 791.40 L 269.51 791.40 L 272.36 791.41 L 275.20 791.44 L 278.04 791.48 L 280.89 791.55 L 283.73 791.64 L 286.58 791.77 L 289.42 791.92 L 292.27 792.11 L 295.11 792.34 L 297.96 792.61 L 300.80 792.92 L 303.64 793.27 L 306.49 793.66 L 309.33 794.10 L 312.18 794.58 L 315.02 795.11 L 317.87 795.68 L 320.71 796.29 L 323.56 796.94 L 326.40 797.64 L 329.24 798.38 L 332.09 799.16 L 334.93 799.97 L 337.78 800.82 L 340.62 801.71 L 343.47 802.63 L 346.31 803.58 L 349.16 804.56 L 352.00 805.57 L 354.84 806.60 L 357.69 807.65 L 360.53 808.73 L 363.38 809.83 L 366.22 810.94 L 369.07 812.06 L 371.91 813.20 L 374.76 814.35 L 377.60 815.51 L 380.44 816.67 L 383.29 817.84 L 386.13 819.01 L 388.98 820.19 L 391.82 821.36 L 394.67 822.53 L 397.51 823.71 L 400.36 824.87 L 403.20 826.04 L 406.04 827.20 L 408.89 828.36 L 411.73 829.52 L 414.58 830.67 L 417.42 831.82 L 420.27 832.96 L 420.98 833.25" fill="none" stroke="#2563eb" stroke-width="1.3" stroke-opacity="0.70" stroke-linecap="round" stroke-linejoin="round"/>
<path d="M 423.11 834.15 L 425.96 835.61 L 428.80 837.29 L 431.64 838.79 L 434.49 839.73 L 437.33 840.00 L 440.18 840.00 L 443.02 840.00 L 445.87 840.00 L 448.71 840.00 L 451.56 840.00 L 454.40 840.00 L 457.24 840.00 L 460.09 840.00 L 462.93 840.00 L 465.78 840.00 L 468.62 840.00 L 471.47 840.00 L 474.31 840.00 L 477.16 840.00 L 480.00 840.00 L 482.84 840.00 L 485.69 840.00 L 488.53 840.00 L 491.38 840.00 L 494.22 840.00 L 497.07 840.00 L 499.91 840.00 L 502.76 840.00 L 505.60 840.00 L 508.44 840.00 L 511.29 840.00 L 514.13 840.00 L 516.98 840.00 L 519.82 840.00 L 522.67 840.00 L 525.51 840.00 L 528.36 840.00 L 531.20 840.00 L 534.04 840.00 L 536.89 840.00 L 539.73 840.00 L 542.58 840.00 L 545.42 840.00 L 548.27 840.00 L 551.11 840.00 L 553.96 840.00 L 556.80 840.00 L 559.64 840.00 L 562.49 840.00 L 565.33 840.00 L 568.18 840.00 L 571.02 840.00 L 573.87 840.00 L 576.71 840.00 L 579.56 840.00 L 582.40 840.00 L 585.24 840.00 L 588.09 840.00 L 590.93 840.00 L 593.78 840.00 L 596.62 840.00 L 599.47 840.00 L 602.31 840.00 L 605.16 840.00 L 608.00 840.00 L 610.84 840.00 L 613.69 840.00 L 616.53 840.00 L 619.38 840.00 L 622.22 840.00 L 625.07 840.00 L 627.91 840.00 L 630.76 840.00 L 633.60 840.00 L 636.44 840.00 L 639.29 840.00 L 642.13 840.00 L 644.98 840.00 L 647.82 840.00 L 650.67 840.00 L 653.51 840.00 L 656.36 840.00 L 659.20 840.00 L 662.04 840.00 L 664.89 840.00 L 667.73 840.00 L 670.58 840.00 L 673.42 840.00 L 676.27 840.00 L 679.11 840.00 L 681.96 840.00 L 684.80 840.00 L 687.64 840.00 L 690.49 840.00 L 693.33 840.00 L 696.18 840.00 L 699.02 840.00 L 701.87 840.00 L 704.71 840.00 L 707.56 840.00 L 710.40 840.00 L 713.24 840.00 L 716.09 840.00 L 718.93 840.00 L 721.78 840.00 L 724.62 840.00 L 727.47 840.00 L 730.31 840.00 L 733.16 840.00 L 736.00 840.00 L 738.84 840.00 L 741.69 840.00 L 744.53 840.00 L 747.38 840.00 L 750.22 840.00 L 753.07 840.00 L 755.91 840.00 L 758.76 840.00 L 761.60 840.00 L 764.44 840.00 L 767.29 840.00 L 770.13 840.00 L 772.98 840.00 L 775.82 840.00 L 778.67 840.00 L 781.51 840.00 L 784.36 840.00 L 787.20 840.00 L 790.04 840.00 L 792.89 840.00 L 795.73 840.00 L 796.44 840.00 L 798.58 840.00 L 801.42 840.00 L 804.27 840.00 L 807.11 840.00 L 809.96 840.00 L 812.80 840.00 L 815.64 840.00 L 818.49 840.00 L 821.33 840.00 L 824.18 840.00 L 827.02 840.00 L 829.87 840.00 L 832.71 840.00 L 835.56 840.00 L 838.40 840.00 L 841.24 840.00 L 844.09 840.00 L 846.93 840.00 L 849.78 840.00 L 852.62 840.00 L 855.47 840.00 L 858.31 840.00 L 861.16 840.00 L 864.00 840.00 L 866.84 840.00 L 869.69 840.00 L 872.53 840.00 L 875.38 840.00 L 878.22 840.00 L 881.07 840.00 L 883.91 840.00 L 886.76 840.00 L 889.60 840.00 L 892.44 840.00 L 895.29 840.00 L 898.13 840.00 L 900.98 840.00 L 903.82 840.00 L 906.67 840.00 L 909.51 840.00 L 912.36 840.00 L 915.20 840.00 L 918.04 840.00 L 920.89 840.00 L 923.73 840.00 L 926.58 840.00 L 929.42 840.00 L 932.27 840.00 L 935.11 840.00 L 937.96 840.00 L 940.80 840.00 L 943.64 840.00 L 946.49 840.00 L 949.33 840.00 L 952.18 840.00 L 955.02 840.00 L 957.87 840.00 L 960.71 840.00 L 963.56 840.00 L 966.40 840.00 L 969.24 840.00 L 972.09 840.00 L 974.93 840.00 L 977.78 840.00 L 980.62 840.00 L 983.47 840.00 L 986.31 840.00 L 989.16 840.00 L 992.00 840.00 L 994.84 840.00 L 997.69 840.00 L 1000.53 840.00 L 1003.38 840.00 L 1006.22 840.00 L 1009.07 840.00 L 1011.91 840.00 L 1014.76 840.00 L 1017.60 840.00 L 1020.44 840.00 L 1023.29 840.00 L 1026.13 840.00 L 1028.98 840.00 L 1031.82 840.00 L 1034.67 840.00 L 1037.51 840.00 L 1040.36 840.00 L 1043.20 840.00 L 1046.04 840.00 L 1048.89 840.00 L 1051.73 840.00 L 1054.58 840.00 L 1057.42 840.00 L 1060.27 840.00 L 1063.11 840.00 L 1065.96 840.00 L 1068.80 840.00 L 1071.64 840.00 L 1074.49 840.00 L 1077.33 840.00 L 1080.18 840.00 L 1083.02 840.00 L 1085.87 840.00 L 1088.71 840.00 L 1091.56 839.93 L 1094.40 839.35 L 1097.24 838.09 L 1100.09 836.45 L 1102.93 834.84 L 1105.78 833.54" fill="none" stroke="#2563eb" stroke-width="1.3" stroke-opacity="0.70" stroke-linecap="round" stroke-linejoin="round"/>
<path d="M 1106.49 833.25 L 1108.62 832.39 L 1111.47 831.24 L 1114.31 830.09 L 1117.16 828.94 L 1120.00 827.78" fill="none" stroke="#2563eb" stroke-width="1.3" stroke-opacity="0.70" stroke-linecap="round" stroke-linejoin="round"/>
<path d="M 96.00 822.89 L 98.84 824.02 L 101.69 825.15 L 104.53 826.28 L 107.38 827.40 L 110.22 828.52 L 113.07 829.64 L 115.91 830.75 L 118.76 831.86 L 121.60 832.97 L 122.31 833.25" fill="none" stroke="#dc2626" stroke-width="1.3" stroke-opacity="0.70" stroke-linecap="round" stroke-linejoin="round"/>
<path d="M 124.44 834.12 L 127.29 835.57 L 130.13 837.25 L 132.98 838.77 L 135.82 839.73 L 138.67 840.00 L 141.51 840.00 L 144.36 840.00 L 147.20 840.00 L 150.04 840.00 L 152.89 840.00 L 155.73 840.00 L 158.58 840.00 L 161.42 840.00 L 164.27 840.00 L 167.11 840.00 L 169.96 840.00 L 172.80 840.00 L 175.64 840.00 L 178.49 840.00 L 181.33 840.00 L 184.18 840.00 L 187.02 840.00 L 189.87 840.00 L 192.71 840.00 L 195.56 840.00 L 198.40 840.00 L 201.24 840.00 L 204.09 840.00 L 206.93 840.00 L 209.78 840.00 L 212.62 840.00 L 215.47 840.00 L 218.31 840.00 L 221.16 840.00 L 224.00 840.00 L 226.84 840.00 L 229.69 840.00 L 232.53 840.00 L 235.38 840.00 L 238.22 840.00 L 241.07 840.00 L 243.91 840.00 L 246.76 840.00 L 249.60 840.00 L 252.44 840.00 L 255.29 840.00 L 258.13 840.00 L 260.98 840.00 L 263.82 840.00 L 266.67 840.00 L 269.51 840.00 L 272.36 840.00 L 275.20 840.00 L 278.04 840.00 L 280.89 840.00 L 283.73 840.00 L 286.58 840.00 L 289.42 840.00 L 292.27 840.00 L 295.11 840.00 L 297.96 840.00 L 300.80 840.00 L 303.64 840.00 L 306.49 840.00 L 309.33 840.00 L 312.18 840.00 L 315.02 840.00 L 317.87 840.00 L 320.71 840.00 L 323.56 840.00 L 326.40 840.00 L 329.24 840.00 L 332.09 840.00 L 334.93 840.00 L 337.78 840.00 L 340.62 840.00 L 343.47 840.00 L 346.31 840.00 L 349.16 840.00 L 352.00 840.00 L 354.84 840.00 L 357.69 840.00 L 360.53 840.00 L 363.38 840.00 L 366.22 840.00 L 369.07 840.00 L 371.91 840.00 L 374.76 840.00 L 377.60 840.00 L 380.44 840.00 L 383.29 840.00 L 386.13 840.00 L 388.98 840.00 L 391.82 840.00 L 394.67 840.00 L 397.51 840.00 L 400.36 840.00 L 403.20 840.00 L 406.04 840.00 L 408.89 840.00 L 411.73 840.00 L 414.58 840.00 L 417.42 840.00 L 420.27 840.00 L 420.98 840.00 L 423.11 840.00 L 425.96 840.00 L 428.80 840.00 L 431.64 840.00 L 434.49 840.00 L 437.33 840.00 L 440.18 840.00 L 443.02 840.00 L 445.87 840.00 L 448.71 840.00 L 451.56 840.00 L 454.40 840.00 L 457.24 840.00 L 460.09 840.00 L 462.93 840.00 L 465.78 840.00 L 468.62 840.00 L 471.47 840.00 L 474.31 840.00 L 477.16 840.00 L 480.00 840.00 L 482.84 840.00 L 485.69 840.00 L 488.53 840.00 L 491.38 840.00 L 494.22 840.00 L 497.07 840.00 L 499.91 840.00 L 502.76 840.00 L 505.60 840.00 L 508.44 840.00 L 511.29 840.00 L 514.13 840.00 L 516.98 840.00 L 519.82 840.00 L 522.67 840.00 L 525.51 840.00 L 528.36 840.00 L 531.20 840.00 L 534.04 840.00 L 536.89 840.00 L 539.73 840.00 L 542.58 840.00 L 545.42 840.00 L 548.27 840.00 L 551.11 840.00 L 553.96 840.00 L 556.80 840.00 L 559.64 840.00 L 562.49 840.00 L 565.33 840.00 L 568.18 840.00 L 571.02 840.00 L 573.87 840.00 L 576.71 840.00 L 579.56 840.00 L 582.40 840.00 L 585.24 840.00 L 588.09 840.00 L 590.93 840.00 L 593.78 840.00 L 596.62 840.00 L 599.47 840.00 L 602.31 840.00 L 605.16 840.00 L 608.00 840.00 L 610.84 840.00 L 613.69 840.00 L 616.53 840.00 L 619.38 840.00 L 622.22 840.00 L 625.07 840.00 L 627.91 840.00 L 630.76 840.00 L 633.60 840.00 L 636.44 840.00 L 639.29 840.00 L 642.13 840.00 L 644.98 840.00 L 647.82 840.00 L 650.67 840.00 L 653.51 840.00 L 656.36 840.00 L 659.20 840.00 L 662.04 840.00 L 664.89 840.00 L 667.73 840.00 L 670.58 840.00 L 673.42 840.00 L 676.27 840.00 L 679.11 840.00 L 681.96 840.00 L 684.80 840.00 L 687.64 840.00 L 690.49 840.00 L 693.33 840.00 L 696.18 840.00 L 699.02 840.00 L 701.87 840.00 L 704.71 840.00 L 707.56 840.00 L 710.40 840.00 L 713.24 840.00 L 716.09 840.00 L 718.93 840.00 L 721.78 840.00 L 724.62 840.00 L 727.47 840.00 L 730.31 840.00 L 733.16 840.00 L 736.00 840.00 L 738.84 840.00 L 741.69 840.00 L 744.53 840.00 L 747.38 840.00 L 750.22 840.00 L 753.07 840.00 L 755.91 840.00 L 758.76 840.00 L 761.60 840.00 L 764.44 840.00 L 767.29 840.00 L 770.13 840.00 L 772.98 840.00 L 775.82 840.00 L 778.67 840.00 L 781.51 839.93 L 784.36 839.34 L 787.20 838.06 L 790.04 836.40 L 792.89 834.80 L 795.73 833.53" fill="none" stroke="#dc2626" stroke-width="1.3" stroke-opacity="0.70" stroke-linecap="round" stroke-linejoin="round"/>
<path d="M 796.44 833.25 L 798.58 832.42 L 801.42 831.31 L 804.27 830.19 L 807.11 829.08 L 809.96 827.96 L 812.80 826.84 L 815.64 825.71 L 818.49 824.59 L 821.33 823.45 L 824.18 822.32 L 827.02 821.18 L 829.87 820.05 L 832.71 818.91 L 835.56 817.78 L 838.40 816.65 L 841.24 815.52 L 844.09 814.40 L 846.93 813.29 L 849.78 812.19 L 852.62 811.10 L 855.47 810.02 L 858.31 808.96 L 861.16 807.91 L 864.00 806.88 L 866.84 805.88 L 869.69 804.90 L 872.53 803.94 L 875.38 803.01 L 878.22 802.10 L 881.07 801.23 L 883.91 800.39 L 886.76 799.58 L 889.60 798.81 L 892.44 798.08 L 895.29 797.38 L 898.13 796.72 L 900.98 796.10 L 903.82 795.52 L 906.67 794.98 L 909.51 794.48 L 912.36 794.02 L 915.20 793.60 L 918.04 793.23 L 920.89 792.89 L 923.73 792.60 L 926.58 792.34 L 929.42 792.12 L 932.27 791.93 L 935.11 791.78 L 937.96 791.66 L 940.80 791.56 L 943.64 791.49 L 946.49 791.45 L 949.33 791.42 L 952.18 791.41 L 955.02 791.40" fill="none" stroke="#dc2626" stroke-width="1.3" stroke-opacity="0.70" stroke-linecap="round" stroke-linejoin="round"/>
<path d="M 957.87 791.40 L 960.71 791.40 L 963.56 791.40 L 966.40 791.40 L 969.24 791.40 L 972.09 791.40 L 974.93 791.40 L 977.78 791.40 L 980.62 791.40 L 983.47 791.40" fill="none" stroke="#dc2626" stroke-width="1.3" stroke-opacity="0.70" stroke-linecap="round" stroke-linejoin="round"/>
<path d="M 986.31 791.40 L 989.16 791.40 L 992.00 791.41 L 994.84 791.43 L 997.69 791.47 L 1000.53 791.53 L 1003.38 791.61 L 1006.22 791.71 L 1009.07 791.85 L 1011.91 792.02 L 1014.76 792.22 L 1017.60 792.46 L 1020.44 792.74 L 1023.29 793.05 L 1026.13 793.41 L 1028.98 793.81 L 1031.82 794.24 L 1034.67 794.72 L 1037.51 795.24 L 1040.36 795.80 L 1043.20 796.40 L 1046.04 797.04 L 1048.89 797.72 L 1051.73 798.44 L 1054.58 799.19 L 1057.42 799.98 L 1060.27 800.81 L 1063.11 801.66 L 1065.96 802.55 L 1068.80 803.47 L 1071.64 804.41 L 1074.49 805.38 L 1077.33 806.38 L 1080.18 807.39 L 1083.02 808.43 L 1085.87 809.49 L 1088.71 810.56 L 1091.56 811.64 L 1094.40 812.74 L 1097.24 813.84 L 1100.09 814.96 L 1102.93 816.08 L 1105.78 817.21 L 1106.49 817.50 L 1108.62 818.35 L 1111.47 819.48 L 1114.31 820.62 L 1117.16 821.75 L 1120.00 822.89" fill="none" stroke="#dc2626" stroke-width="1.3" stroke-opacity="0.70" stroke-linecap="round" stroke-linejoin="round"/>
<line x1="1106.49" y1="786" x2="1106.49" y2="840" stroke="#2563eb" stroke-width="1.1" stroke-dasharray="4 4" data-event="IO"/>
<text x="1106.49" y="797" text-anchor="middle" font-family="Arial, sans-serif" font-size="9" font-weight="700" fill="#2563eb">IO</text>
<line x1="420.98" y1="786" x2="420.98" y2="840" stroke="#2563eb" stroke-width="1.1" stroke-dasharray="4 4" data-event="IC"/>
<text x="420.98" y="797" text-anchor="middle" font-family="Arial, sans-serif" font-size="9" font-weight="700" fill="#2563eb">IC</text>
<line x1="796.44" y1="786" x2="796.44" y2="840" stroke="#dc2626" stroke-width="1.1" stroke-dasharray="4 4" data-event="EO"/>
<text x="796.44" y="797" text-anchor="middle" font-family="Arial, sans-serif" font-size="9" font-weight="700" fill="#dc2626">EO</text>
<line x1="122.31" y1="786" x2="122.31" y2="840" stroke="#dc2626" stroke-width="1.1" stroke-dasharray="4 4" data-event="EC"/>
<text x="122.31" y="797" text-anchor="middle" font-family="Arial, sans-serif" font-size="9" font-weight="700" fill="#dc2626">EC</text>
<rect x="1150" y="92" width="342" height="748" rx="6" fill="#f8fafc" stroke="#cbd5e1"/>
<text x="1164" y="120" font-family="Arial, sans-serif" font-size="14" font-weight="700" fill="#0f172a">Timing Summary (@ 0.050 in)</text>
<text x="1168" y="146" font-family="Arial, sans-serif" font-size="12" fill="#334155">IO</text>
<text x="1474" y="146" text-anchor="end" font-family="Arial, sans-serif" font-size="12" font-weight="700" fill="#2563eb">9.5 BTDC</text>
<text x="1168" y="164" font-family="Arial, sans-serif" font-size="12" fill="#334155">IC</text>
<text x="1474" y="164" text-anchor="end" font-family="Arial, sans-serif" font-size="12" font-weight="700" fill="#2563eb">48.5 ABDC</text>
<text x="1168" y="182" font-family="Arial, sans-serif" font-size="12" fill="#334155">EO</text>
<text x="1474" y="182" text-anchor="end" font-family="Arial, sans-serif" font-size="12" font-weight="700" fill="#dc2626">47.5 BBDC</text>
<text x="1168" y="200" font-family="Arial, sans-serif" font-size="12" fill="#334155">EC</text>
<text x="1474" y="200" text-anchor="end" font-family="Arial, sans-serif" font-size="12" font-weight="700" fill="#dc2626">18.5 ATDC</text>
<text x="1168" y="218" font-family="Arial, sans-serif" font-size="12" fill="#334155">LSA</text>
<text x="1474" y="218" text-anchor="end" font-family="Arial, sans-serif" font-size="12" font-weight="700" fill="#0f172a">107.0</text>
<text x="1168" y="236" font-family="Arial, sans-serif" font-size="12" fill="#334155">Intake CL</text>
<text x="1474" y="236" text-anchor="end" font-family="Arial, sans-serif" font-size="12" font-weight="700" fill="#2563eb">109.5 ATDC</text>
<text x="1168" y="254" font-family="Arial, sans-serif" font-size="12" fill="#334155">Exhaust CL</text>
<text x="1474" y="254" text-anchor="end" font-family="Arial, sans-serif" font-size="12" font-weight="700" fill="#dc2626">104.5 BTDC</text>
<text x="1164" y="276" font-family="Arial, sans-serif" font-size="14" font-weight="700" fill="#0f172a">Overlap Summary</text>
<text x="1168" y="302" font-family="Arial, sans-serif" font-size="12" fill="#334155">@ 0.050 in</text>
<text x="1474" y="302" text-anchor="end" font-family="Arial, sans-serif" font-size="12" font-weight="700" fill="#0f172a">28.0 deg</text>
<text x="1168" y="322" font-family="Arial, sans-serif" font-size="12" fill="#334155">@ 0.020 in</text>
<text x="1474" y="322" text-anchor="end" font-family="Arial, sans-serif" font-size="12" font-weight="700" fill="#0f172a">39.1 deg est.</text>
<text x="1168" y="342" font-family="Arial, sans-serif" font-size="12" fill="#334155">@ 0.006 in</text>
<text x="1474" y="342" text-anchor="end" font-family="Arial, sans-serif" font-size="12" font-weight="700" fill="#0f172a">44.4 deg est.</text>
<text x="1164" y="406" font-family="Arial, sans-serif" font-size="14" font-weight="700" fill="#0f172a">Duration Summary (deg)</text>
<text x="1168" y="432" font-family="Arial, sans-serif" font-size="12" fill="#334155">@ 0.001 in</text>
<text x="1474" y="432" text-anchor="end" font-family="Arial, sans-serif" font-size="12" font-weight="700" fill="#0f172a">I 258.1 / E 266.1</text>
<text x="1168" y="450" font-family="Arial, sans-serif" font-size="12" fill="#334155">@ 0.006 in</text>
<text x="1474" y="450" text-anchor="end" font-family="Arial, sans-serif" font-size="12" font-weight="700" fill="#0f172a">I 254.4 / E 262.4</text>
<text x="1168" y="468" font-family="Arial, sans-serif" font-size="12" fill="#334155">@ 0.020 in</text>
<text x="1474" y="468" text-anchor="end" font-family="Arial, sans-serif" font-size="12" font-weight="700" fill="#0f172a">I 249.0 / E 257.1</text>
<text x="1168" y="486" font-family="Arial, sans-serif" font-size="12" fill="#334155">@ 0.050 in</text>
<text x="1474" y="486" text-anchor="end" font-family="Arial, sans-serif" font-size="12" font-weight="700" fill="#0f172a">I 238.0 / E 246.0</text>
<text x="1168" y="504" font-family="Arial, sans-serif" font-size="12" fill="#334155">@ 0.100 in</text>
<text x="1474" y="504" text-anchor="end" font-family="Arial, sans-serif" font-size="12" font-weight="700" fill="#0f172a">I 214.6 / E 221.8</text>
<text x="1168" y="522" font-family="Arial, sans-serif" font-size="12" fill="#334155">@ 0.200 in</text>
<text x="1474" y="522" text-anchor="end" font-family="Arial, sans-serif" font-size="12" font-weight="700" fill="#0f172a">I 168.3 / E 174.0</text>
<text x="1164" y="598" font-family="Arial, sans-serif" font-size="14" font-weight="700" fill="#0f172a">Profile Quality</text>
<text x="1168" y="624" font-family="Arial, sans-serif" font-size="12" fill="#334155">Confidence</text>
<text x="1474" y="624" text-anchor="end" font-family="Arial, sans-serif" font-size="12" font-weight="700" fill="#0f172a">27/100</text>
<text x="1168" y="642" font-family="Arial, sans-serif" font-size="12" fill="#334155">Measured</text>
<text x="1474" y="642" text-anchor="end" font-family="Arial, sans-serif" font-size="12" font-weight="700" fill="#0f172a">0%</text>
<text x="1168" y="660" font-family="Arial, sans-serif" font-size="12" fill="#334155">Inferred</text>
<text x="1474" y="660" text-anchor="end" font-family="Arial, sans-serif" font-size="12" font-weight="700" fill="#0f172a">31%</text>
<text x="1168" y="678" font-family="Arial, sans-serif" font-size="12" fill="#334155">Extrapolated</text>
<text x="1474" y="678" text-anchor="end" font-family="Arial, sans-serif" font-size="12" font-weight="700" fill="#0f172a">69%</text>
<text x="1164" y="712" font-family="Arial, sans-serif" font-size="14" font-weight="700" fill="#0f172a">Validation</text>
<text x="1168" y="738" font-family="Arial, sans-serif" font-size="11" fill="#7f1d1d">- Profile confidence is low</text>
<text x="1168" y="752" font-family="Arial, sans-serif" font-size="11" fill="#7f1d1d">- Intake: Cam-card reconstruction is</text>
<text x="1168" y="766" font-family="Arial, sans-serif" font-size="11" fill="#7f1d1d">  model-derived; replace with measured lift data</text>
<text x="1168" y="780" font-family="Arial, sans-serif" font-size="11" fill="#7f1d1d">  before using derivative-sensitive conclusions.</text>
<text x="1168" y="794" font-family="Arial, sans-serif" font-size="11" fill="#7f1d1d">- Intake: Opening and closing flanks are nearly</text>
<text x="1168" y="808" font-family="Arial, sans-serif" font-size="11" fill="#7f1d1d">  mirror-symmetric; the cam card does not</text>
<text x="1168" y="822" font-family="Arial, sans-serif" font-size="11" fill="#7f1d1d">- More warnings in JSON projection</text>
<rect x="24" y="856" width="348" height="118" rx="6" fill="#ffffff" stroke="#cbd5e1"/>
<text x="40" y="880" font-family="Arial, sans-serif" font-size="13" font-weight="700" fill="#0f172a">Cam Card Source</text>
<text x="40" y="904" font-family="Arial, sans-serif" font-size="12" fill="#1e293b">Web Cam 81-651 / WR250R DOHC 4V</text>
<text x="40" y="924" font-family="Arial, sans-serif" font-size="12" fill="#1e293b">Peak lift 0.360 in, cold lash 0.006/0.008 in</text>
<text x="40" y="944" font-family="Arial, sans-serif" font-size="12" fill="#1e293b">Primary view: 0-360, 180 = TDC overlap</text>
<rect x="396" y="856" width="520" height="118" rx="6" fill="#ffffff" stroke="#cbd5e1"/>
<text x="412" y="880" font-family="Arial, sans-serif" font-size="13" font-weight="700" fill="#0f172a">Legend / Provenance</text>
<line x1="420" y1="906" x2="464" y2="906" stroke="#0f172a" stroke-width="2.5" stroke-opacity="1.00" stroke-linecap="round"/>
<text x="478" y="910" font-family="Arial, sans-serif" font-size="12" fill="#1e293b">MEASURED</text>
<line x1="420" y1="926" x2="464" y2="926" stroke="#0f172a" stroke-width="2.5" stroke-opacity="0.70" stroke-dasharray="7 5" stroke-linecap="round"/>
<text x="478" y="930" font-family="Arial, sans-serif" font-size="12" fill="#1e293b">INFERRED</text>
<line x1="420" y1="946" x2="464" y2="946" stroke="#0f172a" stroke-width="2.5" stroke-opacity="0.45" stroke-dasharray="1 6" stroke-linecap="round"/>
<text x="478" y="950" font-family="Arial, sans-serif" font-size="12" fill="#1e293b">EXTRAPOLATED</text>
<rect x="420" y="958" width="44" height="12" fill="none" stroke="#0f172a"/>
<text x="478" y="970" font-family="Arial, sans-serif" font-size="12" fill="#1e293b">UNDECIDABLE</text>
<rect x="710" y="892" width="30" height="12" fill="#2563eb" fill-opacity="0.10"/>
<text x="750" y="903" font-family="Arial, sans-serif" font-size="12" fill="#1e293b">95% band</text>
<rect x="710" y="916" width="30" height="12" fill="#2563eb" fill-opacity="0.05"/>
<text x="750" y="927" font-family="Arial, sans-serif" font-size="12" fill="#1e293b">50% band</text>
<rect x="940" y="856" width="552" height="118" rx="6" fill="#ffffff" stroke="#cbd5e1"/>
<text x="956" y="880" font-family="Arial, sans-serif" font-size="13" font-weight="700" fill="#0f172a">How to read</text>
<text x="956" y="902" font-family="Arial, sans-serif" font-size="11" fill="#1e293b">- 0-360 view; 180 = TDC overlap</text>
<text x="956" y="917" font-family="Arial, sans-serif" font-size="11" fill="#1e293b">- Solid/dashed/dotted = measured/inferred/extrapolated</text>
<text x="956" y="932" font-family="Arial, sans-serif" font-size="11" fill="#1e293b">- Bands show 95% and 50% confidence</text>
<text x="956" y="947" font-family="Arial, sans-serif" font-size="11" fill="#1e293b">- Dashed markers are hard @0.050 in crossings</text>
<text x="956" y="962" font-family="Arial, sans-serif" font-size="11" fill="#1e293b">- 720 overview carries off-window events</text>
<text x="768" y="1004" text-anchor="middle" font-family="Arial, sans-serif" font-size="11" fill="#64748b">Projection: cam_analyzer.visualization_projection.v1. Renderer draws only sampled boundary answers and does not recompute source facts.</text>
</svg>
